{"glyphs":{"0":{"ha":860,"x_min":122,"x_max":740,"o":"m 431 355 q 380 375 401 355 q 358 426 358 394 q 380 478 358 458 q 431 497 401 497 q 483 478 462 497 q 505 426 505 458 q 483 375 505 394 q 431 355 462 355 m 432 -15 q 321 8 376 -15 q 221 81 266 30 q 149 217 176 131 q 122 427 122 302 q 149 638 122 553 q 221 773 176 722 q 321 846 266 824 q 432 868 376 868 q 539 846 485 868 q 639 773 593 824 q 712 638 684 722 q 740 427 740 553 q 712 217 740 302 q 639 81 684 131 q 539 8 593 30 q 432 -15 485 -15 m 432 74 q 525 111 481 74 q 595 225 568 147 q 623 427 623 303 q 595 629 623 551 q 525 743 568 706 q 432 780 481 780 q 338 743 381 780 q 267 629 294 706 q 240 427 240 551 q 267 225 240 303 q 338 111 294 147 q 432 74 381 74 z "},"1":{"ha":860,"x_min":158,"x_max":731,"o":"m 231 0 q 176 11 194 0 q 158 44 158 23 q 231 89 158 89 l 390 89 l 390 740 q 312 693 359 708 q 218 678 265 678 q 193 682 206 678 q 172 696 180 686 q 164 722 164 706 q 172 748 164 739 q 193 762 181 758 q 220 767 206 766 q 318 788 274 767 q 386 839 362 808 q 413 858 399 851 q 448 865 428 865 q 490 847 478 865 q 503 788 503 828 l 503 89 l 659 89 q 731 44 731 89 q 713 11 731 23 q 659 0 695 0 l 231 0 z "},"2":{"ha":860,"x_min":138,"x_max":710,"o":"m 687 634 q 655 507 687 574 q 572 375 622 440 q 465 252 521 310 q 360 152 408 195 q 284 89 311 110 l 638 89 q 692 77 674 89 q 710 44 710 65 q 692 11 710 23 q 638 0 674 0 l 208 0 q 155 14 172 0 q 138 53 138 28 q 149 89 138 75 q 185 123 161 103 q 272 199 222 153 q 375 299 322 244 q 472 411 427 353 q 544 526 517 469 q 572 633 572 583 q 532 742 572 703 q 423 781 492 781 q 321 756 366 781 q 249 699 276 731 q 220 675 234 684 q 190 665 206 665 q 157 678 172 665 q 141 710 141 692 q 173 767 141 740 q 278 839 213 809 q 426 869 344 869 q 617 809 547 869 q 687 634 687 749 z "},"3":{"ha":860,"x_min":147,"x_max":720,"o":"m 147 129 q 161 163 147 149 q 194 176 176 176 q 224 167 209 176 q 253 144 239 158 q 321 93 280 113 q 421 73 363 73 q 510 91 468 73 q 580 147 553 110 q 606 238 606 183 q 575 322 606 288 q 494 374 544 356 q 388 393 444 392 q 352 406 367 395 q 337 438 337 417 q 352 470 337 460 q 388 482 367 480 q 489 502 444 483 q 561 555 534 520 q 588 640 588 590 q 563 719 588 688 q 499 766 538 751 q 418 781 460 781 q 329 760 372 781 q 259 709 286 740 q 231 684 243 693 q 202 676 219 676 q 170 689 183 676 q 158 722 158 703 q 187 775 158 750 q 280 840 222 812 q 418 869 339 869 q 555 846 490 869 q 660 775 619 823 q 701 650 701 726 q 676 547 701 591 q 608 476 650 503 q 517 440 565 449 q 616 405 569 428 q 691 339 662 381 q 720 233 720 297 q 679 99 720 154 q 570 14 638 43 q 422 -16 503 -16 q 280 11 342 -16 q 176 77 218 38 q 154 104 160 90 q 147 129 147 117 z "},"4":{"ha":860,"x_min":97,"x_max":752,"o":"m 556 -14 q 513 3 528 -14 q 498 59 498 21 l 498 251 l 169 251 q 114 267 132 251 q 97 308 97 282 q 101 338 97 320 q 110 370 105 355 l 277 824 q 300 857 285 847 q 333 868 315 868 q 365 855 351 868 q 379 818 379 842 q 378 806 379 812 q 376 792 378 799 l 211 340 l 499 340 l 499 764 q 507 799 499 786 q 527 818 515 812 q 553 824 540 824 q 578 818 566 824 q 599 799 591 812 q 607 764 607 786 l 607 340 l 690 340 q 736 328 719 340 q 752 295 752 317 q 736 263 752 274 q 690 251 719 251 l 607 251 l 607 59 q 592 3 607 21 q 556 -14 578 -14 z "},"5":{"ha":860,"x_min":117,"x_max":722,"o":"m 438 573 q 580 542 516 573 q 683 448 644 511 q 722 285 722 384 q 696 156 722 212 q 625 61 671 99 q 517 5 578 24 q 385 -15 456 -15 q 255 4 314 -15 q 156 56 197 22 q 127 84 138 68 q 117 115 117 100 q 131 150 117 136 q 167 163 144 163 q 196 156 184 163 q 220 137 208 149 q 290 92 249 110 q 388 74 331 74 q 500 97 451 74 q 577 166 549 119 q 606 283 606 213 q 550 433 606 381 q 411 485 495 485 q 314 466 354 485 q 242 405 274 446 q 213 376 224 384 q 185 369 201 369 q 144 384 157 369 q 131 427 131 399 q 135 468 131 432 q 146 556 140 505 q 159 660 152 608 q 170 751 165 713 q 177 800 176 790 q 200 845 182 831 q 253 860 219 860 l 619 860 q 673 848 657 860 q 690 816 690 837 q 673 783 690 794 q 619 771 657 771 l 276 771 l 244 492 q 324 550 275 528 q 438 573 372 573 z "},"6":{"ha":860,"x_min":109,"x_max":731,"o":"m 467 573 q 658 503 585 573 q 731 290 731 434 q 693 129 731 197 q 586 23 656 60 q 420 -15 517 -15 q 255 31 324 -15 q 147 172 185 77 q 109 414 109 267 q 139 613 109 527 q 220 755 169 698 q 336 840 272 812 q 470 868 401 868 q 575 850 529 868 q 648 805 622 831 q 674 753 674 778 q 663 723 674 734 q 632 711 652 711 q 599 721 613 711 q 568 745 584 731 q 528 769 552 759 q 467 780 505 780 q 357 743 410 780 q 269 634 304 707 q 229 451 233 561 q 229 438 229 444 q 228 424 228 431 q 328 532 264 492 q 467 573 392 573 m 238 262 q 303 119 257 163 q 419 74 350 74 q 562 129 508 74 q 617 290 617 183 q 591 406 617 363 q 525 467 566 448 q 438 485 485 485 q 347 461 390 485 q 275 386 304 436 q 238 262 245 337 z "},"7":{"ha":860,"x_min":159,"x_max":718,"o":"m 159 816 q 177 848 159 837 q 230 860 195 860 l 642 860 q 718 803 718 860 q 711 766 718 782 q 690 729 704 751 q 576 544 631 647 q 484 320 520 441 q 448 64 448 200 q 389 -9 448 -9 q 345 11 360 -9 q 331 69 331 31 q 356 281 331 178 q 421 475 381 384 q 508 641 461 566 q 601 771 556 717 l 230 771 q 177 783 195 771 q 159 816 159 794 z "},"8":{"ha":860,"x_min":117,"x_max":738,"o":"m 428 -15 q 267 14 338 -15 q 157 99 197 43 q 117 235 117 155 q 164 377 117 322 q 280 457 210 432 q 188 532 224 483 q 152 647 152 581 q 190 767 152 718 q 290 842 228 817 q 428 867 353 867 q 565 842 503 867 q 665 767 628 817 q 703 647 703 718 q 667 532 703 580 q 575 457 631 483 q 690 376 643 431 q 738 235 738 322 q 698 99 738 155 q 588 14 658 43 q 428 -15 518 -15 m 228 240 q 285 115 228 158 q 428 72 342 72 q 570 115 514 72 q 626 240 626 158 q 598 333 626 295 q 524 390 569 370 q 428 410 479 410 q 331 390 377 410 q 257 333 285 370 q 228 240 228 295 m 260 641 q 305 537 260 578 q 428 496 351 496 q 550 537 504 496 q 595 641 595 578 q 547 744 595 708 q 428 781 499 781 q 308 744 357 781 q 260 641 260 708 z "},"9":{"ha":860,"x_min":110,"x_max":724,"o":"m 413 868 q 574 832 504 868 q 684 711 644 796 q 724 481 724 627 q 670 225 724 332 q 510 60 616 117 q 251 3 405 3 q 194 16 214 3 q 174 50 174 29 q 194 84 174 72 q 250 96 213 96 q 436 135 360 96 q 552 248 511 175 q 599 419 592 321 q 507 335 564 371 q 374 300 449 300 q 241 331 301 300 q 145 423 181 361 q 110 578 110 484 q 149 736 110 671 q 256 834 188 801 q 413 868 324 868 m 225 578 q 250 467 225 509 q 315 405 274 424 q 402 385 355 385 q 498 410 456 385 q 568 478 540 436 q 603 570 595 521 q 569 698 594 653 q 503 761 543 743 q 413 778 464 778 q 277 730 328 778 q 225 578 225 681 z "},"A":{"ha":860,"x_min":73,"x_max":785,"o":"m 126 -13 q 88 0 103 -13 q 73 38 73 13 q 74 53 73 45 q 79 70 76 61 l 328 794 q 360 845 338 826 q 412 865 383 865 l 446 865 q 498 845 476 865 q 531 794 521 826 l 779 70 q 784 53 783 61 q 785 38 785 45 q 770 0 785 13 q 731 -13 755 -13 q 688 3 702 -13 q 665 52 674 19 l 600 238 l 258 238 l 193 52 q 170 3 184 19 q 126 -13 156 -13 m 282 328 l 576 328 l 438 742 q 433 760 435 752 q 429 776 431 769 q 425 760 428 769 q 421 742 423 752 l 282 328 z "},"Á":{"ha":860,"x_min":73,"x_max":785,"o":"m 126 -13 q 88 0 103 -13 q 73 38 73 13 q 74 53 73 45 q 79 70 76 61 l 328 794 q 360 845 338 826 q 412 865 383 865 l 446 865 q 498 845 476 865 q 531 794 521 826 l 779 70 q 784 53 783 61 q 785 38 785 45 q 770 0 785 13 q 731 -13 755 -13 q 688 3 702 -13 q 665 52 674 19 l 600 238 l 258 238 l 193 52 q 170 3 184 19 q 126 -13 156 -13 m 282 328 l 576 328 l 438 742 q 433 760 435 752 q 429 776 431 769 q 425 760 428 769 q 421 742 423 752 l 282 328 m 402 924 q 385 930 393 924 q 377 945 377 935 q 399 990 377 960 l 458 1065 q 490 1098 476 1090 q 532 1107 504 1107 l 552 1107 q 577 1100 567 1107 q 586 1082 586 1093 q 567 1048 586 1066 l 483 963 q 442 934 462 944 q 402 924 423 924 z "},"Ă":{"ha":860,"x_min":73,"x_max":785,"o":"m 126 -13 q 88 0 103 -13 q 73 38 73 13 q 74 53 73 45 q 79 70 76 61 l 328 794 q 360 845 338 826 q 412 865 383 865 l 446 865 q 498 845 476 865 q 531 794 521 826 l 779 70 q 784 53 783 61 q 785 38 785 45 q 770 0 785 13 q 731 -13 755 -13 q 688 3 702 -13 q 665 52 674 19 l 600 238 l 258 238 l 193 52 q 170 3 184 19 q 126 -13 156 -13 m 282 328 l 576 328 l 438 742 q 433 760 435 752 q 429 776 431 769 q 425 760 428 769 q 421 742 423 752 l 282 328 m 546 1103 q 574 1092 564 1103 q 584 1063 584 1081 q 581 1046 584 1056 q 569 1026 577 1036 q 519 957 555 986 q 428 927 484 927 q 340 956 374 927 q 292 1023 306 984 q 279 1043 283 1033 q 275 1063 275 1053 q 285 1092 275 1081 q 312 1103 295 1103 q 343 1091 334 1103 q 357 1060 353 1078 q 377 1014 361 1036 q 429 992 393 992 q 482 1014 466 992 q 501 1060 497 1036 q 515 1091 505 1078 q 546 1103 524 1103 z "},"Ắ":{"ha":860,"x_min":73,"x_max":785,"o":"m 126 -13 q 88 0 103 -13 q 73 38 73 13 q 74 53 73 45 q 79 70 76 61 l 328 794 q 360 845 338 826 q 412 865 383 865 l 446 865 q 498 845 476 865 q 531 794 521 826 l 779 70 q 784 53 783 61 q 785 38 785 45 q 770 0 785 13 q 731 -13 755 -13 q 688 3 702 -13 q 665 52 674 19 l 600 238 l 258 238 l 193 52 q 170 3 184 19 q 126 -13 156 -13 m 282 328 l 576 328 l 438 742 q 433 760 435 752 q 429 776 431 769 q 425 760 428 769 q 421 742 423 752 l 282 328 m 546 1103 q 574 1092 564 1103 q 584 1063 584 1081 q 581 1046 584 1056 q 569 1026 577 1036 q 519 957 555 986 q 428 927 484 927 q 340 956 374 927 q 292 1023 306 984 q 279 1043 283 1033 q 275 1063 275 1053 q 285 1092 275 1081 q 312 1103 295 1103 q 343 1091 334 1103 q 357 1060 353 1078 q 377 1014 361 1036 q 429 992 393 992 q 482 1014 466 992 q 501 1060 497 1036 q 515 1091 505 1078 q 546 1103 524 1103 m 402 1162 q 385 1167 393 1162 q 377 1183 377 1172 q 399 1227 377 1197 l 458 1303 q 490 1336 476 1327 q 532 1344 504 1344 l 552 1344 q 577 1338 567 1344 q 586 1319 586 1331 q 567 1285 586 1303 l 483 1201 q 442 1172 462 1181 q 402 1162 423 1162 z "},"Ặ":{"ha":860,"x_min":73,"x_max":785,"o":"m 126 -13 q 88 0 103 -13 q 73 38 73 13 q 74 53 73 45 q 79 70 76 61 l 328 794 q 360 845 338 826 q 412 865 383 865 l 446 865 q 498 845 476 865 q 531 794 521 826 l 779 70 q 784 53 783 61 q 785 38 785 45 q 770 0 785 13 q 731 -13 755 -13 q 688 3 702 -13 q 665 52 674 19 l 600 238 l 258 238 l 193 52 q 170 3 184 19 q 126 -13 156 -13 m 282 328 l 576 328 l 438 742 q 433 760 435 752 q 429 776 431 769 q 425 760 428 769 q 421 742 423 752 l 282 328 m 429 -246 q 371 -222 394 -246 q 347 -163 347 -198 q 371 -106 347 -129 q 429 -82 394 -82 q 486 -106 463 -82 q 510 -163 510 -129 q 486 -223 510 -199 q 429 -246 463 -246 m 546 1103 q 574 1092 564 1103 q 584 1063 584 1081 q 581 1046 584 1056 q 569 1026 577 1036 q 519 957 555 986 q 428 927 484 927 q 340 956 374 927 q 292 1023 306 984 q 279 1043 283 1033 q 275 1063 275 1053 q 285 1092 275 1081 q 312 1103 295 1103 q 343 1091 334 1103 q 357 1060 353 1078 q 377 1014 361 1036 q 429 992 393 992 q 482 1014 466 992 q 501 1060 497 1036 q 515 1091 505 1078 q 546 1103 524 1103 z "},"Ằ":{"ha":860,"x_min":73,"x_max":785,"o":"m 126 -13 q 88 0 103 -13 q 73 38 73 13 q 74 53 73 45 q 79 70 76 61 l 328 794 q 360 845 338 826 q 412 865 383 865 l 446 865 q 498 845 476 865 q 531 794 521 826 l 779 70 q 784 53 783 61 q 785 38 785 45 q 770 0 785 13 q 731 -13 755 -13 q 688 3 702 -13 q 665 52 674 19 l 600 238 l 258 238 l 193 52 q 170 3 184 19 q 126 -13 156 -13 m 282 328 l 576 328 l 438 742 q 433 760 435 752 q 429 776 431 769 q 425 760 428 769 q 421 742 423 752 l 282 328 m 546 1103 q 574 1092 564 1103 q 584 1063 584 1081 q 581 1046 584 1056 q 569 1026 577 1036 q 519 957 555 986 q 428 927 484 927 q 340 956 374 927 q 292 1023 306 984 q 279 1043 283 1033 q 275 1063 275 1053 q 285 1092 275 1081 q 312 1103 295 1103 q 343 1091 334 1103 q 357 1060 353 1078 q 377 1014 361 1036 q 429 992 393 992 q 482 1014 466 992 q 501 1060 497 1036 q 515 1091 505 1078 q 546 1103 524 1103 m 465 1158 q 425 1168 445 1158 q 384 1197 406 1177 l 300 1281 q 281 1315 281 1299 q 291 1334 281 1327 q 315 1340 301 1340 l 335 1340 q 378 1332 363 1340 q 410 1299 392 1323 l 468 1222 q 490 1178 490 1193 q 483 1163 490 1168 q 465 1158 475 1158 z "},"Ẳ":{"ha":860,"x_min":73,"x_max":785,"o":"m 126 -13 q 88 0 103 -13 q 73 38 73 13 q 74 53 73 45 q 79 70 76 61 l 328 794 q 360 845 338 826 q 412 865 383 865 l 446 865 q 498 845 476 865 q 531 794 521 826 l 779 70 q 784 53 783 61 q 785 38 785 45 q 770 0 785 13 q 731 -13 755 -13 q 688 3 702 -13 q 665 52 674 19 l 600 238 l 258 238 l 193 52 q 170 3 184 19 q 126 -13 156 -13 m 282 328 l 576 328 l 438 742 q 433 760 435 752 q 429 776 431 769 q 425 760 428 769 q 421 742 423 752 l 282 328 m 546 1103 q 574 1092 564 1103 q 584 1063 584 1081 q 581 1046 584 1056 q 569 1026 577 1036 q 519 957 555 986 q 428 927 484 927 q 340 956 374 927 q 292 1023 306 984 q 279 1043 283 1033 q 275 1063 275 1053 q 285 1092 275 1081 q 312 1103 295 1103 q 343 1091 334 1103 q 357 1060 353 1078 q 377 1014 361 1036 q 429 992 393 992 q 482 1014 466 992 q 501 1060 497 1036 q 515 1091 505 1078 q 546 1103 524 1103 m 399 1160 q 371 1169 381 1160 q 361 1192 361 1178 q 371 1215 361 1206 q 399 1224 381 1224 q 466 1232 435 1224 q 498 1266 498 1240 q 468 1296 498 1290 q 406 1302 438 1302 q 367 1301 384 1302 q 336 1296 351 1299 q 322 1294 328 1294 q 311 1293 316 1293 q 292 1299 299 1293 q 285 1316 285 1305 q 320 1354 285 1342 q 406 1367 356 1367 q 488 1358 450 1367 q 550 1327 526 1349 q 574 1265 574 1306 q 544 1202 574 1224 q 475 1170 515 1179 q 399 1160 435 1160 z "},"Ẵ":{"ha":860,"x_min":73,"x_max":785,"o":"m 126 -13 q 88 0 103 -13 q 73 38 73 13 q 74 53 73 45 q 79 70 76 61 l 328 794 q 360 845 338 826 q 412 865 383 865 l 446 865 q 498 845 476 865 q 531 794 521 826 l 779 70 q 784 53 783 61 q 785 38 785 45 q 770 0 785 13 q 731 -13 755 -13 q 688 3 702 -13 q 665 52 674 19 l 600 238 l 258 238 l 193 52 q 170 3 184 19 q 126 -13 156 -13 m 282 328 l 576 328 l 438 742 q 433 760 435 752 q 429 776 431 769 q 425 760 428 769 q 421 742 423 752 l 282 328 m 546 1103 q 574 1092 564 1103 q 584 1063 584 1081 q 581 1046 584 1056 q 569 1026 577 1036 q 519 957 555 986 q 428 927 484 927 q 340 956 374 927 q 292 1023 306 984 q 279 1043 283 1033 q 275 1063 275 1053 q 285 1092 275 1081 q 312 1103 295 1103 q 343 1091 334 1103 q 357 1060 353 1078 q 377 1014 361 1036 q 429 992 393 992 q 482 1014 466 992 q 501 1060 497 1036 q 515 1091 505 1078 q 546 1103 524 1103 m 504 1171 q 453 1182 472 1171 q 417 1208 434 1193 q 390 1228 403 1221 q 357 1235 378 1235 q 319 1227 336 1235 q 290 1210 303 1220 q 273 1199 281 1203 q 258 1194 264 1194 q 240 1203 247 1194 q 232 1225 232 1213 q 259 1272 232 1248 q 301 1299 276 1287 q 356 1311 326 1311 q 406 1301 388 1311 q 440 1275 424 1290 q 467 1253 454 1262 q 502 1245 480 1245 q 538 1252 523 1245 q 564 1269 553 1260 q 582 1283 573 1278 q 601 1288 592 1288 q 622 1281 613 1288 q 631 1258 631 1273 q 619 1229 631 1241 q 575 1192 605 1213 q 504 1171 544 1171 z "},"Ǎ":{"ha":860,"x_min":73,"x_max":785,"o":"m 126 -13 q 88 0 103 -13 q 73 38 73 13 q 74 53 73 45 q 79 70 76 61 l 328 794 q 360 845 338 826 q 412 865 383 865 l 446 865 q 498 845 476 865 q 531 794 521 826 l 779 70 q 784 53 783 61 q 785 38 785 45 q 770 0 785 13 q 731 -13 755 -13 q 688 3 702 -13 q 665 52 674 19 l 600 238 l 258 238 l 193 52 q 170 3 184 19 q 126 -13 156 -13 m 282 328 l 576 328 l 438 742 q 433 760 435 752 q 429 776 431 769 q 425 760 428 769 q 421 742 423 752 l 282 328 m 573 1026 l 508 960 q 470 927 488 938 q 429 917 453 917 q 388 927 405 917 q 351 960 370 938 l 285 1026 q 270 1058 270 1042 q 280 1082 270 1072 q 306 1091 290 1091 q 331 1083 321 1091 q 353 1061 342 1075 l 430 980 l 504 1060 q 527 1083 517 1074 q 553 1091 538 1091 q 580 1082 569 1091 q 590 1059 590 1073 q 586 1043 590 1052 q 573 1026 582 1035 z "},"Â":{"ha":860,"x_min":73,"x_max":785,"o":"m 126 -13 q 88 0 103 -13 q 73 38 73 13 q 74 53 73 45 q 79 70 76 61 l 328 794 q 360 845 338 826 q 412 865 383 865 l 446 865 q 498 845 476 865 q 531 794 521 826 l 779 70 q 784 53 783 61 q 785 38 785 45 q 770 0 785 13 q 731 -13 755 -13 q 688 3 702 -13 q 665 52 674 19 l 600 238 l 258 238 l 193 52 q 170 3 184 19 q 126 -13 156 -13 m 282 328 l 576 328 l 438 742 q 433 760 435 752 q 429 776 431 769 q 425 760 428 769 q 421 742 423 752 l 282 328 m 574 983 q 590 951 590 966 q 580 927 590 936 q 553 919 569 919 q 528 927 538 919 q 505 948 517 935 l 430 1029 l 354 948 q 332 926 342 933 q 306 919 322 919 q 280 928 290 919 q 270 951 270 937 q 274 967 270 958 q 285 983 278 975 l 351 1049 q 388 1081 370 1071 q 429 1092 406 1092 q 471 1082 453 1092 q 508 1049 488 1072 l 574 983 z "},"Ấ":{"ha":860,"x_min":73,"x_max":785,"o":"m 126 -13 q 88 0 103 -13 q 73 38 73 13 q 74 53 73 45 q 79 70 76 61 l 328 794 q 360 845 338 826 q 412 865 383 865 l 446 865 q 498 845 476 865 q 531 794 521 826 l 779 70 q 784 53 783 61 q 785 38 785 45 q 770 0 785 13 q 731 -13 755 -13 q 688 3 702 -13 q 665 52 674 19 l 600 238 l 258 238 l 193 52 q 170 3 184 19 q 126 -13 156 -13 m 282 328 l 576 328 l 438 742 q 433 760 435 752 q 429 776 431 769 q 425 760 428 769 q 421 742 423 752 l 282 328 m 574 1008 q 590 974 590 990 q 580 952 590 960 q 553 943 569 943 q 528 951 538 943 q 505 973 517 959 l 430 1053 l 354 972 q 332 951 342 958 q 306 943 322 943 q 280 952 290 943 q 270 975 270 961 q 285 1008 270 992 l 351 1074 q 388 1106 370 1096 q 429 1117 406 1117 q 471 1106 453 1117 q 508 1074 488 1096 l 574 1008 m 566 1068 q 550 1072 558 1068 q 542 1088 542 1076 q 563 1132 542 1102 l 619 1208 q 650 1242 635 1234 q 692 1250 665 1250 l 708 1250 q 732 1243 723 1250 q 741 1225 741 1237 q 722 1190 741 1208 l 629 1099 q 595 1075 611 1082 q 566 1068 580 1068 z "},"Ậ":{"ha":860,"x_min":73,"x_max":785,"o":"m 126 -13 q 88 0 103 -13 q 73 38 73 13 q 74 53 73 45 q 79 70 76 61 l 328 794 q 360 845 338 826 q 412 865 383 865 l 446 865 q 498 845 476 865 q 531 794 521 826 l 779 70 q 784 53 783 61 q 785 38 785 45 q 770 0 785 13 q 731 -13 755 -13 q 688 3 702 -13 q 665 52 674 19 l 600 238 l 258 238 l 193 52 q 170 3 184 19 q 126 -13 156 -13 m 282 328 l 576 328 l 438 742 q 433 760 435 752 q 429 776 431 769 q 425 760 428 769 q 421 742 423 752 l 282 328 m 429 -246 q 371 -222 394 -246 q 347 -163 347 -198 q 371 -106 347 -129 q 429 -82 394 -82 q 486 -106 463 -82 q 510 -163 510 -129 q 486 -223 510 -199 q 429 -246 463 -246 m 574 983 q 590 951 590 966 q 580 927 590 936 q 553 919 569 919 q 528 927 538 919 q 505 948 517 935 l 430 1029 l 354 948 q 332 926 342 933 q 306 919 322 919 q 280 928 290 919 q 270 951 270 937 q 274 967 270 958 q 285 983 278 975 l 351 1049 q 388 1081 370 1071 q 429 1092 406 1092 q 471 1082 453 1092 q 508 1049 488 1072 l 574 983 z "},"Ầ":{"ha":860,"x_min":73,"x_max":785,"o":"m 126 -13 q 88 0 103 -13 q 73 38 73 13 q 74 53 73 45 q 79 70 76 61 l 328 794 q 360 845 338 826 q 412 865 383 865 l 446 865 q 498 845 476 865 q 531 794 521 826 l 779 70 q 784 53 783 61 q 785 38 785 45 q 770 0 785 13 q 731 -13 755 -13 q 688 3 702 -13 q 665 52 674 19 l 600 238 l 258 238 l 193 52 q 170 3 184 19 q 126 -13 156 -13 m 282 328 l 576 328 l 438 742 q 433 760 435 752 q 429 776 431 769 q 425 760 428 769 q 421 742 423 752 l 282 328 m 574 1008 q 590 974 590 990 q 580 952 590 960 q 553 943 569 943 q 528 951 538 943 q 505 973 517 959 l 430 1053 l 354 972 q 332 951 342 958 q 306 943 322 943 q 280 952 290 943 q 270 975 270 961 q 285 1008 270 992 l 351 1074 q 388 1106 370 1096 q 429 1117 406 1117 q 471 1106 453 1117 q 508 1074 488 1096 l 574 1008 m 631 1068 q 602 1075 617 1068 q 568 1099 586 1081 l 476 1190 q 456 1225 456 1210 q 466 1243 456 1237 q 489 1250 475 1250 l 505 1250 q 548 1242 533 1250 q 578 1208 563 1234 l 635 1132 q 655 1088 655 1102 q 647 1072 655 1076 q 631 1068 639 1068 z "},"Ẩ":{"ha":860,"x_min":73,"x_max":785,"o":"m 126 -13 q 88 0 103 -13 q 73 38 73 13 q 74 53 73 45 q 79 70 76 61 l 328 794 q 360 845 338 826 q 412 865 383 865 l 446 865 q 498 845 476 865 q 531 794 521 826 l 779 70 q 784 53 783 61 q 785 38 785 45 q 770 0 785 13 q 731 -13 755 -13 q 688 3 702 -13 q 665 52 674 19 l 600 238 l 258 238 l 193 52 q 170 3 184 19 q 126 -13 156 -13 m 282 328 l 576 328 l 438 742 q 433 760 435 752 q 429 776 431 769 q 425 760 428 769 q 421 742 423 752 l 282 328 m 574 1008 q 590 974 590 990 q 580 952 590 960 q 553 943 569 943 q 528 951 538 943 q 505 973 517 959 l 430 1053 l 354 972 q 332 951 342 958 q 306 943 322 943 q 280 952 290 943 q 270 975 270 961 q 285 1008 270 992 l 351 1074 q 388 1106 370 1096 q 429 1117 406 1117 q 471 1106 453 1117 q 508 1074 488 1096 l 574 1008 m 580 1081 q 542 1109 542 1081 q 551 1131 542 1123 q 580 1139 561 1139 q 648 1148 615 1139 q 681 1183 681 1157 q 651 1214 681 1207 q 589 1222 622 1222 q 550 1219 567 1222 q 520 1213 533 1217 q 504 1210 513 1211 q 490 1210 495 1210 q 474 1215 481 1210 q 466 1233 466 1220 q 501 1269 466 1257 q 587 1281 536 1281 q 668 1272 631 1281 q 728 1243 705 1264 q 751 1182 751 1222 q 723 1119 751 1142 q 655 1089 695 1097 q 580 1081 615 1081 z "},"Ẫ":{"ha":860,"x_min":73,"x_max":785,"o":"m 126 -13 q 88 0 103 -13 q 73 38 73 13 q 74 53 73 45 q 79 70 76 61 l 328 794 q 360 845 338 826 q 412 865 383 865 l 446 865 q 498 845 476 865 q 531 794 521 826 l 779 70 q 784 53 783 61 q 785 38 785 45 q 770 0 785 13 q 731 -13 755 -13 q 688 3 702 -13 q 665 52 674 19 l 600 238 l 258 238 l 193 52 q 170 3 184 19 q 126 -13 156 -13 m 282 328 l 576 328 l 438 742 q 433 760 435 752 q 429 776 431 769 q 425 760 428 769 q 421 742 423 752 l 282 328 m 574 983 q 590 951 590 966 q 580 927 590 936 q 553 919 569 919 q 528 927 538 919 q 505 948 517 935 l 430 1029 l 354 948 q 332 926 342 933 q 306 919 322 919 q 280 928 290 919 q 270 951 270 937 q 274 967 270 958 q 285 983 278 975 l 351 1049 q 388 1081 370 1071 q 429 1092 406 1092 q 471 1082 453 1092 q 508 1049 488 1072 l 574 983 m 504 1160 q 453 1172 472 1160 q 417 1197 434 1183 q 390 1217 403 1210 q 357 1224 378 1224 q 319 1217 336 1224 q 290 1200 303 1210 q 273 1189 281 1193 q 258 1184 264 1184 q 240 1193 247 1184 q 232 1215 232 1202 q 259 1262 232 1238 q 301 1289 276 1276 q 356 1301 326 1301 q 406 1290 388 1301 q 440 1265 424 1280 q 467 1243 454 1251 q 502 1235 480 1235 q 538 1242 523 1235 q 564 1259 553 1249 q 582 1273 573 1267 q 601 1278 592 1278 q 622 1270 613 1278 q 631 1247 631 1263 q 619 1219 631 1231 q 575 1181 605 1202 q 504 1160 544 1160 z "},"Ȁ":{"ha":860,"x_min":73,"x_max":785,"o":"m 126 -13 q 88 0 103 -13 q 73 38 73 13 q 74 53 73 45 q 79 70 76 61 l 328 794 q 360 845 338 826 q 412 865 383 865 l 446 865 q 498 845 476 865 q 531 794 521 826 l 779 70 q 784 53 783 61 q 785 38 785 45 q 770 0 785 13 q 731 -13 755 -13 q 688 3 702 -13 q 665 52 674 19 l 600 238 l 258 238 l 193 52 q 170 3 184 19 q 126 -13 156 -13 m 282 328 l 576 328 l 438 742 q 433 760 435 752 q 429 776 431 769 q 425 760 428 769 q 421 742 423 752 l 282 328 m 345 919 q 309 928 326 919 q 272 957 292 938 l 191 1042 q 177 1060 181 1051 q 174 1076 174 1069 q 182 1094 174 1088 q 204 1101 191 1101 l 222 1101 q 260 1092 247 1101 q 289 1060 274 1083 l 346 983 q 367 939 367 953 q 360 924 367 929 q 345 919 353 919 m 549 919 q 514 928 531 919 q 477 957 497 938 l 396 1042 q 378 1076 378 1060 q 388 1094 378 1088 q 409 1101 397 1101 l 427 1101 q 466 1092 453 1101 q 494 1060 478 1083 l 551 983 q 567 958 562 969 q 572 939 572 947 q 565 924 572 929 q 549 919 558 919 z "},"Ä":{"ha":860,"x_min":73,"x_max":785,"o":"m 126 -13 q 88 0 103 -13 q 73 38 73 13 q 74 53 73 45 q 79 70 76 61 l 328 794 q 360 845 338 826 q 412 865 383 865 l 446 865 q 498 845 476 865 q 531 794 521 826 l 779 70 q 784 53 783 61 q 785 38 785 45 q 770 0 785 13 q 731 -13 755 -13 q 688 3 702 -13 q 665 52 674 19 l 600 238 l 258 238 l 193 52 q 170 3 184 19 q 126 -13 156 -13 m 282 328 l 576 328 l 438 742 q 433 760 435 752 q 429 776 431 769 q 425 760 428 769 q 421 742 423 752 l 282 328 m 294 947 q 236 971 260 947 q 213 1029 213 995 q 236 1088 213 1064 q 294 1112 260 1112 q 351 1088 328 1112 q 375 1029 375 1064 q 351 971 375 995 q 294 947 328 947 m 566 947 q 508 971 531 947 q 484 1029 484 995 q 508 1088 484 1064 q 566 1112 531 1112 q 624 1088 600 1112 q 648 1029 648 1064 q 624 971 648 995 q 566 947 600 947 z "},"Ạ":{"ha":860,"x_min":73,"x_max":785,"o":"m 126 -13 q 88 0 103 -13 q 73 38 73 13 q 74 53 73 45 q 79 70 76 61 l 328 794 q 360 845 338 826 q 412 865 383 865 l 446 865 q 498 845 476 865 q 531 794 521 826 l 779 70 q 784 53 783 61 q 785 38 785 45 q 770 0 785 13 q 731 -13 755 -13 q 688 3 702 -13 q 665 52 674 19 l 600 238 l 258 238 l 193 52 q 170 3 184 19 q 126 -13 156 -13 m 282 328 l 576 328 l 438 742 q 433 760 435 752 q 429 776 431 769 q 425 760 428 769 q 421 742 423 752 l 282 328 m 429 -246 q 371 -222 394 -246 q 347 -163 347 -198 q 371 -106 347 -129 q 429 -82 394 -82 q 486 -106 463 -82 q 510 -163 510 -129 q 486 -223 510 -199 q 429 -246 463 -246 z "},"À":{"ha":860,"x_min":73,"x_max":785,"o":"m 126 -13 q 88 0 103 -13 q 73 38 73 13 q 74 53 73 45 q 79 70 76 61 l 328 794 q 360 845 338 826 q 412 865 383 865 l 446 865 q 498 845 476 865 q 531 794 521 826 l 779 70 q 784 53 783 61 q 785 38 785 45 q 770 0 785 13 q 731 -13 755 -13 q 688 3 702 -13 q 665 52 674 19 l 600 238 l 258 238 l 193 52 q 170 3 184 19 q 126 -13 156 -13 m 282 328 l 576 328 l 438 742 q 433 760 435 752 q 429 776 431 769 q 425 760 428 769 q 421 742 423 752 l 282 328 m 465 921 q 425 930 445 921 q 384 959 406 940 l 300 1044 q 281 1078 281 1062 q 291 1096 281 1090 q 315 1103 301 1103 l 335 1103 q 378 1094 363 1103 q 410 1061 392 1085 l 468 985 q 490 941 490 956 q 483 926 490 931 q 465 921 475 921 z "},"Ả":{"ha":860,"x_min":73,"x_max":785,"o":"m 126 -13 q 88 0 103 -13 q 73 38 73 13 q 74 53 73 45 q 79 70 76 61 l 328 794 q 360 845 338 826 q 412 865 383 865 l 446 865 q 498 845 476 865 q 531 794 521 826 l 779 70 q 784 53 783 61 q 785 38 785 45 q 770 0 785 13 q 731 -13 755 -13 q 688 3 702 -13 q 665 52 674 19 l 600 238 l 258 238 l 193 52 q 170 3 184 19 q 126 -13 156 -13 m 282 328 l 576 328 l 438 742 q 433 760 435 752 q 429 776 431 769 q 425 760 428 769 q 421 742 423 752 l 282 328 m 399 923 q 371 932 381 923 q 361 954 361 940 q 371 977 361 968 q 399 986 381 986 q 466 994 435 986 q 498 1028 498 1002 q 468 1059 498 1053 q 406 1065 438 1065 q 367 1063 384 1065 q 336 1058 351 1062 q 322 1056 328 1057 q 311 1056 316 1056 q 292 1061 299 1056 q 285 1078 285 1067 q 320 1117 285 1104 q 406 1129 356 1129 q 488 1120 450 1129 q 550 1090 526 1112 q 574 1027 574 1068 q 544 964 574 987 q 475 932 515 942 q 399 923 435 923 z "},"Ȃ":{"ha":860,"x_min":73,"x_max":785,"o":"m 126 -13 q 88 0 103 -13 q 73 38 73 13 q 74 53 73 45 q 79 70 76 61 l 328 794 q 360 845 338 826 q 412 865 383 865 l 446 865 q 498 845 476 865 q 531 794 521 826 l 779 70 q 784 53 783 61 q 785 38 785 45 q 770 0 785 13 q 731 -13 755 -13 q 688 3 702 -13 q 665 52 674 19 l 600 238 l 258 238 l 193 52 q 170 3 184 19 q 126 -13 156 -13 m 282 328 l 576 328 l 438 742 q 433 760 435 752 q 429 776 431 769 q 425 760 428 769 q 421 742 423 752 l 282 328 m 546 925 q 515 937 524 925 q 501 968 505 949 q 482 1014 497 992 q 429 1036 466 1036 q 377 1014 393 1036 q 357 968 361 992 q 343 937 353 949 q 312 925 334 925 q 285 936 295 925 q 275 965 275 947 q 279 985 275 974 q 292 1005 283 995 q 340 1072 306 1044 q 428 1101 374 1101 q 519 1071 484 1101 q 569 1001 555 1042 q 581 982 577 992 q 584 964 584 973 q 574 935 584 946 q 546 925 564 925 z "},"Ā":{"ha":860,"x_min":73,"x_max":785,"o":"m 126 -13 q 88 0 103 -13 q 73 38 73 13 q 74 53 73 45 q 79 70 76 61 l 328 794 q 360 845 338 826 q 412 865 383 865 l 446 865 q 498 845 476 865 q 531 794 521 826 l 779 70 q 784 53 783 61 q 785 38 785 45 q 770 0 785 13 q 731 -13 755 -13 q 688 3 702 -13 q 665 52 674 19 l 600 238 l 258 238 l 193 52 q 170 3 184 19 q 126 -13 156 -13 m 282 328 l 576 328 l 438 742 q 433 760 435 752 q 429 776 431 769 q 425 760 428 769 q 421 742 423 752 l 282 328 m 185 991 q 202 1019 185 1009 q 253 1029 219 1029 l 605 1029 q 657 1019 640 1029 q 673 991 673 1009 q 657 963 673 973 q 605 953 640 953 l 253 953 q 202 963 219 953 q 185 991 185 973 z "},"Ą":{"ha":860,"x_min":73,"x_max":860,"o":"m 126 -13 q 88 0 103 -13 q 73 38 73 13 q 74 53 73 45 q 79 70 76 61 l 328 794 q 360 845 338 826 q 412 865 383 865 l 446 865 q 498 845 476 865 q 531 794 521 826 l 779 70 q 784 53 783 61 q 785 38 785 45 q 770 0 785 13 q 731 -13 755 -13 q 688 3 702 -13 q 665 52 674 19 l 600 238 l 258 238 l 193 52 q 170 3 184 19 q 126 -13 156 -13 m 282 328 l 576 328 l 438 742 q 433 760 435 752 q 429 776 431 769 q 425 760 428 769 q 421 742 423 752 l 282 328 m 750 -316 q 669 -303 707 -316 q 609 -263 632 -291 q 586 -190 586 -235 q 599 -124 586 -157 q 632 -64 612 -91 q 673 -19 651 -36 q 711 0 694 -1 l 765 0 q 730 -39 749 -10 q 695 -102 710 -67 q 680 -171 680 -138 q 702 -224 680 -208 q 754 -240 724 -240 q 776 -238 764 -240 q 797 -235 788 -237 q 811 -232 804 -233 q 824 -231 819 -231 q 851 -241 842 -231 q 860 -265 860 -251 q 826 -305 860 -293 q 750 -316 792 -316 z "},"Å":{"ha":860,"x_min":73,"x_max":785,"o":"m 126 -13 q 88 0 103 -13 q 73 38 73 13 q 74 53 73 45 q 79 70 76 61 l 328 794 q 360 845 338 826 q 412 865 383 865 l 446 865 q 498 845 476 865 q 531 794 521 826 l 779 70 q 784 53 783 61 q 785 38 785 45 q 770 0 785 13 q 731 -13 755 -13 q 688 3 702 -13 q 665 52 674 19 l 600 238 l 258 238 l 193 52 q 170 3 184 19 q 126 -13 156 -13 m 282 328 l 576 328 l 438 742 q 433 760 435 752 q 429 776 431 769 q 425 760 428 769 q 421 742 423 752 l 282 328 m 431 911 q 348 944 383 911 q 313 1028 313 978 q 328 1086 313 1060 q 372 1128 344 1112 q 431 1144 399 1144 q 488 1128 462 1144 q 531 1086 515 1112 q 547 1028 547 1060 q 512 944 547 978 q 431 911 478 911 m 431 974 q 468 989 453 974 q 484 1029 484 1003 q 468 1064 484 1050 q 431 1078 453 1078 q 392 1064 408 1078 q 376 1029 376 1050 q 392 989 376 1003 q 431 974 408 974 z "},"Ǻ":{"ha":860,"x_min":73,"x_max":785,"o":"m 126 -13 q 88 0 103 -13 q 73 38 73 13 q 74 53 73 45 q 79 70 76 61 l 328 794 q 360 845 338 826 q 412 865 383 865 l 446 865 q 498 845 476 865 q 531 794 521 826 l 779 70 q 784 53 783 61 q 785 38 785 45 q 770 0 785 13 q 731 -13 755 -13 q 688 3 702 -13 q 665 52 674 19 l 600 238 l 258 238 l 193 52 q 170 3 184 19 q 126 -13 156 -13 m 282 328 l 576 328 l 438 742 q 433 760 435 752 q 429 776 431 769 q 425 760 428 769 q 421 742 423 752 l 282 328 m 431 911 q 348 944 383 911 q 313 1028 313 978 q 328 1086 313 1060 q 372 1128 344 1112 q 431 1144 399 1144 q 488 1128 462 1144 q 531 1086 515 1112 q 547 1028 547 1060 q 512 944 547 978 q 431 911 478 911 m 431 974 q 468 989 453 974 q 484 1029 484 1003 q 468 1064 484 1050 q 431 1078 453 1078 q 392 1064 408 1078 q 376 1029 376 1050 q 392 989 376 1003 q 431 974 408 974 m 402 1204 q 385 1209 393 1204 q 377 1225 377 1215 q 399 1269 377 1240 l 458 1345 q 490 1378 476 1369 q 532 1387 504 1387 l 552 1387 q 577 1380 567 1387 q 586 1362 586 1373 q 567 1328 586 1346 l 483 1243 q 442 1214 462 1224 q 402 1204 423 1204 z "},"Ã":{"ha":860,"x_min":73,"x_max":785,"o":"m 126 -13 q 88 0 103 -13 q 73 38 73 13 q 74 53 73 45 q 79 70 76 61 l 328 794 q 360 845 338 826 q 412 865 383 865 l 446 865 q 498 845 476 865 q 531 794 521 826 l 779 70 q 784 53 783 61 q 785 38 785 45 q 770 0 785 13 q 731 -13 755 -13 q 688 3 702 -13 q 665 52 674 19 l 600 238 l 258 238 l 193 52 q 170 3 184 19 q 126 -13 156 -13 m 282 328 l 576 328 l 438 742 q 433 760 435 752 q 429 776 431 769 q 425 760 428 769 q 421 742 423 752 l 282 328 m 504 933 q 453 944 472 933 q 417 970 434 956 q 390 990 403 983 q 357 997 378 997 q 319 990 336 997 q 290 973 303 983 q 273 961 281 966 q 258 957 264 957 q 240 966 247 957 q 232 988 232 975 q 259 1035 232 1010 q 301 1061 276 1049 q 356 1074 326 1074 q 406 1063 388 1074 q 440 1038 424 1053 q 467 1016 454 1024 q 502 1008 480 1008 q 538 1015 523 1008 q 564 1032 553 1022 q 582 1045 573 1040 q 601 1051 592 1051 q 622 1043 613 1051 q 631 1020 631 1035 q 619 992 631 1003 q 575 954 605 975 q 504 933 544 933 z "},"Æ":{"ha":860,"x_min":34,"x_max":814,"o":"m 508 -1 q 433 68 433 -1 l 433 216 l 219 216 l 149 46 q 125 1 140 16 q 81 -13 110 -13 q 58 -10 69 -13 q 40 2 47 -6 q 34 25 34 10 q 36 43 34 33 q 43 66 38 53 l 338 801 q 365 845 348 831 q 406 860 381 860 l 748 860 q 799 849 784 860 q 814 819 814 839 q 799 789 814 800 q 748 778 784 778 l 540 778 l 540 463 l 726 463 q 764 451 751 463 q 777 422 777 440 q 764 393 777 406 q 726 381 751 381 l 540 381 l 540 81 l 748 81 q 799 70 784 81 q 814 40 814 60 q 799 10 814 20 q 748 -1 784 -1 l 508 -1 m 246 304 l 433 304 l 433 772 q 431 770 431 771 q 428 767 430 769 l 246 304 z "},"Ǽ":{"ha":860,"x_min":34,"x_max":814,"o":"m 508 -1 q 433 68 433 -1 l 433 216 l 219 216 l 149 46 q 125 1 140 16 q 81 -13 110 -13 q 58 -10 69 -13 q 40 2 47 -6 q 34 25 34 10 q 36 43 34 33 q 43 66 38 53 l 338 801 q 365 845 348 831 q 406 860 381 860 l 748 860 q 799 849 784 860 q 814 819 814 839 q 799 789 814 800 q 748 778 784 778 l 540 778 l 540 463 l 726 463 q 764 451 751 463 q 777 422 777 440 q 764 393 777 406 q 726 381 751 381 l 540 381 l 540 81 l 748 81 q 799 70 784 81 q 814 40 814 60 q 799 10 814 20 q 748 -1 784 -1 l 508 -1 m 246 304 l 433 304 l 433 772 q 431 770 431 771 q 428 767 430 769 l 246 304 m 403 919 q 386 925 394 919 q 378 940 378 930 q 400 985 378 955 l 458 1060 q 491 1093 476 1085 q 533 1102 505 1102 l 553 1102 q 577 1095 568 1102 q 587 1077 587 1088 q 568 1043 587 1061 l 484 958 q 443 929 463 939 q 403 919 424 919 z "},"B":{"ha":860,"x_min":144,"x_max":758,"o":"m 572 449 q 615 440 585 449 q 678 409 645 431 q 735 345 712 386 q 758 239 758 303 q 723 106 758 159 q 622 26 688 53 q 458 0 555 0 l 219 0 q 144 75 144 0 l 144 785 q 219 860 144 860 l 424 860 q 576 843 506 860 q 688 781 645 826 q 730 649 730 736 q 710 550 730 589 q 663 489 690 511 q 609 458 635 467 q 572 449 584 449 m 262 769 l 262 484 l 445 484 q 534 502 497 484 q 592 552 572 519 q 613 633 613 585 q 588 718 613 689 q 518 759 562 748 q 421 769 475 769 l 262 769 m 425 90 q 587 130 535 90 q 639 249 639 169 q 584 366 639 330 q 451 401 529 401 l 262 401 l 262 90 l 425 90 z "},"C":{"ha":860,"x_min":99,"x_max":774,"o":"m 478 -14 q 340 11 407 -14 q 218 90 272 36 q 131 226 163 143 q 99 427 99 310 q 131 628 99 544 q 218 765 163 712 q 340 843 272 817 q 478 868 407 868 q 602 847 547 868 q 695 792 656 826 q 754 719 733 758 q 774 647 774 681 q 759 610 774 624 q 724 597 744 597 q 689 608 699 597 q 671 639 678 619 q 641 699 663 667 q 579 754 619 731 q 479 777 539 777 q 355 739 414 777 q 257 624 295 701 q 219 427 219 547 q 257 230 219 308 q 355 115 295 152 q 479 77 414 77 q 579 100 539 77 q 641 155 619 123 q 671 215 663 188 q 689 247 678 235 q 724 258 699 258 q 759 244 744 258 q 774 206 774 230 q 754 134 774 172 q 695 62 733 96 q 601 7 656 28 q 478 -14 547 -14 z "},"Ć":{"ha":860,"x_min":99,"x_max":774,"o":"m 478 -14 q 340 11 407 -14 q 218 90 272 36 q 131 226 163 143 q 99 427 99 310 q 131 628 99 544 q 218 765 163 712 q 340 843 272 817 q 478 868 407 868 q 602 847 547 868 q 695 792 656 826 q 754 719 733 758 q 774 647 774 681 q 759 610 774 624 q 724 597 744 597 q 689 608 699 597 q 671 639 678 619 q 641 699 663 667 q 579 754 619 731 q 479 777 539 777 q 355 739 414 777 q 257 624 295 701 q 219 427 219 547 q 257 230 219 308 q 355 115 295 152 q 479 77 414 77 q 579 100 539 77 q 641 155 619 123 q 671 215 663 188 q 689 247 678 235 q 724 258 699 258 q 759 244 744 258 q 774 206 774 230 q 754 134 774 172 q 695 62 733 96 q 601 7 656 28 q 478 -14 547 -14 m 435 919 q 418 925 426 919 q 410 940 410 930 q 432 985 410 955 l 490 1060 q 523 1093 508 1085 q 565 1102 537 1102 l 585 1102 q 609 1095 600 1102 q 619 1077 619 1088 q 600 1043 619 1061 l 516 958 q 475 929 494 939 q 435 919 456 919 z "},"Č":{"ha":860,"x_min":99,"x_max":774,"o":"m 478 -14 q 340 11 407 -14 q 218 90 272 36 q 131 226 163 143 q 99 427 99 310 q 131 628 99 544 q 218 765 163 712 q 340 843 272 817 q 478 868 407 868 q 602 847 547 868 q 695 792 656 826 q 754 719 733 758 q 774 647 774 681 q 759 610 774 624 q 724 597 744 597 q 689 608 699 597 q 671 639 678 619 q 641 699 663 667 q 579 754 619 731 q 479 777 539 777 q 355 739 414 777 q 257 624 295 701 q 219 427 219 547 q 257 230 219 308 q 355 115 295 152 q 479 77 414 77 q 579 100 539 77 q 641 155 619 123 q 671 215 663 188 q 689 247 678 235 q 724 258 699 258 q 759 244 744 258 q 774 206 774 230 q 754 134 774 172 q 695 62 733 96 q 601 7 656 28 q 478 -14 547 -14 m 606 1021 l 541 955 q 504 923 521 933 q 463 912 487 912 q 421 923 438 912 q 384 955 403 933 l 319 1021 q 303 1053 303 1037 q 313 1077 303 1067 q 339 1086 323 1086 q 365 1078 354 1086 q 387 1056 375 1070 l 463 975 l 538 1056 q 560 1078 550 1069 q 586 1086 571 1086 q 613 1077 603 1086 q 623 1054 623 1068 q 619 1039 623 1047 q 606 1021 615 1030 z "},"Ç":{"ha":860,"x_min":99,"x_max":774,"o":"m 452 -302 q 417 -300 434 -302 q 387 -294 401 -299 q 347 -259 347 -283 q 357 -237 347 -244 q 381 -229 366 -229 q 408 -233 392 -229 q 432 -236 417 -235 q 460 -237 446 -237 q 542 -220 508 -237 q 575 -172 575 -203 q 563 -143 575 -151 q 531 -134 550 -134 q 495 -137 510 -134 q 467 -144 480 -140 q 447 -151 457 -149 q 426 -153 437 -153 q 402 -145 410 -153 q 394 -124 394 -137 q 395 -111 394 -118 q 400 -97 397 -103 l 429 -10 q 305 26 364 -3 q 199 109 245 56 q 125 241 152 163 q 99 427 99 320 q 131 628 99 544 q 218 765 163 712 q 340 843 272 817 q 478 868 407 868 q 602 847 547 868 q 695 792 656 826 q 754 719 733 758 q 774 647 774 681 q 759 610 774 624 q 724 597 744 597 q 689 608 699 597 q 671 639 678 619 q 641 699 663 667 q 579 754 619 731 q 479 777 539 777 q 355 739 414 777 q 257 624 295 701 q 219 427 219 547 q 257 230 219 308 q 355 115 295 152 q 479 77 414 77 q 579 100 539 77 q 641 155 619 123 q 671 215 663 188 q 689 247 678 235 q 724 258 699 258 q 759 244 744 258 q 774 206 774 230 q 756 137 774 174 q 701 68 737 101 q 615 13 665 35 q 500 -13 565 -9 l 472 -102 q 513 -84 490 -91 q 561 -77 536 -77 q 611 -86 588 -77 q 651 -114 635 -95 q 667 -164 667 -133 q 637 -241 667 -210 q 558 -287 607 -272 q 452 -302 510 -302 z "},"Ĉ":{"ha":860,"x_min":99,"x_max":774,"o":"m 478 -14 q 340 11 407 -14 q 218 90 272 36 q 131 226 163 143 q 99 427 99 310 q 131 628 99 544 q 218 765 163 712 q 340 843 272 817 q 478 868 407 868 q 602 847 547 868 q 695 792 656 826 q 754 719 733 758 q 774 647 774 681 q 759 610 774 624 q 724 597 744 597 q 689 608 699 597 q 671 639 678 619 q 641 699 663 667 q 579 754 619 731 q 479 777 539 777 q 355 739 414 777 q 257 624 295 701 q 219 427 219 547 q 257 230 219 308 q 355 115 295 152 q 479 77 414 77 q 579 100 539 77 q 641 155 619 123 q 671 215 663 188 q 689 247 678 235 q 724 258 699 258 q 759 244 744 258 q 774 206 774 230 q 754 134 774 172 q 695 62 733 96 q 601 7 656 28 q 478 -14 547 -14 m 607 978 q 624 946 624 961 q 613 923 624 931 q 586 914 603 914 q 561 922 572 914 q 538 943 551 930 l 463 1024 l 388 943 q 365 921 375 928 q 340 914 355 914 q 314 923 324 914 q 303 947 303 932 q 307 962 303 953 q 319 978 311 970 l 384 1044 q 421 1076 403 1066 q 463 1087 439 1087 q 504 1077 487 1087 q 542 1044 522 1067 l 607 978 z "},"Ċ":{"ha":860,"x_min":99,"x_max":774,"o":"m 478 -14 q 340 11 407 -14 q 218 90 272 36 q 131 226 163 143 q 99 427 99 310 q 131 628 99 544 q 218 765 163 712 q 340 843 272 817 q 478 868 407 868 q 602 847 547 868 q 695 792 656 826 q 754 719 733 758 q 774 647 774 681 q 759 610 774 624 q 724 597 744 597 q 689 608 699 597 q 671 639 678 619 q 641 699 663 667 q 579 754 619 731 q 479 777 539 777 q 355 739 414 777 q 257 624 295 701 q 219 427 219 547 q 257 230 219 308 q 355 115 295 152 q 479 77 414 77 q 579 100 539 77 q 641 155 619 123 q 671 215 663 188 q 689 247 678 235 q 724 258 699 258 q 759 244 744 258 q 774 206 774 230 q 754 134 774 172 q 695 62 733 96 q 601 7 656 28 q 478 -14 547 -14 m 463 947 q 405 971 428 947 q 381 1029 381 995 q 405 1087 381 1063 q 463 1111 428 1111 q 520 1087 497 1111 q 544 1029 544 1063 q 520 971 544 995 q 463 947 497 947 z "},"D":{"ha":860,"x_min":116,"x_max":768,"o":"m 368 860 q 465 850 412 860 q 572 813 519 840 q 669 739 625 787 q 741 615 714 690 q 768 430 768 539 q 741 245 768 321 q 669 121 714 169 q 572 47 625 73 q 465 10 519 20 q 368 0 412 0 l 191 0 q 116 75 116 0 l 116 785 q 191 860 116 860 l 368 860 m 365 90 q 468 108 418 90 q 560 167 519 126 q 625 272 601 207 q 649 430 649 337 q 625 588 649 523 q 560 693 601 653 q 468 751 519 733 q 365 769 418 769 l 233 769 l 233 90 l 365 90 z "},"Ð":{"ha":860,"x_min":7,"x_max":768,"o":"m 82 390 q 7 430 7 390 q 82 471 7 471 l 365 471 q 440 430 440 471 q 365 390 440 390 l 82 390 m 368 860 q 465 850 412 860 q 572 813 519 840 q 669 739 625 787 q 741 615 714 690 q 768 430 768 539 q 741 245 768 321 q 669 121 714 169 q 572 47 625 73 q 465 10 519 20 q 368 0 412 0 l 191 0 q 116 75 116 0 l 116 785 q 191 860 116 860 l 368 860 m 365 90 q 468 108 418 90 q 560 167 519 126 q 625 272 601 207 q 649 430 649 337 q 625 588 649 523 q 560 693 601 653 q 468 751 519 733 q 365 769 418 769 l 233 769 l 233 90 l 365 90 z "},"Ď":{"ha":860,"x_min":116,"x_max":768,"o":"m 368 860 q 465 850 412 860 q 572 813 519 840 q 669 739 625 787 q 741 615 714 690 q 768 430 768 539 q 741 245 768 321 q 669 121 714 169 q 572 47 625 73 q 465 10 519 20 q 368 0 412 0 l 191 0 q 116 75 116 0 l 116 785 q 191 860 116 860 l 368 860 m 365 90 q 468 108 418 90 q 560 167 519 126 q 625 272 601 207 q 649 430 649 337 q 625 588 649 523 q 560 693 601 653 q 468 751 519 733 q 365 769 418 769 l 233 769 l 233 90 l 365 90 m 542 1021 l 477 955 q 440 923 457 933 q 399 912 423 912 q 357 923 374 912 q 320 955 340 933 l 255 1021 q 240 1053 240 1037 q 249 1077 240 1067 q 275 1086 259 1086 q 301 1078 290 1086 q 323 1056 311 1070 l 399 975 l 474 1056 q 497 1078 486 1069 q 522 1086 507 1086 q 549 1077 539 1086 q 559 1054 559 1068 q 555 1039 559 1047 q 542 1021 551 1030 z "},"Đ":{"ha":860,"x_min":7,"x_max":768,"o":"m 82 390 q 7 430 7 390 q 82 471 7 471 l 365 471 q 440 430 440 471 q 365 390 440 390 l 82 390 m 368 860 q 465 850 412 860 q 572 813 519 840 q 669 739 625 787 q 741 615 714 690 q 768 430 768 539 q 741 245 768 321 q 669 121 714 169 q 572 47 625 73 q 465 10 519 20 q 368 0 412 0 l 191 0 q 116 75 116 0 l 116 785 q 191 860 116 860 l 368 860 m 365 90 q 468 108 418 90 q 560 167 519 126 q 625 272 601 207 q 649 430 649 337 q 625 588 649 523 q 560 693 601 653 q 468 751 519 733 q 365 769 418 769 l 233 769 l 233 90 l 365 90 z "},"E":{"ha":860,"x_min":163,"x_max":722,"o":"m 722 815 q 649 769 722 769 l 280 769 l 280 478 l 586 478 q 638 466 622 478 q 654 433 654 455 q 638 400 654 412 q 586 388 622 388 l 280 388 l 280 90 l 649 90 q 722 44 722 90 q 649 0 722 0 l 238 0 q 163 75 163 0 l 163 785 q 238 860 163 860 l 649 860 q 722 815 722 860 z "},"É":{"ha":860,"x_min":163,"x_max":722,"o":"m 722 815 q 649 769 722 769 l 280 769 l 280 478 l 586 478 q 638 466 622 478 q 654 433 654 455 q 638 400 654 412 q 586 388 622 388 l 280 388 l 280 90 l 649 90 q 722 44 722 90 q 649 0 722 0 l 238 0 q 163 75 163 0 l 163 785 q 238 860 163 860 l 649 860 q 722 815 722 860 m 418 919 q 401 925 409 919 q 393 940 393 930 q 415 985 393 955 l 474 1060 q 506 1093 492 1085 q 548 1102 520 1102 l 568 1102 q 593 1095 583 1102 q 602 1077 602 1088 q 583 1043 602 1061 l 499 958 q 458 929 478 939 q 418 919 439 919 z "},"Ĕ":{"ha":860,"x_min":163,"x_max":722,"o":"m 722 815 q 649 769 722 769 l 280 769 l 280 478 l 586 478 q 638 466 622 478 q 654 433 654 455 q 638 400 654 412 q 586 388 622 388 l 280 388 l 280 90 l 649 90 q 722 44 722 90 q 649 0 722 0 l 238 0 q 163 75 163 0 l 163 785 q 238 860 163 860 l 649 860 q 722 815 722 860 m 562 1098 q 590 1087 580 1098 q 600 1058 600 1076 q 597 1041 600 1051 q 585 1022 593 1031 q 535 952 571 981 q 444 922 500 922 q 356 951 390 922 q 308 1018 322 979 q 295 1038 299 1028 q 291 1058 291 1049 q 301 1087 291 1076 q 328 1098 311 1098 q 359 1086 350 1098 q 373 1055 369 1074 q 393 1009 377 1031 q 445 987 409 987 q 498 1009 482 987 q 517 1055 513 1031 q 531 1086 521 1074 q 562 1098 540 1098 z "},"Ě":{"ha":860,"x_min":163,"x_max":722,"o":"m 722 815 q 649 769 722 769 l 280 769 l 280 478 l 586 478 q 638 466 622 478 q 654 433 654 455 q 638 400 654 412 q 586 388 622 388 l 280 388 l 280 90 l 649 90 q 722 44 722 90 q 649 0 722 0 l 238 0 q 163 75 163 0 l 163 785 q 238 860 163 860 l 649 860 q 722 815 722 860 m 589 1021 l 524 955 q 486 923 503 933 q 445 912 469 912 q 403 923 421 912 q 367 955 386 933 l 301 1021 q 286 1053 286 1037 q 296 1077 286 1067 q 322 1086 306 1086 q 347 1078 337 1086 q 369 1056 358 1070 l 446 975 l 520 1056 q 543 1078 533 1069 q 569 1086 553 1086 q 595 1077 585 1086 q 606 1054 606 1068 q 602 1039 606 1047 q 589 1021 598 1030 z "},"Ê":{"ha":860,"x_min":163,"x_max":722,"o":"m 722 815 q 649 769 722 769 l 280 769 l 280 478 l 586 478 q 638 466 622 478 q 654 433 654 455 q 638 400 654 412 q 586 388 622 388 l 280 388 l 280 90 l 649 90 q 722 44 722 90 q 649 0 722 0 l 238 0 q 163 75 163 0 l 163 785 q 238 860 163 860 l 649 860 q 722 815 722 860 m 590 978 q 606 946 606 961 q 596 923 606 931 q 569 914 585 914 q 544 922 554 914 q 521 943 533 930 l 446 1024 l 370 943 q 348 921 358 928 q 322 914 338 914 q 296 923 306 914 q 286 947 286 932 q 290 962 286 953 q 301 978 294 970 l 367 1044 q 404 1076 386 1066 q 445 1087 422 1087 q 487 1077 469 1087 q 524 1044 504 1067 l 590 978 z "},"Ế":{"ha":860,"x_min":163,"x_max":756,"o":"m 722 815 q 649 769 722 769 l 280 769 l 280 478 l 586 478 q 638 466 622 478 q 654 433 654 455 q 638 400 654 412 q 586 388 622 388 l 280 388 l 280 90 l 649 90 q 722 44 722 90 q 649 0 722 0 l 238 0 q 163 75 163 0 l 163 785 q 238 860 163 860 l 649 860 q 722 815 722 860 m 590 1003 q 606 969 606 985 q 596 947 606 956 q 569 938 585 938 q 544 946 554 938 q 521 968 533 954 l 446 1049 l 370 967 q 348 946 358 953 q 322 938 338 938 q 296 947 306 938 q 286 970 286 956 q 301 1003 286 988 l 367 1069 q 404 1101 386 1091 q 445 1112 422 1112 q 487 1101 469 1112 q 524 1069 504 1091 l 590 1003 m 581 1063 q 566 1067 574 1063 q 558 1083 558 1072 q 578 1127 558 1097 l 635 1203 q 665 1237 651 1229 q 708 1245 680 1245 l 723 1245 q 747 1239 738 1245 q 756 1220 756 1232 q 737 1185 756 1203 l 644 1094 q 611 1070 626 1077 q 581 1063 595 1063 z "},"Ệ":{"ha":860,"x_min":163,"x_max":722,"o":"m 722 815 q 649 769 722 769 l 280 769 l 280 478 l 586 478 q 638 466 622 478 q 654 433 654 455 q 638 400 654 412 q 586 388 622 388 l 280 388 l 280 90 l 649 90 q 722 44 722 90 q 649 0 722 0 l 238 0 q 163 75 163 0 l 163 785 q 238 860 163 860 l 649 860 q 722 815 722 860 m 446 -246 q 388 -222 411 -246 q 364 -163 364 -198 q 388 -106 364 -129 q 446 -82 411 -82 q 503 -106 479 -82 q 527 -163 527 -129 q 503 -223 527 -199 q 446 -246 479 -246 m 590 978 q 606 946 606 961 q 596 923 606 931 q 569 914 585 914 q 544 922 554 914 q 521 943 533 930 l 446 1024 l 370 943 q 348 921 358 928 q 322 914 338 914 q 296 923 306 914 q 286 947 286 932 q 290 962 286 953 q 301 978 294 970 l 367 1044 q 404 1076 386 1066 q 445 1087 422 1087 q 487 1077 469 1087 q 524 1044 504 1067 l 590 978 z "},"Ề":{"ha":860,"x_min":163,"x_max":722,"o":"m 722 815 q 649 769 722 769 l 280 769 l 280 478 l 586 478 q 638 466 622 478 q 654 433 654 455 q 638 400 654 412 q 586 388 622 388 l 280 388 l 280 90 l 649 90 q 722 44 722 90 q 649 0 722 0 l 238 0 q 163 75 163 0 l 163 785 q 238 860 163 860 l 649 860 q 722 815 722 860 m 590 1003 q 606 969 606 985 q 596 947 606 956 q 569 938 585 938 q 544 946 554 938 q 521 968 533 954 l 446 1049 l 370 967 q 348 946 358 953 q 322 938 338 938 q 296 947 306 938 q 286 970 286 956 q 301 1003 286 988 l 367 1069 q 404 1101 386 1091 q 445 1112 422 1112 q 487 1101 469 1112 q 524 1069 504 1091 l 590 1003 m 647 1063 q 618 1070 633 1063 q 584 1094 602 1076 l 492 1185 q 472 1220 472 1205 q 482 1239 472 1232 q 505 1245 491 1245 l 521 1245 q 564 1237 549 1245 q 594 1203 578 1229 l 651 1127 q 671 1083 671 1097 q 663 1067 671 1072 q 647 1063 655 1063 z "},"Ể":{"ha":860,"x_min":163,"x_max":767,"o":"m 722 815 q 649 769 722 769 l 280 769 l 280 478 l 586 478 q 638 466 622 478 q 654 433 654 455 q 638 400 654 412 q 586 388 622 388 l 280 388 l 280 90 l 649 90 q 722 44 722 90 q 649 0 722 0 l 238 0 q 163 75 163 0 l 163 785 q 238 860 163 860 l 649 860 q 722 815 722 860 m 590 1003 q 606 969 606 985 q 596 947 606 956 q 569 938 585 938 q 544 946 554 938 q 521 968 533 954 l 446 1049 l 370 967 q 348 946 358 953 q 322 938 338 938 q 296 947 306 938 q 286 970 286 956 q 301 1003 286 988 l 367 1069 q 404 1101 386 1091 q 445 1112 422 1112 q 487 1101 469 1112 q 524 1069 504 1091 l 590 1003 m 596 1076 q 558 1104 558 1076 q 567 1126 558 1118 q 596 1134 577 1134 q 664 1143 631 1134 q 697 1178 697 1152 q 667 1209 697 1202 q 605 1217 638 1217 q 566 1214 583 1217 q 536 1208 549 1212 q 520 1206 528 1206 q 506 1205 511 1205 q 490 1210 497 1205 q 482 1228 482 1215 q 517 1264 482 1252 q 603 1276 552 1276 q 684 1267 647 1276 q 744 1238 721 1259 q 767 1177 767 1217 q 739 1115 767 1137 q 671 1084 711 1092 q 596 1076 631 1076 z "},"Ễ":{"ha":860,"x_min":163,"x_max":722,"o":"m 722 815 q 649 769 722 769 l 280 769 l 280 478 l 586 478 q 638 466 622 478 q 654 433 654 455 q 638 400 654 412 q 586 388 622 388 l 280 388 l 280 90 l 649 90 q 722 44 722 90 q 649 0 722 0 l 238 0 q 163 75 163 0 l 163 785 q 238 860 163 860 l 649 860 q 722 815 722 860 m 590 978 q 606 946 606 961 q 596 923 606 931 q 569 914 585 914 q 544 922 554 914 q 521 943 533 930 l 446 1024 l 370 943 q 348 921 358 928 q 322 914 338 914 q 296 923 306 914 q 286 947 286 932 q 290 962 286 953 q 301 978 294 970 l 367 1044 q 404 1076 386 1066 q 445 1087 422 1087 q 487 1077 469 1087 q 524 1044 504 1067 l 590 978 m 519 1156 q 468 1167 487 1156 q 433 1192 449 1178 q 406 1213 418 1206 q 372 1219 393 1219 q 335 1212 351 1219 q 306 1195 318 1205 q 288 1184 297 1188 q 273 1179 279 1179 q 255 1188 263 1179 q 247 1210 247 1197 q 274 1257 247 1233 q 317 1284 292 1272 q 371 1296 342 1296 q 422 1285 403 1296 q 456 1260 440 1275 q 482 1238 469 1247 q 517 1230 495 1230 q 553 1237 538 1230 q 579 1254 568 1244 q 598 1268 588 1263 q 617 1273 607 1273 q 637 1265 628 1273 q 646 1242 646 1258 q 635 1214 646 1226 q 590 1176 620 1197 q 519 1156 560 1156 z "},"Ȅ":{"ha":860,"x_min":163,"x_max":722,"o":"m 722 815 q 649 769 722 769 l 280 769 l 280 478 l 586 478 q 638 466 622 478 q 654 433 654 455 q 638 400 654 412 q 586 388 622 388 l 280 388 l 280 90 l 649 90 q 722 44 722 90 q 649 0 722 0 l 238 0 q 163 75 163 0 l 163 785 q 238 860 163 860 l 649 860 q 722 815 722 860 m 360 914 q 324 923 342 914 q 288 952 307 933 l 206 1037 q 193 1055 197 1047 q 189 1072 189 1064 q 198 1089 189 1083 q 219 1096 206 1096 l 238 1096 q 276 1087 263 1096 q 304 1055 289 1078 l 361 978 q 383 934 383 948 q 376 919 383 924 q 360 914 369 914 m 565 914 q 529 923 547 914 q 492 952 512 933 l 411 1037 q 394 1072 394 1055 q 403 1089 394 1083 q 424 1096 412 1096 l 442 1096 q 481 1087 468 1096 q 509 1055 494 1078 l 567 978 q 582 953 577 964 q 587 934 587 942 q 580 919 587 924 q 565 914 574 914 z "},"Ë":{"ha":860,"x_min":163,"x_max":722,"o":"m 722 815 q 649 769 722 769 l 280 769 l 280 478 l 586 478 q 638 466 622 478 q 654 433 654 455 q 638 400 654 412 q 586 388 622 388 l 280 388 l 280 90 l 649 90 q 722 44 722 90 q 649 0 722 0 l 238 0 q 163 75 163 0 l 163 785 q 238 860 163 860 l 649 860 q 722 815 722 860 m 310 942 q 252 966 276 942 q 228 1024 228 990 q 252 1083 228 1059 q 310 1107 276 1107 q 367 1083 344 1107 q 391 1024 391 1059 q 367 966 391 990 q 310 942 344 942 m 582 942 q 524 966 547 942 q 500 1024 500 990 q 524 1083 500 1059 q 582 1107 547 1107 q 640 1083 616 1107 q 664 1024 664 1059 q 640 966 664 990 q 582 942 616 942 z "},"Ė":{"ha":860,"x_min":163,"x_max":722,"o":"m 722 815 q 649 769 722 769 l 280 769 l 280 478 l 586 478 q 638 466 622 478 q 654 433 654 455 q 638 400 654 412 q 586 388 622 388 l 280 388 l 280 90 l 649 90 q 722 44 722 90 q 649 0 722 0 l 238 0 q 163 75 163 0 l 163 785 q 238 860 163 860 l 649 860 q 722 815 722 860 m 445 947 q 388 971 411 947 q 364 1029 364 995 q 388 1087 364 1063 q 445 1111 411 1111 q 503 1087 479 1111 q 526 1029 526 1063 q 503 971 526 995 q 445 947 479 947 z "},"Ẹ":{"ha":860,"x_min":163,"x_max":722,"o":"m 722 815 q 649 769 722 769 l 280 769 l 280 478 l 586 478 q 638 466 622 478 q 654 433 654 455 q 638 400 654 412 q 586 388 622 388 l 280 388 l 280 90 l 649 90 q 722 44 722 90 q 649 0 722 0 l 238 0 q 163 75 163 0 l 163 785 q 238 860 163 860 l 649 860 q 722 815 722 860 m 446 -246 q 388 -222 411 -246 q 364 -163 364 -198 q 388 -106 364 -129 q 446 -82 411 -82 q 503 -106 479 -82 q 527 -163 527 -129 q 503 -223 527 -199 q 446 -246 479 -246 z "},"È":{"ha":860,"x_min":163,"x_max":722,"o":"m 722 815 q 649 769 722 769 l 280 769 l 280 478 l 586 478 q 638 466 622 478 q 654 433 654 455 q 638 400 654 412 q 586 388 622 388 l 280 388 l 280 90 l 649 90 q 722 44 722 90 q 649 0 722 0 l 238 0 q 163 75 163 0 l 163 785 q 238 860 163 860 l 649 860 q 722 815 722 860 m 481 916 q 441 925 461 916 q 400 954 422 935 l 316 1039 q 297 1073 297 1057 q 307 1091 297 1085 q 331 1098 317 1098 l 351 1098 q 394 1089 379 1098 q 426 1056 408 1081 l 484 980 q 506 936 506 951 q 499 921 506 926 q 481 916 491 916 z "},"Ẻ":{"ha":860,"x_min":163,"x_max":722,"o":"m 722 815 q 649 769 722 769 l 280 769 l 280 478 l 586 478 q 638 466 622 478 q 654 433 654 455 q 638 400 654 412 q 586 388 622 388 l 280 388 l 280 90 l 649 90 q 722 44 722 90 q 649 0 722 0 l 238 0 q 163 75 163 0 l 163 785 q 238 860 163 860 l 649 860 q 722 815 722 860 m 415 918 q 387 927 397 918 q 377 949 377 935 q 387 972 377 963 q 415 981 397 981 q 482 989 451 981 q 514 1024 514 997 q 484 1054 514 1048 q 422 1060 454 1060 q 383 1058 400 1060 q 352 1053 367 1057 q 338 1051 344 1052 q 327 1051 332 1051 q 308 1057 315 1051 q 301 1074 301 1063 q 336 1112 301 1099 q 422 1124 372 1124 q 504 1116 466 1124 q 566 1085 542 1107 q 590 1022 590 1063 q 560 959 590 982 q 491 927 531 937 q 415 918 451 918 z "},"Ȇ":{"ha":860,"x_min":163,"x_max":722,"o":"m 722 815 q 649 769 722 769 l 280 769 l 280 478 l 586 478 q 638 466 622 478 q 654 433 654 455 q 638 400 654 412 q 586 388 622 388 l 280 388 l 280 90 l 649 90 q 722 44 722 90 q 649 0 722 0 l 238 0 q 163 75 163 0 l 163 785 q 238 860 163 860 l 649 860 q 722 815 722 860 m 562 920 q 531 932 540 920 q 517 963 521 944 q 498 1009 513 988 q 445 1031 482 1031 q 393 1009 409 1031 q 373 963 377 988 q 359 932 369 944 q 328 920 350 920 q 301 931 311 920 q 291 960 291 942 q 295 980 291 969 q 308 1000 299 990 q 356 1067 322 1039 q 444 1096 390 1096 q 535 1066 500 1096 q 585 996 571 1037 q 597 977 593 987 q 600 959 600 968 q 590 931 600 941 q 562 920 580 920 z "},"Ē":{"ha":860,"x_min":163,"x_max":722,"o":"m 722 815 q 649 769 722 769 l 280 769 l 280 478 l 586 478 q 638 466 622 478 q 654 433 654 455 q 638 400 654 412 q 586 388 622 388 l 280 388 l 280 90 l 649 90 q 722 44 722 90 q 649 0 722 0 l 238 0 q 163 75 163 0 l 163 785 q 238 860 163 860 l 649 860 q 722 815 722 860 m 201 986 q 218 1014 201 1004 q 269 1024 235 1024 l 621 1024 q 673 1014 656 1024 q 689 986 689 1004 q 673 958 689 968 q 621 948 656 948 l 269 948 q 218 958 235 948 q 201 986 201 968 z "},"Ę":{"ha":860,"x_min":163,"x_max":740,"o":"m 722 815 q 649 769 722 769 l 280 769 l 280 478 l 586 478 q 638 466 622 478 q 654 433 654 455 q 638 400 654 412 q 586 388 622 388 l 280 388 l 280 90 l 649 90 q 722 44 722 90 q 649 0 722 0 l 238 0 q 163 75 163 0 l 163 785 q 238 860 163 860 l 649 860 q 722 815 722 860 m 630 -316 q 549 -303 587 -316 q 489 -263 512 -291 q 466 -190 466 -235 q 479 -124 466 -157 q 511 -64 492 -91 q 553 -19 531 -36 q 591 0 574 -1 l 645 0 q 609 -39 629 -10 q 575 -102 590 -67 q 560 -171 560 -138 q 582 -224 560 -208 q 634 -240 603 -240 q 656 -238 644 -240 q 676 -235 667 -237 q 691 -232 684 -233 q 704 -231 699 -231 q 731 -241 722 -231 q 740 -265 740 -251 q 706 -305 740 -293 q 630 -316 672 -316 z "},"Ẽ":{"ha":860,"x_min":163,"x_max":722,"o":"m 722 815 q 649 769 722 769 l 280 769 l 280 478 l 586 478 q 638 466 622 478 q 654 433 654 455 q 638 400 654 412 q 586 388 622 388 l 280 388 l 280 90 l 649 90 q 722 44 722 90 q 649 0 722 0 l 238 0 q 163 75 163 0 l 163 785 q 238 860 163 860 l 649 860 q 722 815 722 860 m 519 928 q 468 940 487 928 q 433 965 449 951 q 406 985 418 978 q 372 992 393 992 q 335 985 351 992 q 306 968 318 978 q 288 957 297 961 q 273 952 279 952 q 255 961 263 952 q 247 983 247 970 q 274 1030 247 1006 q 317 1057 292 1044 q 371 1069 342 1069 q 422 1058 403 1069 q 456 1033 440 1048 q 482 1011 469 1019 q 517 1003 495 1003 q 553 1010 538 1003 q 579 1027 568 1017 q 598 1041 588 1035 q 617 1046 607 1046 q 637 1038 628 1046 q 646 1015 646 1031 q 635 987 646 999 q 590 949 620 970 q 519 928 560 928 z "},"Ə":{"ha":860,"x_min":110,"x_max":740,"o":"m 419 -15 q 259 31 329 -15 q 149 167 189 77 q 110 389 110 257 q 181 456 110 456 l 638 456 l 638 382 l 200 382 l 222 404 q 274 157 222 238 q 419 76 326 76 q 519 110 472 76 q 595 220 566 144 q 625 422 625 297 q 597 624 625 547 q 520 737 568 701 q 415 773 472 773 q 324 752 363 773 q 258 703 285 731 q 215 650 231 674 q 189 627 204 636 q 155 617 174 617 q 123 628 135 617 q 112 663 112 639 q 119 692 112 678 q 139 721 126 706 q 199 784 160 751 q 292 840 237 817 q 419 864 347 864 q 576 818 503 864 q 694 676 649 773 q 740 422 740 579 q 713 221 740 304 q 641 86 686 138 q 538 10 595 34 q 419 -15 481 -15 z "},"F":{"ha":860,"x_min":194,"x_max":744,"o":"m 744 815 q 725 782 744 794 q 669 769 706 769 l 311 769 l 311 419 l 617 419 q 683 374 683 419 q 617 329 683 329 l 311 329 l 311 66 q 252 -9 311 -9 q 194 66 194 -9 l 194 785 q 268 860 194 860 l 669 860 q 725 848 706 860 q 744 815 744 837 z "},"G":{"ha":860,"x_min":78,"x_max":776,"o":"m 447 -15 q 312 10 378 -15 q 193 88 246 35 q 109 224 140 140 q 78 427 78 308 q 110 630 78 546 q 198 766 143 713 q 320 843 253 819 q 458 868 388 868 q 596 844 540 868 q 692 781 652 821 q 715 752 708 766 q 722 724 722 738 q 706 689 722 702 q 671 676 690 676 q 641 684 656 676 q 614 706 626 692 q 553 756 590 735 q 458 776 516 776 q 333 740 393 776 q 235 627 273 704 q 197 427 197 550 q 235 225 197 302 q 331 113 272 148 q 453 77 390 77 q 560 105 515 77 q 632 191 606 133 q 660 340 658 249 l 493 340 q 447 351 463 340 q 431 383 431 361 q 447 417 431 406 q 492 427 463 427 l 706 427 q 760 409 743 427 q 776 357 776 391 q 733 148 776 231 q 615 25 690 65 q 447 -15 540 -15 z "},"Ğ":{"ha":860,"x_min":78,"x_max":776,"o":"m 447 -15 q 312 10 378 -15 q 193 88 246 35 q 109 224 140 140 q 78 427 78 308 q 110 630 78 546 q 198 766 143 713 q 320 843 253 819 q 458 868 388 868 q 596 844 540 868 q 692 781 652 821 q 715 752 708 766 q 722 724 722 738 q 706 689 722 702 q 671 676 690 676 q 641 684 656 676 q 614 706 626 692 q 553 756 590 735 q 458 776 516 776 q 333 740 393 776 q 235 627 273 704 q 197 427 197 550 q 235 225 197 302 q 331 113 272 148 q 453 77 390 77 q 560 105 515 77 q 632 191 606 133 q 660 340 658 249 l 493 340 q 447 351 463 340 q 431 383 431 361 q 447 417 431 406 q 492 427 463 427 l 706 427 q 760 409 743 427 q 776 357 776 391 q 733 148 776 231 q 615 25 690 65 q 447 -15 540 -15 m 562 1135 q 590 1124 580 1135 q 600 1096 600 1114 q 597 1078 600 1088 q 585 1059 593 1069 q 535 989 571 1019 q 444 960 500 960 q 356 988 390 960 q 308 1056 322 1016 q 295 1076 299 1065 q 291 1095 291 1086 q 301 1124 291 1113 q 328 1135 311 1135 q 359 1123 350 1135 q 373 1092 369 1111 q 393 1046 377 1068 q 445 1024 409 1024 q 498 1046 482 1024 q 517 1092 513 1068 q 531 1123 521 1110 q 562 1135 540 1135 z "},"Ǧ":{"ha":860,"x_min":78,"x_max":776,"o":"m 447 -15 q 312 10 378 -15 q 193 88 246 35 q 109 224 140 140 q 78 427 78 308 q 110 630 78 546 q 198 766 143 713 q 320 843 253 819 q 458 868 388 868 q 596 844 540 868 q 692 781 652 821 q 715 752 708 766 q 722 724 722 738 q 706 689 722 702 q 671 676 690 676 q 641 684 656 676 q 614 706 626 692 q 553 756 590 735 q 458 776 516 776 q 333 740 393 776 q 235 627 273 704 q 197 427 197 550 q 235 225 197 302 q 331 113 272 148 q 453 77 390 77 q 560 105 515 77 q 632 191 606 133 q 660 340 658 249 l 493 340 q 447 351 463 340 q 431 383 431 361 q 447 417 431 406 q 492 427 463 427 l 706 427 q 760 409 743 427 q 776 357 776 391 q 733 148 776 231 q 615 25 690 65 q 447 -15 540 -15 m 589 1021 l 524 955 q 486 923 503 933 q 445 912 469 912 q 403 923 421 912 q 367 955 386 933 l 301 1021 q 286 1053 286 1037 q 296 1077 286 1067 q 322 1086 306 1086 q 347 1078 337 1086 q 369 1056 358 1070 l 446 975 l 520 1056 q 543 1078 533 1069 q 569 1086 553 1086 q 595 1077 585 1086 q 606 1054 606 1068 q 602 1039 606 1047 q 589 1021 598 1030 z "},"Ĝ":{"ha":860,"x_min":78,"x_max":776,"o":"m 447 -15 q 312 10 378 -15 q 193 88 246 35 q 109 224 140 140 q 78 427 78 308 q 110 630 78 546 q 198 766 143 713 q 320 843 253 819 q 458 868 388 868 q 596 844 540 868 q 692 781 652 821 q 715 752 708 766 q 722 724 722 738 q 706 689 722 702 q 671 676 690 676 q 641 684 656 676 q 614 706 626 692 q 553 756 590 735 q 458 776 516 776 q 333 740 393 776 q 235 627 273 704 q 197 427 197 550 q 235 225 197 302 q 331 113 272 148 q 453 77 390 77 q 560 105 515 77 q 632 191 606 133 q 660 340 658 249 l 493 340 q 447 351 463 340 q 431 383 431 361 q 447 417 431 406 q 492 427 463 427 l 706 427 q 760 409 743 427 q 776 357 776 391 q 733 148 776 231 q 615 25 690 65 q 447 -15 540 -15 m 590 978 q 606 946 606 961 q 596 923 606 931 q 569 914 585 914 q 544 922 554 914 q 521 943 533 930 l 446 1024 l 370 943 q 348 921 358 928 q 322 914 338 914 q 296 923 306 914 q 286 947 286 932 q 290 962 286 953 q 301 978 294 970 l 367 1044 q 404 1076 386 1066 q 445 1087 422 1087 q 487 1077 469 1087 q 524 1044 504 1067 l 590 978 z "},"Ģ":{"ha":860,"x_min":78,"x_max":776,"o":"m 447 -15 q 312 10 378 -15 q 193 88 246 35 q 109 224 140 140 q 78 427 78 308 q 110 630 78 546 q 198 766 143 713 q 320 843 253 819 q 458 868 388 868 q 596 844 540 868 q 692 781 652 821 q 715 752 708 766 q 722 724 722 738 q 706 689 722 702 q 671 676 690 676 q 641 684 656 676 q 614 706 626 692 q 553 756 590 735 q 458 776 516 776 q 333 740 393 776 q 235 627 273 704 q 197 427 197 550 q 235 225 197 302 q 331 113 272 148 q 453 77 390 77 q 560 105 515 77 q 632 191 606 133 q 660 340 658 249 l 493 340 q 447 351 463 340 q 431 383 431 361 q 447 417 431 406 q 492 427 463 427 l 706 427 q 760 409 743 427 q 776 357 776 391 q 733 148 776 231 q 615 25 690 65 q 447 -15 540 -15 m 456 -74 q 501 -92 482 -74 q 521 -140 521 -110 q 508 -211 521 -168 q 453 -290 494 -254 q 435 -303 443 -299 q 419 -308 426 -308 q 411 -304 414 -308 q 408 -297 408 -300 q 414 -283 408 -291 q 432 -265 420 -274 q 455 -237 446 -253 q 467 -205 463 -222 q 461 -206 465 -206 q 456 -206 458 -206 q 409 -187 428 -206 q 390 -140 390 -168 q 409 -94 390 -113 q 456 -74 428 -74 z "},"Ġ":{"ha":860,"x_min":78,"x_max":776,"o":"m 447 -15 q 312 10 378 -15 q 193 88 246 35 q 109 224 140 140 q 78 427 78 308 q 110 630 78 546 q 198 766 143 713 q 320 843 253 819 q 458 868 388 868 q 596 844 540 868 q 692 781 652 821 q 715 752 708 766 q 722 724 722 738 q 706 689 722 702 q 671 676 690 676 q 641 684 656 676 q 614 706 626 692 q 553 756 590 735 q 458 776 516 776 q 333 740 393 776 q 235 627 273 704 q 197 427 197 550 q 235 225 197 302 q 331 113 272 148 q 453 77 390 77 q 560 105 515 77 q 632 191 606 133 q 660 340 658 249 l 493 340 q 447 351 463 340 q 431 383 431 361 q 447 417 431 406 q 492 427 463 427 l 706 427 q 760 409 743 427 q 776 357 776 391 q 733 148 776 231 q 615 25 690 65 q 447 -15 540 -15 m 446 977 q 388 1001 412 977 q 364 1059 364 1025 q 388 1118 364 1094 q 446 1142 412 1142 q 503 1118 480 1142 q 527 1059 527 1094 q 503 1001 527 1025 q 446 977 480 977 z "},"H":{"ha":860,"x_min":115,"x_max":743,"o":"m 626 791 q 684 867 626 867 q 743 791 743 867 l 743 66 q 684 -9 743 -9 q 626 66 626 -9 l 626 398 l 232 398 l 232 66 q 174 -9 232 -9 q 115 66 115 -9 l 115 791 q 130 848 115 828 q 174 867 145 867 q 232 791 232 867 l 232 488 l 626 488 l 626 791 z "},"Ħ":{"ha":860,"x_min":55,"x_max":799,"o":"m 55 688 q 71 718 55 707 q 124 728 88 728 l 730 728 q 783 718 767 728 q 799 688 799 707 q 783 658 799 669 q 730 648 767 648 l 124 648 q 71 658 88 648 q 55 688 55 668 m 626 791 q 684 867 626 867 q 743 791 743 867 l 743 66 q 684 -9 743 -9 q 626 66 626 -9 l 626 398 l 232 398 l 232 66 q 174 -9 232 -9 q 115 66 115 -9 l 115 791 q 130 848 115 828 q 174 867 145 867 q 232 791 232 867 l 232 488 l 626 488 l 626 791 z "},"Ĥ":{"ha":860,"x_min":115,"x_max":743,"o":"m 626 791 q 684 867 626 867 q 743 791 743 867 l 743 66 q 684 -9 743 -9 q 626 66 626 -9 l 626 398 l 232 398 l 232 66 q 174 -9 232 -9 q 115 66 115 -9 l 115 791 q 130 848 115 828 q 174 867 145 867 q 232 791 232 867 l 232 488 l 626 488 l 626 791 m 571 978 q 588 946 588 961 q 577 923 588 931 q 550 914 567 914 q 525 922 535 914 q 502 943 515 930 l 427 1024 l 351 943 q 329 921 339 928 q 303 914 319 914 q 277 923 288 914 q 267 947 267 932 q 271 962 267 953 q 283 978 275 970 l 348 1044 q 385 1076 367 1066 q 426 1087 403 1087 q 468 1077 451 1087 q 506 1044 485 1067 l 571 978 z "},"I":{"ha":860,"x_min":141,"x_max":709,"o":"m 209 0 q 158 12 174 0 q 141 44 141 24 q 158 78 141 67 q 209 90 174 90 l 371 90 l 371 769 l 209 769 q 158 782 174 769 q 141 815 141 794 q 158 848 141 837 q 209 860 174 860 l 641 860 q 692 848 676 860 q 709 815 709 837 q 692 782 709 794 q 641 769 676 769 l 484 769 l 484 90 l 641 90 q 692 78 676 90 q 709 44 709 67 q 692 12 709 24 q 641 0 676 0 l 209 0 z "},"Í":{"ha":860,"x_min":141,"x_max":709,"o":"m 209 0 q 158 12 174 0 q 141 44 141 24 q 158 78 141 67 q 209 90 174 90 l 371 90 l 371 769 l 209 769 q 158 782 174 769 q 141 815 141 794 q 158 848 141 837 q 209 860 174 860 l 641 860 q 692 848 676 860 q 709 815 709 837 q 692 782 709 794 q 641 769 676 769 l 484 769 l 484 90 l 641 90 q 692 78 676 90 q 709 44 709 67 q 692 12 709 24 q 641 0 676 0 l 209 0 m 400 919 q 383 925 391 919 q 375 940 375 930 q 397 985 375 955 l 456 1060 q 488 1093 474 1085 q 530 1102 502 1102 l 550 1102 q 575 1095 565 1102 q 584 1077 584 1088 q 565 1043 584 1061 l 481 958 q 440 929 460 939 q 400 919 421 919 z "},"Ĭ":{"ha":860,"x_min":141,"x_max":709,"o":"m 209 0 q 158 12 174 0 q 141 44 141 24 q 158 78 141 67 q 209 90 174 90 l 371 90 l 371 769 l 209 769 q 158 782 174 769 q 141 815 141 794 q 158 848 141 837 q 209 860 174 860 l 641 860 q 692 848 676 860 q 709 815 709 837 q 692 782 709 794 q 641 769 676 769 l 484 769 l 484 90 l 641 90 q 692 78 676 90 q 709 44 709 67 q 692 12 709 24 q 641 0 676 0 l 209 0 m 544 1098 q 572 1087 562 1098 q 582 1058 582 1076 q 578 1041 582 1051 q 567 1022 575 1031 q 517 952 553 981 q 426 922 482 922 q 338 951 372 922 q 290 1018 304 979 q 277 1038 281 1028 q 273 1058 273 1049 q 283 1087 273 1076 q 310 1098 293 1098 q 341 1086 332 1098 q 355 1055 351 1074 q 375 1009 359 1031 q 427 987 391 987 q 480 1009 464 987 q 499 1055 495 1031 q 513 1086 503 1074 q 544 1098 522 1098 z "},"Ǐ":{"ha":860,"x_min":141,"x_max":709,"o":"m 209 0 q 158 12 174 0 q 141 44 141 24 q 158 78 141 67 q 209 90 174 90 l 371 90 l 371 769 l 209 769 q 158 782 174 769 q 141 815 141 794 q 158 848 141 837 q 209 860 174 860 l 641 860 q 692 848 676 860 q 709 815 709 837 q 692 782 709 794 q 641 769 676 769 l 484 769 l 484 90 l 641 90 q 692 78 676 90 q 709 44 709 67 q 692 12 709 24 q 641 0 676 0 l 209 0 m 571 1021 l 506 955 q 468 923 485 933 q 427 912 451 912 q 385 923 403 912 q 349 955 368 933 l 283 1021 q 268 1053 268 1037 q 278 1077 268 1067 q 303 1086 288 1086 q 329 1078 319 1086 q 351 1056 340 1070 l 428 975 l 502 1056 q 525 1078 515 1069 q 551 1086 535 1086 q 577 1077 567 1086 q 588 1054 588 1068 q 584 1039 588 1047 q 571 1021 580 1030 z "},"Î":{"ha":860,"x_min":141,"x_max":709,"o":"m 209 0 q 158 12 174 0 q 141 44 141 24 q 158 78 141 67 q 209 90 174 90 l 371 90 l 371 769 l 209 769 q 158 782 174 769 q 141 815 141 794 q 158 848 141 837 q 209 860 174 860 l 641 860 q 692 848 676 860 q 709 815 709 837 q 692 782 709 794 q 641 769 676 769 l 484 769 l 484 90 l 641 90 q 692 78 676 90 q 709 44 709 67 q 692 12 709 24 q 641 0 676 0 l 209 0 m 572 978 q 588 946 588 961 q 578 923 588 931 q 551 914 567 914 q 526 922 536 914 q 503 943 515 930 l 428 1024 l 352 943 q 330 921 340 928 q 304 914 319 914 q 278 923 288 914 q 268 947 268 932 q 272 962 268 953 q 283 978 276 970 l 349 1044 q 386 1076 368 1066 q 427 1087 403 1087 q 469 1077 451 1087 q 506 1044 486 1067 l 572 978 z "},"Ȉ":{"ha":860,"x_min":141,"x_max":709,"o":"m 209 0 q 158 12 174 0 q 141 44 141 24 q 158 78 141 67 q 209 90 174 90 l 371 90 l 371 769 l 209 769 q 158 782 174 769 q 141 815 141 794 q 158 848 141 837 q 209 860 174 860 l 641 860 q 692 848 676 860 q 709 815 709 837 q 692 782 709 794 q 641 769 676 769 l 484 769 l 484 90 l 641 90 q 692 78 676 90 q 709 44 709 67 q 692 12 709 24 q 641 0 676 0 l 209 0 m 343 914 q 307 923 324 914 q 270 952 290 933 l 189 1037 q 175 1055 179 1047 q 172 1072 172 1064 q 180 1089 172 1083 q 202 1096 189 1096 l 220 1096 q 258 1087 245 1096 q 287 1055 272 1078 l 344 978 q 365 934 365 948 q 358 919 365 924 q 343 914 351 914 m 547 914 q 512 923 529 914 q 475 952 494 933 l 394 1037 q 376 1072 376 1055 q 385 1089 376 1083 q 407 1096 394 1096 l 425 1096 q 464 1087 451 1096 q 492 1055 476 1078 l 549 978 q 565 953 560 964 q 569 934 569 942 q 563 919 569 924 q 547 914 556 914 z "},"Ï":{"ha":860,"x_min":141,"x_max":709,"o":"m 209 0 q 158 12 174 0 q 141 44 141 24 q 158 78 141 67 q 209 90 174 90 l 371 90 l 371 769 l 209 769 q 158 782 174 769 q 141 815 141 794 q 158 848 141 837 q 209 860 174 860 l 641 860 q 692 848 676 860 q 709 815 709 837 q 692 782 709 794 q 641 769 676 769 l 484 769 l 484 90 l 641 90 q 692 78 676 90 q 709 44 709 67 q 692 12 709 24 q 641 0 676 0 l 209 0 m 292 942 q 234 966 258 942 q 210 1024 210 990 q 234 1083 210 1059 q 292 1107 258 1107 q 349 1083 326 1107 q 373 1024 373 1059 q 349 966 373 990 q 292 942 326 942 m 564 942 q 506 966 529 942 q 482 1024 482 990 q 506 1083 482 1059 q 564 1107 529 1107 q 622 1083 598 1107 q 646 1024 646 1059 q 622 966 646 990 q 564 942 598 942 z "},"İ":{"ha":860,"x_min":141,"x_max":709,"o":"m 209 0 q 158 12 174 0 q 141 44 141 24 q 158 78 141 67 q 209 90 174 90 l 371 90 l 371 769 l 209 769 q 158 782 174 769 q 141 815 141 794 q 158 848 141 837 q 209 860 174 860 l 641 860 q 692 848 676 860 q 709 815 709 837 q 692 782 709 794 q 641 769 676 769 l 484 769 l 484 90 l 641 90 q 692 78 676 90 q 709 44 709 67 q 692 12 709 24 q 641 0 676 0 l 209 0 m 428 947 q 370 971 394 947 q 347 1029 347 995 q 370 1087 347 1063 q 428 1111 394 1111 q 485 1087 462 1111 q 509 1029 509 1063 q 485 971 509 995 q 428 947 462 947 z "},"Ị":{"ha":860,"x_min":141,"x_max":709,"o":"m 209 0 q 158 12 174 0 q 141 44 141 24 q 158 78 141 67 q 209 90 174 90 l 371 90 l 371 769 l 209 769 q 158 782 174 769 q 141 815 141 794 q 158 848 141 837 q 209 860 174 860 l 641 860 q 692 848 676 860 q 709 815 709 837 q 692 782 709 794 q 641 769 676 769 l 484 769 l 484 90 l 641 90 q 692 78 676 90 q 709 44 709 67 q 692 12 709 24 q 641 0 676 0 l 209 0 m 429 -246 q 371 -222 394 -246 q 347 -163 347 -198 q 371 -106 347 -129 q 429 -82 394 -82 q 486 -106 463 -82 q 510 -163 510 -129 q 486 -223 510 -199 q 429 -246 463 -246 z "},"Ì":{"ha":860,"x_min":141,"x_max":709,"o":"m 209 0 q 158 12 174 0 q 141 44 141 24 q 158 78 141 67 q 209 90 174 90 l 371 90 l 371 769 l 209 769 q 158 782 174 769 q 141 815 141 794 q 158 848 141 837 q 209 860 174 860 l 641 860 q 692 848 676 860 q 709 815 709 837 q 692 782 709 794 q 641 769 676 769 l 484 769 l 484 90 l 641 90 q 692 78 676 90 q 709 44 709 67 q 692 12 709 24 q 641 0 676 0 l 209 0 m 463 916 q 423 925 443 916 q 382 954 403 935 l 298 1039 q 279 1073 279 1057 q 289 1091 279 1085 q 313 1098 299 1098 l 333 1098 q 376 1089 361 1098 q 408 1056 390 1081 l 466 980 q 488 936 488 951 q 481 921 488 926 q 463 916 473 916 z "},"Ỉ":{"ha":860,"x_min":141,"x_max":709,"o":"m 209 0 q 158 12 174 0 q 141 44 141 24 q 158 78 141 67 q 209 90 174 90 l 371 90 l 371 769 l 209 769 q 158 782 174 769 q 141 815 141 794 q 158 848 141 837 q 209 860 174 860 l 641 860 q 692 848 676 860 q 709 815 709 837 q 692 782 709 794 q 641 769 676 769 l 484 769 l 484 90 l 641 90 q 692 78 676 90 q 709 44 709 67 q 692 12 709 24 q 641 0 676 0 l 209 0 m 397 918 q 369 927 379 918 q 359 949 359 935 q 369 972 359 963 q 397 981 378 981 q 464 989 433 981 q 496 1024 496 997 q 466 1054 496 1048 q 403 1060 436 1060 q 365 1058 382 1060 q 334 1053 349 1057 q 320 1051 326 1052 q 309 1051 314 1051 q 290 1057 297 1051 q 283 1074 283 1063 q 318 1112 283 1099 q 404 1124 353 1124 q 486 1116 448 1124 q 548 1085 524 1107 q 572 1022 572 1063 q 542 959 572 982 q 473 927 513 937 q 397 918 433 918 z "},"Ȋ":{"ha":860,"x_min":141,"x_max":709,"o":"m 209 0 q 158 12 174 0 q 141 44 141 24 q 158 78 141 67 q 209 90 174 90 l 371 90 l 371 769 l 209 769 q 158 782 174 769 q 141 815 141 794 q 158 848 141 837 q 209 860 174 860 l 641 860 q 692 848 676 860 q 709 815 709 837 q 692 782 709 794 q 641 769 676 769 l 484 769 l 484 90 l 641 90 q 692 78 676 90 q 709 44 709 67 q 692 12 709 24 q 641 0 676 0 l 209 0 m 544 920 q 513 932 522 920 q 499 963 503 944 q 480 1009 495 988 q 427 1031 464 1031 q 375 1009 391 1031 q 355 963 359 988 q 341 932 351 944 q 310 920 332 920 q 283 931 293 920 q 273 960 273 942 q 277 980 273 969 q 290 1000 281 990 q 338 1067 304 1039 q 426 1096 372 1096 q 517 1066 482 1096 q 567 996 553 1037 q 578 977 575 987 q 582 959 582 968 q 572 931 582 941 q 544 920 562 920 z "},"Ī":{"ha":860,"x_min":141,"x_max":709,"o":"m 209 0 q 158 12 174 0 q 141 44 141 24 q 158 78 141 67 q 209 90 174 90 l 371 90 l 371 769 l 209 769 q 158 782 174 769 q 141 815 141 794 q 158 848 141 837 q 209 860 174 860 l 641 860 q 692 848 676 860 q 709 815 709 837 q 692 782 709 794 q 641 769 676 769 l 484 769 l 484 90 l 641 90 q 692 78 676 90 q 709 44 709 67 q 692 12 709 24 q 641 0 676 0 l 209 0 m 183 986 q 200 1014 183 1004 q 251 1024 217 1024 l 603 1024 q 655 1014 638 1024 q 671 986 671 1004 q 655 958 671 968 q 603 948 638 948 l 251 948 q 200 958 217 948 q 183 986 183 968 z "},"Į":{"ha":860,"x_min":141,"x_max":714,"o":"m 209 0 q 158 12 174 0 q 141 44 141 24 q 158 78 141 67 q 209 90 174 90 l 371 90 l 371 769 l 209 769 q 158 782 174 769 q 141 815 141 794 q 158 848 141 837 q 209 860 174 860 l 641 860 q 692 848 676 860 q 709 815 709 837 q 692 782 709 794 q 641 769 676 769 l 484 769 l 484 90 l 641 90 q 692 78 676 90 q 709 44 709 67 q 692 12 709 24 q 641 0 676 0 l 209 0 m 603 -316 q 523 -303 560 -316 q 463 -263 485 -291 q 440 -190 440 -235 q 452 -124 440 -157 q 485 -64 465 -91 q 526 -19 505 -36 q 565 0 548 -1 l 619 0 q 583 -39 603 -10 q 548 -102 563 -67 q 533 -171 533 -138 q 555 -224 533 -208 q 608 -240 577 -240 q 629 -238 617 -240 q 650 -235 641 -237 q 665 -232 658 -233 q 678 -231 672 -231 q 705 -241 696 -231 q 714 -265 714 -251 q 680 -305 714 -293 q 603 -316 645 -316 z "},"Ĩ":{"ha":860,"x_min":141,"x_max":709,"o":"m 209 0 q 158 12 174 0 q 141 44 141 24 q 158 78 141 67 q 209 90 174 90 l 371 90 l 371 769 l 209 769 q 158 782 174 769 q 141 815 141 794 q 158 848 141 837 q 209 860 174 860 l 641 860 q 692 848 676 860 q 709 815 709 837 q 692 782 709 794 q 641 769 676 769 l 484 769 l 484 90 l 641 90 q 692 78 676 90 q 709 44 709 67 q 692 12 709 24 q 641 0 676 0 l 209 0 m 502 928 q 451 940 469 928 q 415 965 432 951 q 388 985 401 978 q 355 992 376 992 q 317 985 334 992 q 288 968 301 978 q 270 957 279 961 q 256 952 262 952 q 238 961 245 952 q 230 983 230 970 q 257 1030 230 1006 q 299 1057 274 1044 q 353 1069 324 1069 q 404 1058 386 1069 q 438 1033 422 1048 q 465 1011 452 1019 q 500 1003 478 1003 q 536 1010 521 1003 q 562 1027 551 1017 q 580 1041 571 1035 q 599 1046 590 1046 q 619 1038 610 1046 q 628 1015 628 1031 q 617 987 628 999 q 573 949 603 970 q 502 928 542 928 z "},"J":{"ha":860,"x_min":51,"x_max":665,"o":"m 356 -15 q 202 17 272 -15 q 92 117 133 49 q 51 291 51 185 q 65 339 51 322 q 105 356 80 356 q 148 338 133 356 q 168 285 163 319 q 194 169 171 216 q 259 100 218 123 q 356 76 301 76 q 462 107 419 76 q 526 199 504 137 q 547 356 547 260 l 547 785 q 606 860 547 860 q 665 785 665 860 l 665 348 q 625 138 665 217 q 516 22 585 58 q 356 -15 447 -15 z "},"Ĵ":{"ha":860,"x_min":51,"x_max":770,"o":"m 356 -15 q 202 17 272 -15 q 92 117 133 49 q 51 291 51 185 q 65 339 51 322 q 105 356 80 356 q 148 338 133 356 q 168 285 163 319 q 194 169 171 216 q 259 100 218 123 q 356 76 301 76 q 462 107 419 76 q 526 199 504 137 q 547 356 547 260 l 547 785 q 606 860 547 860 q 665 785 665 860 l 665 348 q 625 138 665 217 q 516 22 585 58 q 356 -15 447 -15 m 754 978 q 771 946 771 961 q 760 923 771 931 q 733 914 750 914 q 708 922 719 914 q 685 943 698 930 l 610 1024 l 535 943 q 512 921 522 928 q 487 914 502 914 q 461 923 471 914 q 451 947 451 932 q 455 962 451 953 q 466 978 458 970 l 531 1044 q 568 1076 551 1066 q 610 1087 586 1087 q 651 1077 634 1087 q 689 1044 669 1067 l 754 978 z "},"K":{"ha":860,"x_min":163,"x_max":723,"o":"m 221 -13 q 163 59 163 -13 l 163 794 q 178 848 163 830 q 221 867 193 867 q 280 794 280 867 l 280 472 l 597 819 q 632 854 615 842 q 674 867 649 867 q 711 855 699 867 q 723 824 723 843 q 718 802 723 812 q 706 783 714 793 l 423 478 q 392 444 405 458 q 373 426 380 431 q 392 408 380 422 q 424 372 405 395 l 706 73 q 718 52 715 62 q 722 30 722 42 q 708 -1 722 11 q 669 -13 694 -13 q 629 -2 644 -13 q 596 32 614 8 l 280 381 l 280 59 q 221 -13 280 -13 z "},"Ķ":{"ha":860,"x_min":163,"x_max":723,"o":"m 221 -13 q 163 59 163 -13 l 163 794 q 178 848 163 830 q 221 867 193 867 q 280 794 280 867 l 280 472 l 597 819 q 632 854 615 842 q 674 867 649 867 q 711 855 699 867 q 723 824 723 843 q 718 802 723 812 q 706 783 714 793 l 423 478 q 392 444 405 458 q 373 426 380 431 q 392 408 380 422 q 424 372 405 395 l 706 73 q 718 52 715 62 q 722 30 722 42 q 708 -1 722 11 q 669 -13 694 -13 q 629 -2 644 -13 q 596 32 614 8 l 280 381 l 280 59 q 221 -13 280 -13 m 422 -60 q 468 -78 449 -60 q 488 -126 488 -96 q 474 -197 488 -153 q 419 -276 461 -240 q 401 -289 410 -285 q 386 -293 393 -293 q 377 -289 381 -293 q 374 -282 374 -285 q 381 -268 374 -276 q 399 -250 387 -260 q 421 -223 413 -238 q 433 -190 430 -207 q 428 -191 432 -191 q 422 -191 424 -191 q 375 -172 394 -191 q 356 -126 356 -153 q 375 -79 356 -99 q 422 -60 394 -60 z "},"L":{"ha":860,"x_min":213,"x_max":744,"o":"m 331 90 l 669 90 q 724 78 705 90 q 744 44 744 67 q 724 12 744 24 q 669 0 705 0 l 288 0 q 213 75 213 0 l 213 791 q 272 867 213 867 q 331 791 331 867 l 331 90 z "},"Ĺ":{"ha":860,"x_min":172,"x_max":744,"o":"m 331 90 l 669 90 q 724 78 705 90 q 744 44 744 67 q 724 12 744 24 q 669 0 705 0 l 288 0 q 213 75 213 0 l 213 791 q 272 867 213 867 q 331 791 331 867 l 331 90 m 195 956 q 180 960 188 956 q 172 976 172 965 q 192 1020 172 990 l 249 1097 q 279 1130 265 1122 q 322 1138 294 1138 l 337 1138 q 361 1132 352 1138 q 370 1113 370 1125 q 351 1078 370 1097 l 258 987 q 225 963 240 970 q 195 956 209 956 z "},"Ľ":{"ha":860,"x_min":213,"x_max":744,"o":"m 331 90 l 669 90 q 724 78 705 90 q 744 44 744 67 q 724 12 744 24 q 669 0 705 0 l 288 0 q 213 75 213 0 l 213 791 q 272 867 213 867 q 331 791 331 867 l 331 90 m 549 590 q 519 606 528 590 q 510 647 510 622 q 512 673 510 652 q 519 724 515 694 q 529 785 524 754 q 538 840 533 816 q 590 908 547 908 q 629 894 615 908 q 643 855 643 879 q 640 828 643 848 q 630 780 636 808 q 617 718 624 751 q 600 652 609 685 q 549 590 582 590 z "},"Ļ":{"ha":860,"x_min":213,"x_max":744,"o":"m 331 90 l 669 90 q 724 78 705 90 q 744 44 744 67 q 724 12 744 24 q 669 0 705 0 l 288 0 q 213 75 213 0 l 213 791 q 272 867 213 867 q 331 791 331 867 l 331 90 m 486 -60 q 532 -78 513 -60 q 551 -126 551 -96 q 538 -197 551 -153 q 483 -276 525 -240 q 465 -289 474 -285 q 450 -293 457 -293 q 441 -289 444 -293 q 438 -282 438 -285 q 444 -268 438 -276 q 463 -250 451 -260 q 485 -223 476 -238 q 497 -190 494 -207 q 492 -191 496 -191 q 486 -191 488 -191 q 439 -172 458 -191 q 420 -126 420 -153 q 439 -79 420 -99 q 486 -60 458 -60 z "},"Ŀ":{"ha":860,"x_min":213,"x_max":801,"o":"m 719 375 q 662 399 685 375 q 638 456 638 423 q 662 515 638 491 q 719 539 685 539 q 777 515 753 539 q 801 456 801 491 q 777 399 801 423 q 719 375 753 375 m 331 90 l 669 90 q 724 78 705 90 q 744 44 744 67 q 724 12 744 24 q 669 0 705 0 l 288 0 q 213 75 213 0 l 213 791 q 272 867 213 867 q 331 791 331 867 l 331 90 z "},"Ł":{"ha":860,"x_min":106,"x_max":744,"o":"m 146 235 q 118 247 129 235 q 106 274 106 259 q 144 333 106 303 l 363 528 q 420 556 395 556 q 449 543 437 556 q 460 514 460 531 q 422 456 460 487 l 202 260 q 146 235 171 235 m 331 90 l 669 90 q 724 78 705 90 q 744 44 744 67 q 724 12 744 24 q 669 0 705 0 l 288 0 q 213 75 213 0 l 213 791 q 272 867 213 867 q 331 791 331 867 l 331 90 z "},"M":{"ha":860,"x_min":63,"x_max":806,"o":"m 119 -7 q 78 9 94 -7 q 63 56 63 26 q 67 110 63 67 q 78 216 71 153 q 93 353 85 279 q 110 500 101 426 q 127 638 119 574 q 140 745 135 702 q 147 801 145 789 q 160 841 151 826 q 187 865 170 857 q 226 873 203 873 l 230 873 q 284 856 264 873 q 312 806 304 839 l 435 301 l 558 806 q 586 856 565 840 q 640 873 606 873 l 643 873 q 683 865 666 873 q 709 841 699 857 q 722 801 719 825 q 730 745 724 789 q 742 636 735 701 q 759 497 750 572 q 776 349 767 423 q 791 212 785 275 q 802 107 798 149 q 806 56 806 65 q 792 9 806 26 q 753 -7 778 -7 q 690 65 697 -7 l 634 662 l 507 180 q 480 130 499 147 q 435 114 460 114 q 390 130 409 114 q 362 180 370 147 l 236 665 l 178 65 q 161 11 174 28 q 119 -7 148 -7 z "},"N":{"ha":860,"x_min":110,"x_max":747,"o":"m 167 -9 q 110 64 110 -9 l 110 790 q 132 845 110 826 q 188 865 153 865 l 191 865 q 244 849 222 865 q 283 803 267 833 l 634 174 l 634 792 q 690 865 634 865 q 732 846 717 865 q 747 792 747 828 l 747 66 q 726 11 747 31 q 669 -9 705 -9 l 665 -9 q 613 7 634 -9 q 576 53 592 23 l 223 683 l 223 64 q 167 -9 223 -9 z "},"Ń":{"ha":860,"x_min":110,"x_max":747,"o":"m 167 -9 q 110 64 110 -9 l 110 790 q 132 845 110 826 q 188 865 153 865 l 191 865 q 244 849 222 865 q 283 803 267 833 l 634 174 l 634 792 q 690 865 634 865 q 732 846 717 865 q 747 792 747 828 l 747 66 q 726 11 747 31 q 669 -9 705 -9 l 665 -9 q 613 7 634 -9 q 576 53 592 23 l 223 683 l 223 64 q 167 -9 223 -9 m 349 956 q 333 960 341 956 q 325 976 325 965 q 345 1020 325 990 l 402 1097 q 433 1130 418 1122 q 475 1138 447 1138 l 490 1138 q 515 1132 506 1138 q 524 1113 524 1125 q 504 1078 524 1097 l 412 987 q 378 963 394 970 q 349 956 363 956 z "},"Ň":{"ha":860,"x_min":110,"x_max":747,"o":"m 167 -9 q 110 64 110 -9 l 110 790 q 132 845 110 826 q 188 865 153 865 l 191 865 q 244 849 222 865 q 283 803 267 833 l 634 174 l 634 792 q 690 865 634 865 q 732 846 717 865 q 747 792 747 828 l 747 66 q 726 11 747 31 q 669 -9 705 -9 l 665 -9 q 613 7 634 -9 q 576 53 592 23 l 223 683 l 223 64 q 167 -9 223 -9 m 569 1047 l 503 981 q 466 949 483 959 q 424 938 449 938 q 383 949 401 938 q 346 981 365 959 l 281 1047 q 265 1079 265 1063 q 275 1103 265 1094 q 301 1112 285 1112 q 327 1104 317 1112 q 349 1083 337 1097 l 425 1001 l 500 1082 q 523 1104 513 1096 q 548 1112 533 1112 q 575 1103 565 1112 q 585 1081 585 1094 q 569 1047 585 1064 z "},"Ņ":{"ha":860,"x_min":110,"x_max":747,"o":"m 167 -9 q 110 64 110 -9 l 110 790 q 132 845 110 826 q 188 865 153 865 l 191 865 q 244 849 222 865 q 283 803 267 833 l 634 174 l 634 792 q 690 865 634 865 q 732 846 717 865 q 747 792 747 828 l 747 66 q 726 11 747 31 q 669 -9 705 -9 l 665 -9 q 613 7 634 -9 q 576 53 592 23 l 223 683 l 223 64 q 167 -9 223 -9 m 428 -60 q 474 -78 454 -60 q 493 -126 493 -96 q 480 -197 493 -153 q 425 -276 467 -240 q 407 -289 415 -285 q 392 -293 399 -293 q 383 -289 386 -293 q 380 -282 380 -285 q 386 -268 380 -276 q 404 -250 392 -260 q 427 -223 418 -238 q 439 -190 435 -207 q 434 -191 438 -191 q 428 -191 430 -191 q 381 -172 400 -191 q 362 -126 362 -153 q 381 -79 362 -99 q 428 -60 400 -60 z "},"Ñ":{"ha":860,"x_min":110,"x_max":747,"o":"m 167 -9 q 110 64 110 -9 l 110 790 q 132 845 110 826 q 188 865 153 865 l 191 865 q 244 849 222 865 q 283 803 267 833 l 634 174 l 634 792 q 690 865 634 865 q 732 846 717 865 q 747 792 747 828 l 747 66 q 726 11 747 31 q 669 -9 705 -9 l 665 -9 q 613 7 634 -9 q 576 53 592 23 l 223 683 l 223 64 q 167 -9 223 -9 m 499 942 q 448 953 466 942 q 412 978 429 964 q 385 999 397 992 q 352 1006 372 1006 q 315 998 331 1006 q 285 981 298 991 q 252 965 265 965 q 235 974 242 965 q 227 996 227 983 q 253 1043 227 1019 q 296 1070 272 1058 q 350 1082 321 1082 q 401 1072 383 1082 q 435 1047 419 1062 q 462 1025 449 1033 q 497 1017 475 1017 q 532 1024 517 1017 q 559 1041 547 1031 q 577 1054 568 1049 q 597 1059 587 1059 q 616 1051 608 1059 q 625 1029 625 1044 q 614 1001 625 1012 q 569 963 599 983 q 499 942 540 942 z "},"Ŋ":{"ha":860,"x_min":133,"x_max":736,"o":"m 625 797 q 640 851 625 833 q 681 869 654 869 q 722 851 708 869 q 736 797 736 833 l 736 -12 q 706 -146 736 -92 q 620 -227 676 -200 q 488 -254 565 -254 q 420 -251 454 -254 q 361 -242 386 -249 q 332 -224 342 -235 q 323 -196 323 -213 q 335 -162 323 -176 q 368 -149 347 -149 q 394 -151 379 -149 q 435 -157 412 -154 q 478 -159 458 -159 q 564 -146 528 -159 q 618 -99 599 -133 q 637 0 637 -64 l 245 674 l 245 64 q 190 -9 245 -9 q 133 64 133 -9 l 133 794 q 153 849 133 830 q 204 869 173 869 l 206 869 q 252 855 237 869 q 282 815 267 842 l 625 218 l 625 797 z "},"O":{"ha":860,"x_min":63,"x_max":797,"o":"m 430 -15 q 298 10 363 -15 q 180 86 233 34 q 94 223 126 138 q 63 427 63 307 q 94 631 63 547 q 180 767 126 715 q 298 844 233 819 q 430 868 363 868 q 561 844 496 868 q 679 767 626 819 q 765 631 733 715 q 797 427 797 547 q 765 223 797 307 q 679 86 733 138 q 561 10 626 34 q 430 -15 496 -15 m 430 76 q 550 114 494 76 q 641 230 606 152 q 676 427 676 308 q 641 624 676 546 q 550 739 606 701 q 430 777 494 777 q 309 739 366 777 q 217 624 252 701 q 183 427 183 546 q 217 230 183 308 q 309 114 252 152 q 430 76 366 76 z "},"Ó":{"ha":860,"x_min":63,"x_max":797,"o":"m 430 -15 q 298 10 363 -15 q 180 86 233 34 q 94 223 126 138 q 63 427 63 307 q 94 631 63 547 q 180 767 126 715 q 298 844 233 819 q 430 868 363 868 q 561 844 496 868 q 679 767 626 819 q 765 631 733 715 q 797 427 797 547 q 765 223 797 307 q 679 86 733 138 q 561 10 626 34 q 430 -15 496 -15 m 430 76 q 550 114 494 76 q 641 230 606 152 q 676 427 676 308 q 641 624 676 546 q 550 739 606 701 q 430 777 494 777 q 309 739 366 777 q 217 624 252 701 q 183 427 183 546 q 217 230 183 308 q 309 114 252 152 q 430 76 366 76 m 402 922 q 385 927 393 922 q 377 943 377 933 q 399 988 377 958 l 458 1063 q 490 1096 476 1088 q 532 1105 504 1105 l 552 1105 q 577 1098 567 1105 q 586 1080 586 1091 q 567 1046 586 1064 l 483 961 q 442 932 462 942 q 402 922 423 922 z "},"Ŏ":{"ha":860,"x_min":63,"x_max":797,"o":"m 430 -15 q 298 10 363 -15 q 180 86 233 34 q 94 223 126 138 q 63 427 63 307 q 94 631 63 547 q 180 767 126 715 q 298 844 233 819 q 430 868 363 868 q 561 844 496 868 q 679 767 626 819 q 765 631 733 715 q 797 427 797 547 q 765 223 797 307 q 679 86 733 138 q 561 10 626 34 q 430 -15 496 -15 m 430 76 q 550 114 494 76 q 641 230 606 152 q 676 427 676 308 q 641 624 676 546 q 550 739 606 701 q 430 777 494 777 q 309 739 366 777 q 217 624 252 701 q 183 427 183 546 q 217 230 183 308 q 309 114 252 152 q 430 76 366 76 m 547 1101 q 575 1090 565 1101 q 585 1061 585 1079 q 581 1044 585 1053 q 570 1024 578 1034 q 520 955 556 984 q 428 925 485 925 q 341 953 374 925 q 293 1021 307 982 q 280 1041 283 1031 q 276 1060 276 1051 q 286 1090 276 1078 q 313 1101 296 1101 q 344 1089 335 1101 q 358 1058 353 1076 q 378 1012 362 1034 q 430 990 394 990 q 482 1012 467 990 q 502 1058 498 1034 q 515 1089 506 1076 q 547 1101 525 1101 z "},"Ǒ":{"ha":860,"x_min":63,"x_max":797,"o":"m 430 -15 q 298 10 363 -15 q 180 86 233 34 q 94 223 126 138 q 63 427 63 307 q 94 631 63 547 q 180 767 126 715 q 298 844 233 819 q 430 868 363 868 q 561 844 496 868 q 679 767 626 819 q 765 631 733 715 q 797 427 797 547 q 765 223 797 307 q 679 86 733 138 q 561 10 626 34 q 430 -15 496 -15 m 430 76 q 550 114 494 76 q 641 230 606 152 q 676 427 676 308 q 641 624 676 546 q 550 739 606 701 q 430 777 494 777 q 309 739 366 777 q 217 624 252 701 q 183 427 183 546 q 217 230 183 308 q 309 114 252 152 q 430 76 366 76 m 574 1024 l 508 958 q 471 925 488 936 q 430 915 454 915 q 388 925 406 915 q 351 958 371 936 l 286 1024 q 271 1056 271 1040 q 281 1080 271 1070 q 306 1089 290 1089 q 332 1081 322 1089 q 354 1059 342 1073 l 431 978 l 505 1058 q 528 1081 517 1072 q 553 1089 538 1089 q 580 1080 570 1089 q 590 1057 590 1071 q 586 1041 590 1050 q 574 1024 583 1033 z "},"Ô":{"ha":860,"x_min":63,"x_max":797,"o":"m 430 -15 q 298 10 363 -15 q 180 86 233 34 q 94 223 126 138 q 63 427 63 307 q 94 631 63 547 q 180 767 126 715 q 298 844 233 819 q 430 868 363 868 q 561 844 496 868 q 679 767 626 819 q 765 631 733 715 q 797 427 797 547 q 765 223 797 307 q 679 86 733 138 q 561 10 626 34 q 430 -15 496 -15 m 430 76 q 550 114 494 76 q 641 230 606 152 q 676 427 676 308 q 641 624 676 546 q 550 739 606 701 q 430 777 494 777 q 309 739 366 777 q 217 624 252 701 q 183 427 183 546 q 217 230 183 308 q 309 114 252 152 q 430 76 366 76 m 574 981 q 591 949 591 964 q 581 925 591 934 q 553 917 570 917 q 528 925 539 917 q 506 946 518 933 l 431 1027 l 355 946 q 332 924 342 931 q 307 917 322 917 q 281 926 291 917 q 271 949 271 935 q 275 965 271 956 q 286 981 278 973 l 351 1047 q 389 1079 371 1069 q 430 1090 406 1090 q 472 1080 454 1090 q 509 1047 489 1069 l 574 981 z "},"Ố":{"ha":860,"x_min":63,"x_max":797,"o":"m 430 -15 q 298 10 363 -15 q 180 86 233 34 q 94 223 126 138 q 63 427 63 307 q 94 631 63 547 q 180 767 126 715 q 298 844 233 819 q 430 868 363 868 q 561 844 496 868 q 679 767 626 819 q 765 631 733 715 q 797 427 797 547 q 765 223 797 307 q 679 86 733 138 q 561 10 626 34 q 430 -15 496 -15 m 430 76 q 550 114 494 76 q 641 230 606 152 q 676 427 676 308 q 641 624 676 546 q 550 739 606 701 q 430 777 494 777 q 309 739 366 777 q 217 624 252 701 q 183 427 183 546 q 217 230 183 308 q 309 114 252 152 q 430 76 366 76 m 574 1006 q 591 972 591 988 q 581 950 591 958 q 553 941 570 941 q 528 949 539 941 q 506 971 518 957 l 431 1051 l 355 970 q 332 949 342 956 q 307 941 322 941 q 281 950 291 941 q 271 973 271 959 q 286 1006 271 990 l 351 1072 q 389 1104 371 1094 q 430 1115 406 1115 q 472 1104 454 1115 q 509 1072 489 1094 l 574 1006 m 566 1066 q 550 1070 558 1066 q 542 1085 542 1074 q 563 1130 542 1100 l 619 1206 q 650 1240 635 1232 q 692 1248 665 1248 l 708 1248 q 732 1241 723 1248 q 741 1223 741 1235 q 722 1188 741 1206 l 629 1097 q 595 1073 611 1080 q 566 1066 580 1066 z "},"Ộ":{"ha":860,"x_min":63,"x_max":797,"o":"m 430 -15 q 298 10 363 -15 q 180 86 233 34 q 94 223 126 138 q 63 427 63 307 q 94 631 63 547 q 180 767 126 715 q 298 844 233 819 q 430 868 363 868 q 561 844 496 868 q 679 767 626 819 q 765 631 733 715 q 797 427 797 547 q 765 223 797 307 q 679 86 733 138 q 561 10 626 34 q 430 -15 496 -15 m 430 76 q 550 114 494 76 q 641 230 606 152 q 676 427 676 308 q 641 624 676 546 q 550 739 606 701 q 430 777 494 777 q 309 739 366 777 q 217 624 252 701 q 183 427 183 546 q 217 230 183 308 q 309 114 252 152 q 430 76 366 76 m 424 -246 q 366 -222 390 -246 q 342 -163 342 -198 q 366 -106 342 -129 q 424 -82 390 -82 q 482 -106 458 -82 q 506 -163 506 -129 q 482 -223 506 -199 q 424 -246 458 -246 m 574 981 q 591 949 591 964 q 581 925 591 934 q 553 917 570 917 q 528 925 539 917 q 506 946 518 933 l 431 1027 l 355 946 q 332 924 342 931 q 307 917 322 917 q 281 926 291 917 q 271 949 271 935 q 275 965 271 956 q 286 981 278 973 l 351 1047 q 389 1079 371 1069 q 430 1090 406 1090 q 472 1080 454 1090 q 509 1047 489 1069 l 574 981 z "},"Ồ":{"ha":860,"x_min":63,"x_max":797,"o":"m 430 -15 q 298 10 363 -15 q 180 86 233 34 q 94 223 126 138 q 63 427 63 307 q 94 631 63 547 q 180 767 126 715 q 298 844 233 819 q 430 868 363 868 q 561 844 496 868 q 679 767 626 819 q 765 631 733 715 q 797 427 797 547 q 765 223 797 307 q 679 86 733 138 q 561 10 626 34 q 430 -15 496 -15 m 430 76 q 550 114 494 76 q 641 230 606 152 q 676 427 676 308 q 641 624 676 546 q 550 739 606 701 q 430 777 494 777 q 309 739 366 777 q 217 624 252 701 q 183 427 183 546 q 217 230 183 308 q 309 114 252 152 q 430 76 366 76 m 574 1006 q 591 972 591 988 q 581 950 591 958 q 553 941 570 941 q 528 949 539 941 q 506 971 518 957 l 431 1051 l 355 970 q 332 949 342 956 q 307 941 322 941 q 281 950 291 941 q 271 973 271 959 q 286 1006 271 990 l 351 1072 q 389 1104 371 1094 q 430 1115 406 1115 q 472 1104 454 1115 q 509 1072 489 1094 l 574 1006 m 631 1066 q 602 1073 617 1066 q 568 1097 586 1079 l 476 1188 q 456 1223 456 1208 q 466 1241 456 1235 q 489 1248 475 1248 l 505 1248 q 548 1240 533 1248 q 578 1206 563 1232 l 635 1130 q 655 1085 655 1100 q 647 1070 655 1074 q 631 1066 639 1066 z "},"Ổ":{"ha":860,"x_min":63,"x_max":797,"o":"m 430 -15 q 298 10 363 -15 q 180 86 233 34 q 94 223 126 138 q 63 427 63 307 q 94 631 63 547 q 180 767 126 715 q 298 844 233 819 q 430 868 363 868 q 561 844 496 868 q 679 767 626 819 q 765 631 733 715 q 797 427 797 547 q 765 223 797 307 q 679 86 733 138 q 561 10 626 34 q 430 -15 496 -15 m 430 76 q 550 114 494 76 q 641 230 606 152 q 676 427 676 308 q 641 624 676 546 q 550 739 606 701 q 430 777 494 777 q 309 739 366 777 q 217 624 252 701 q 183 427 183 546 q 217 230 183 308 q 309 114 252 152 q 430 76 366 76 m 574 1006 q 591 972 591 988 q 581 950 591 958 q 553 941 570 941 q 528 949 539 941 q 506 971 518 957 l 431 1051 l 355 970 q 332 949 342 956 q 307 941 322 941 q 281 950 291 941 q 271 973 271 959 q 286 1006 271 990 l 351 1072 q 389 1104 371 1094 q 430 1115 406 1115 q 472 1104 454 1115 q 509 1072 489 1094 l 574 1006 m 580 1078 q 542 1107 542 1078 q 551 1129 542 1121 q 580 1137 561 1137 q 648 1146 615 1137 q 681 1181 681 1155 q 651 1212 681 1205 q 589 1219 622 1219 q 550 1217 567 1219 q 520 1211 533 1215 q 504 1208 513 1209 q 490 1208 495 1208 q 474 1213 481 1208 q 466 1231 466 1218 q 501 1267 466 1255 q 587 1278 536 1278 q 668 1270 631 1278 q 728 1241 705 1262 q 751 1180 751 1219 q 723 1117 751 1140 q 655 1087 695 1095 q 580 1078 615 1078 z "},"Ỗ":{"ha":860,"x_min":63,"x_max":797,"o":"m 430 -15 q 298 10 363 -15 q 180 86 233 34 q 94 223 126 138 q 63 427 63 307 q 94 631 63 547 q 180 767 126 715 q 298 844 233 819 q 430 868 363 868 q 561 844 496 868 q 679 767 626 819 q 765 631 733 715 q 797 427 797 547 q 765 223 797 307 q 679 86 733 138 q 561 10 626 34 q 430 -15 496 -15 m 430 76 q 550 114 494 76 q 641 230 606 152 q 676 427 676 308 q 641 624 676 546 q 550 739 606 701 q 430 777 494 777 q 309 739 366 777 q 217 624 252 701 q 183 427 183 546 q 217 230 183 308 q 309 114 252 152 q 430 76 366 76 m 574 981 q 591 949 591 964 q 581 925 591 934 q 553 917 570 917 q 528 925 539 917 q 506 946 518 933 l 431 1027 l 355 946 q 332 924 342 931 q 307 917 322 917 q 281 926 291 917 q 271 949 271 935 q 275 965 271 956 q 286 981 278 973 l 351 1047 q 389 1079 371 1069 q 430 1090 406 1090 q 472 1080 454 1090 q 509 1047 489 1069 l 574 981 m 504 1158 q 453 1169 472 1158 q 417 1195 434 1181 q 390 1215 403 1208 q 357 1222 378 1222 q 319 1215 336 1222 q 290 1198 303 1208 q 273 1186 281 1191 q 258 1182 264 1182 q 240 1191 247 1182 q 232 1213 232 1200 q 259 1260 232 1235 q 301 1286 276 1274 q 356 1299 326 1299 q 406 1288 388 1299 q 440 1263 424 1278 q 467 1241 454 1249 q 502 1233 480 1233 q 538 1240 523 1233 q 564 1257 553 1247 q 582 1270 573 1265 q 601 1276 592 1276 q 622 1268 613 1276 q 631 1245 631 1260 q 619 1217 631 1228 q 575 1179 605 1200 q 504 1158 544 1158 z "},"Ȍ":{"ha":860,"x_min":63,"x_max":797,"o":"m 430 -15 q 298 10 363 -15 q 180 86 233 34 q 94 223 126 138 q 63 427 63 307 q 94 631 63 547 q 180 767 126 715 q 298 844 233 819 q 430 868 363 868 q 561 844 496 868 q 679 767 626 819 q 765 631 733 715 q 797 427 797 547 q 765 223 797 307 q 679 86 733 138 q 561 10 626 34 q 430 -15 496 -15 m 430 76 q 550 114 494 76 q 641 230 606 152 q 676 427 676 308 q 641 624 676 546 q 550 739 606 701 q 430 777 494 777 q 309 739 366 777 q 217 624 252 701 q 183 427 183 546 q 217 230 183 308 q 309 114 252 152 q 430 76 366 76 m 345 917 q 309 926 326 917 q 272 955 292 935 l 191 1040 q 177 1058 181 1049 q 174 1074 174 1067 q 182 1092 174 1085 q 204 1099 191 1099 l 222 1099 q 260 1090 247 1099 q 289 1058 274 1081 l 346 981 q 367 937 367 951 q 360 922 367 927 q 345 917 353 917 m 549 917 q 514 926 531 917 q 477 955 497 935 l 396 1040 q 378 1074 378 1058 q 388 1092 378 1085 q 409 1099 397 1099 l 427 1099 q 466 1090 453 1099 q 494 1058 478 1081 l 551 981 q 567 956 562 967 q 572 937 572 945 q 565 922 572 927 q 549 917 558 917 z "},"Ö":{"ha":860,"x_min":63,"x_max":797,"o":"m 430 -15 q 298 10 363 -15 q 180 86 233 34 q 94 223 126 138 q 63 427 63 307 q 94 631 63 547 q 180 767 126 715 q 298 844 233 819 q 430 868 363 868 q 561 844 496 868 q 679 767 626 819 q 765 631 733 715 q 797 427 797 547 q 765 223 797 307 q 679 86 733 138 q 561 10 626 34 q 430 -15 496 -15 m 430 76 q 550 114 494 76 q 641 230 606 152 q 676 427 676 308 q 641 624 676 546 q 550 739 606 701 q 430 777 494 777 q 309 739 366 777 q 217 624 252 701 q 183 427 183 546 q 217 230 183 308 q 309 114 252 152 q 430 76 366 76 m 294 945 q 236 969 260 945 q 213 1027 213 993 q 236 1086 213 1062 q 294 1110 260 1110 q 351 1086 328 1110 q 375 1027 375 1062 q 351 969 375 993 q 294 945 328 945 m 566 945 q 508 969 531 945 q 484 1027 484 993 q 508 1086 484 1062 q 566 1110 531 1110 q 624 1086 600 1110 q 648 1027 648 1062 q 624 969 648 993 q 566 945 600 945 z "},"Ȫ":{"ha":860,"x_min":63,"x_max":797,"o":"m 430 -15 q 298 10 363 -15 q 180 86 233 34 q 94 223 126 138 q 63 427 63 307 q 94 631 63 547 q 180 767 126 715 q 298 844 233 819 q 430 868 363 868 q 561 844 496 868 q 679 767 626 819 q 765 631 733 715 q 797 427 797 547 q 765 223 797 307 q 679 86 733 138 q 561 10 626 34 q 430 -15 496 -15 m 430 76 q 550 114 494 76 q 641 230 606 152 q 676 427 676 308 q 641 624 676 546 q 550 739 606 701 q 430 777 494 777 q 309 739 366 777 q 217 624 252 701 q 183 427 183 546 q 217 230 183 308 q 309 114 252 152 q 430 76 366 76 m 294 945 q 236 969 260 945 q 213 1027 213 993 q 236 1086 213 1062 q 294 1110 260 1110 q 351 1086 328 1110 q 375 1027 375 1062 q 351 969 375 993 q 294 945 328 945 m 566 945 q 508 969 531 945 q 484 1027 484 993 q 508 1086 484 1062 q 566 1110 531 1110 q 624 1086 600 1110 q 648 1027 648 1062 q 624 969 648 993 q 566 945 600 945 m 185 1235 q 202 1264 185 1253 q 253 1274 219 1274 l 605 1274 q 657 1264 640 1274 q 673 1235 673 1253 q 657 1207 673 1217 q 605 1197 640 1197 l 253 1197 q 202 1207 219 1197 q 185 1235 185 1217 z "},"Ȱ":{"ha":860,"x_min":63,"x_max":797,"o":"m 430 -15 q 298 10 363 -15 q 180 86 233 34 q 94 223 126 138 q 63 427 63 307 q 94 631 63 547 q 180 767 126 715 q 298 844 233 819 q 430 868 363 868 q 561 844 496 868 q 679 767 626 819 q 765 631 733 715 q 797 427 797 547 q 765 223 797 307 q 679 86 733 138 q 561 10 626 34 q 430 -15 496 -15 m 430 76 q 550 114 494 76 q 641 230 606 152 q 676 427 676 308 q 641 624 676 546 q 550 739 606 701 q 430 777 494 777 q 309 739 366 777 q 217 624 252 701 q 183 427 183 546 q 217 230 183 308 q 309 114 252 152 q 430 76 366 76 m 430 950 q 372 974 396 950 q 349 1032 349 998 q 372 1090 349 1066 q 430 1114 396 1114 q 488 1090 464 1114 q 511 1032 511 1066 q 488 974 511 998 q 430 950 464 950 m 185 1240 q 202 1268 185 1258 q 253 1278 219 1278 l 605 1278 q 657 1268 640 1278 q 673 1240 673 1258 q 657 1212 673 1222 q 605 1202 640 1202 l 253 1202 q 202 1212 219 1202 q 185 1240 185 1222 z "},"Ọ":{"ha":860,"x_min":63,"x_max":797,"o":"m 430 -15 q 298 10 363 -15 q 180 86 233 34 q 94 223 126 138 q 63 427 63 307 q 94 631 63 547 q 180 767 126 715 q 298 844 233 819 q 430 868 363 868 q 561 844 496 868 q 679 767 626 819 q 765 631 733 715 q 797 427 797 547 q 765 223 797 307 q 679 86 733 138 q 561 10 626 34 q 430 -15 496 -15 m 430 76 q 550 114 494 76 q 641 230 606 152 q 676 427 676 308 q 641 624 676 546 q 550 739 606 701 q 430 777 494 777 q 309 739 366 777 q 217 624 252 701 q 183 427 183 546 q 217 230 183 308 q 309 114 252 152 q 430 76 366 76 m 424 -246 q 366 -222 390 -246 q 342 -163 342 -198 q 366 -106 342 -129 q 424 -82 390 -82 q 482 -106 458 -82 q 506 -163 506 -129 q 482 -223 506 -199 q 424 -246 458 -246 z "},"Ò":{"ha":860,"x_min":63,"x_max":797,"o":"m 430 -15 q 298 10 363 -15 q 180 86 233 34 q 94 223 126 138 q 63 427 63 307 q 94 631 63 547 q 180 767 126 715 q 298 844 233 819 q 430 868 363 868 q 561 844 496 868 q 679 767 626 819 q 765 631 733 715 q 797 427 797 547 q 765 223 797 307 q 679 86 733 138 q 561 10 626 34 q 430 -15 496 -15 m 430 76 q 550 114 494 76 q 641 230 606 152 q 676 427 676 308 q 641 624 676 546 q 550 739 606 701 q 430 777 494 777 q 309 739 366 777 q 217 624 252 701 q 183 427 183 546 q 217 230 183 308 q 309 114 252 152 q 430 76 366 76 m 465 919 q 425 928 445 919 q 384 957 406 938 l 300 1042 q 281 1076 281 1060 q 291 1094 281 1088 q 315 1101 301 1101 l 335 1101 q 378 1092 363 1101 q 410 1059 392 1083 l 468 983 q 490 939 490 953 q 483 924 490 928 q 465 919 475 919 z "},"Ỏ":{"ha":860,"x_min":63,"x_max":797,"o":"m 430 -15 q 298 10 363 -15 q 180 86 233 34 q 94 223 126 138 q 63 427 63 307 q 94 631 63 547 q 180 767 126 715 q 298 844 233 819 q 430 868 363 868 q 561 844 496 868 q 679 767 626 819 q 765 631 733 715 q 797 427 797 547 q 765 223 797 307 q 679 86 733 138 q 561 10 626 34 q 430 -15 496 -15 m 430 76 q 550 114 494 76 q 641 230 606 152 q 676 427 676 308 q 641 624 676 546 q 550 739 606 701 q 430 777 494 777 q 309 739 366 777 q 217 624 252 701 q 183 427 183 546 q 217 230 183 308 q 309 114 252 152 q 430 76 366 76 m 399 921 q 371 930 381 921 q 361 952 361 938 q 371 975 361 966 q 399 984 381 984 q 466 992 435 984 q 498 1026 498 1000 q 468 1057 498 1051 q 406 1063 438 1063 q 367 1061 384 1063 q 336 1056 351 1060 q 322 1054 328 1055 q 311 1053 316 1053 q 292 1059 299 1053 q 285 1076 285 1065 q 320 1115 285 1102 q 406 1127 356 1127 q 488 1118 450 1127 q 550 1088 526 1110 q 574 1025 574 1066 q 544 962 574 985 q 475 930 515 940 q 399 921 435 921 z "},"Ơ":{"ha":860,"x_min":62,"x_max":857,"o":"m 434 -15 q 302 10 367 -15 q 182 86 236 34 q 94 223 127 138 q 62 427 62 307 q 94 631 62 547 q 182 767 127 715 q 302 844 236 819 q 434 868 367 868 q 529 856 481 868 q 621 817 577 843 q 697 844 669 821 q 739 902 724 867 q 760 977 753 938 q 776 1017 765 1002 q 810 1033 787 1033 q 845 1018 834 1033 q 857 974 857 1003 q 837 883 857 930 q 781 801 817 837 q 695 755 745 766 q 774 622 744 703 q 804 427 804 540 q 772 223 804 307 q 685 86 739 138 q 566 10 631 34 q 434 -15 500 -15 m 182 427 q 218 230 182 308 q 311 114 253 152 q 434 76 369 76 q 527 98 482 76 q 607 162 572 119 q 664 271 643 205 q 685 427 685 338 q 664 582 685 517 q 607 691 643 648 q 527 756 572 735 q 434 777 482 777 q 311 739 369 777 q 218 624 253 701 q 182 427 182 546 z "},"Ớ":{"ha":860,"x_min":62,"x_max":857,"o":"m 434 -15 q 302 10 367 -15 q 182 86 236 34 q 94 223 127 138 q 62 427 62 307 q 94 631 62 547 q 182 767 127 715 q 302 844 236 819 q 434 868 367 868 q 529 856 481 868 q 621 817 577 843 q 697 844 669 821 q 739 902 724 867 q 760 977 753 938 q 776 1017 765 1002 q 810 1033 787 1033 q 845 1018 834 1033 q 857 974 857 1003 q 837 883 857 930 q 781 801 817 837 q 695 755 745 766 q 774 622 744 703 q 804 427 804 540 q 772 223 804 307 q 685 86 739 138 q 566 10 631 34 q 434 -15 500 -15 m 182 427 q 218 230 182 308 q 311 114 253 152 q 434 76 369 76 q 527 98 482 76 q 607 162 572 119 q 664 271 643 205 q 685 427 685 338 q 664 582 685 517 q 607 691 643 648 q 527 756 572 735 q 434 777 482 777 q 311 739 369 777 q 218 624 253 701 q 182 427 182 546 m 402 922 q 385 927 393 922 q 377 943 377 933 q 399 988 377 958 l 458 1063 q 490 1096 476 1088 q 532 1105 504 1105 l 552 1105 q 577 1098 567 1105 q 586 1080 586 1091 q 567 1046 586 1064 l 483 961 q 442 932 462 942 q 402 922 423 922 z "},"Ợ":{"ha":860,"x_min":62,"x_max":857,"o":"m 434 -15 q 302 10 367 -15 q 182 86 236 34 q 94 223 127 138 q 62 427 62 307 q 94 631 62 547 q 182 767 127 715 q 302 844 236 819 q 434 868 367 868 q 529 856 481 868 q 621 817 577 843 q 697 844 669 821 q 739 902 724 867 q 760 977 753 938 q 776 1017 765 1002 q 810 1033 787 1033 q 845 1018 834 1033 q 857 974 857 1003 q 837 883 857 930 q 781 801 817 837 q 695 755 745 766 q 774 622 744 703 q 804 427 804 540 q 772 223 804 307 q 685 86 739 138 q 566 10 631 34 q 434 -15 500 -15 m 182 427 q 218 230 182 308 q 311 114 253 152 q 434 76 369 76 q 527 98 482 76 q 607 162 572 119 q 664 271 643 205 q 685 427 685 338 q 664 582 685 517 q 607 691 643 648 q 527 756 572 735 q 434 777 482 777 q 311 739 369 777 q 218 624 253 701 q 182 427 182 546 m 424 -246 q 366 -222 390 -246 q 342 -163 342 -198 q 366 -106 342 -129 q 424 -82 390 -82 q 482 -106 458 -82 q 506 -163 506 -129 q 482 -223 506 -199 q 424 -246 458 -246 z "},"Ờ":{"ha":860,"x_min":62,"x_max":857,"o":"m 434 -15 q 302 10 367 -15 q 182 86 236 34 q 94 223 127 138 q 62 427 62 307 q 94 631 62 547 q 182 767 127 715 q 302 844 236 819 q 434 868 367 868 q 529 856 481 868 q 621 817 577 843 q 697 844 669 821 q 739 902 724 867 q 760 977 753 938 q 776 1017 765 1002 q 810 1033 787 1033 q 845 1018 834 1033 q 857 974 857 1003 q 837 883 857 930 q 781 801 817 837 q 695 755 745 766 q 774 622 744 703 q 804 427 804 540 q 772 223 804 307 q 685 86 739 138 q 566 10 631 34 q 434 -15 500 -15 m 182 427 q 218 230 182 308 q 311 114 253 152 q 434 76 369 76 q 527 98 482 76 q 607 162 572 119 q 664 271 643 205 q 685 427 685 338 q 664 582 685 517 q 607 691 643 648 q 527 756 572 735 q 434 777 482 777 q 311 739 369 777 q 218 624 253 701 q 182 427 182 546 m 465 919 q 425 928 445 919 q 384 957 406 938 l 300 1042 q 281 1076 281 1060 q 291 1094 281 1088 q 315 1101 301 1101 l 335 1101 q 378 1092 363 1101 q 410 1059 392 1083 l 468 983 q 490 939 490 953 q 483 924 490 928 q 465 919 475 919 z "},"Ở":{"ha":860,"x_min":62,"x_max":857,"o":"m 434 -15 q 302 10 367 -15 q 182 86 236 34 q 94 223 127 138 q 62 427 62 307 q 94 631 62 547 q 182 767 127 715 q 302 844 236 819 q 434 868 367 868 q 529 856 481 868 q 621 817 577 843 q 697 844 669 821 q 739 902 724 867 q 760 977 753 938 q 776 1017 765 1002 q 810 1033 787 1033 q 845 1018 834 1033 q 857 974 857 1003 q 837 883 857 930 q 781 801 817 837 q 695 755 745 766 q 774 622 744 703 q 804 427 804 540 q 772 223 804 307 q 685 86 739 138 q 566 10 631 34 q 434 -15 500 -15 m 182 427 q 218 230 182 308 q 311 114 253 152 q 434 76 369 76 q 527 98 482 76 q 607 162 572 119 q 664 271 643 205 q 685 427 685 338 q 664 582 685 517 q 607 691 643 648 q 527 756 572 735 q 434 777 482 777 q 311 739 369 777 q 218 624 253 701 q 182 427 182 546 m 399 921 q 371 930 381 921 q 361 952 361 938 q 371 975 361 966 q 399 984 381 984 q 466 992 435 984 q 498 1026 498 1000 q 468 1057 498 1051 q 406 1063 438 1063 q 367 1061 384 1063 q 336 1056 351 1060 q 322 1054 328 1055 q 311 1053 316 1053 q 292 1059 299 1053 q 285 1076 285 1065 q 320 1115 285 1102 q 406 1127 356 1127 q 488 1118 450 1127 q 550 1088 526 1110 q 574 1025 574 1066 q 544 962 574 985 q 475 930 515 940 q 399 921 435 921 z "},"Ỡ":{"ha":860,"x_min":62,"x_max":857,"o":"m 434 -15 q 302 10 367 -15 q 182 86 236 34 q 94 223 127 138 q 62 427 62 307 q 94 631 62 547 q 182 767 127 715 q 302 844 236 819 q 434 868 367 868 q 529 856 481 868 q 621 817 577 843 q 697 844 669 821 q 739 902 724 867 q 760 977 753 938 q 776 1017 765 1002 q 810 1033 787 1033 q 845 1018 834 1033 q 857 974 857 1003 q 837 883 857 930 q 781 801 817 837 q 695 755 745 766 q 774 622 744 703 q 804 427 804 540 q 772 223 804 307 q 685 86 739 138 q 566 10 631 34 q 434 -15 500 -15 m 182 427 q 218 230 182 308 q 311 114 253 152 q 434 76 369 76 q 527 98 482 76 q 607 162 572 119 q 664 271 643 205 q 685 427 685 338 q 664 582 685 517 q 607 691 643 648 q 527 756 572 735 q 434 777 482 777 q 311 739 369 777 q 218 624 253 701 q 182 427 182 546 m 504 931 q 453 942 472 931 q 417 968 434 953 q 390 988 403 981 q 357 995 378 995 q 319 988 336 995 q 290 971 303 981 q 273 959 281 964 q 258 955 264 955 q 240 964 247 955 q 232 985 232 973 q 259 1033 232 1008 q 301 1059 276 1047 q 356 1072 326 1072 q 406 1061 388 1072 q 440 1035 424 1051 q 467 1014 454 1022 q 502 1006 480 1006 q 538 1013 523 1006 q 564 1030 553 1020 q 582 1043 573 1038 q 601 1049 592 1049 q 622 1041 613 1049 q 631 1018 631 1033 q 619 990 631 1001 q 575 952 605 973 q 504 931 544 931 z "},"Ő":{"ha":860,"x_min":63,"x_max":797,"o":"m 430 -15 q 298 10 363 -15 q 180 86 233 34 q 94 223 126 138 q 63 427 63 307 q 94 631 63 547 q 180 767 126 715 q 298 844 233 819 q 430 868 363 868 q 561 844 496 868 q 679 767 626 819 q 765 631 733 715 q 797 427 797 547 q 765 223 797 307 q 679 86 733 138 q 561 10 626 34 q 430 -15 496 -15 m 430 76 q 550 114 494 76 q 641 230 606 152 q 676 427 676 308 q 641 624 676 546 q 550 739 606 701 q 430 777 494 777 q 309 739 366 777 q 217 624 252 701 q 183 427 183 546 q 217 230 183 308 q 309 114 252 152 q 430 76 366 76 m 467 970 l 514 1059 q 536 1092 526 1083 q 566 1101 547 1101 l 593 1101 q 609 1095 603 1101 q 616 1081 616 1090 q 601 1046 616 1066 l 539 957 q 510 926 522 935 q 483 916 499 916 q 466 922 474 916 q 459 940 459 928 q 467 970 459 952 m 274 970 l 320 1059 q 342 1092 332 1083 q 372 1101 353 1101 l 399 1101 q 416 1095 409 1101 q 422 1081 422 1090 q 407 1046 422 1066 l 345 957 q 317 926 328 935 q 290 916 305 916 q 273 922 280 916 q 265 940 265 928 q 274 970 265 952 z "},"Ȏ":{"ha":860,"x_min":63,"x_max":797,"o":"m 430 -15 q 298 10 363 -15 q 180 86 233 34 q 94 223 126 138 q 63 427 63 307 q 94 631 63 547 q 180 767 126 715 q 298 844 233 819 q 430 868 363 868 q 561 844 496 868 q 679 767 626 819 q 765 631 733 715 q 797 427 797 547 q 765 223 797 307 q 679 86 733 138 q 561 10 626 34 q 430 -15 496 -15 m 430 76 q 550 114 494 76 q 641 230 606 152 q 676 427 676 308 q 641 624 676 546 q 550 739 606 701 q 430 777 494 777 q 309 739 366 777 q 217 624 252 701 q 183 427 183 546 q 217 230 183 308 q 309 114 252 152 q 430 76 366 76 m 547 923 q 515 935 525 923 q 502 966 506 947 q 482 1012 498 990 q 430 1034 467 1034 q 378 1012 394 1034 q 358 966 362 990 q 344 935 353 947 q 313 923 335 923 q 286 934 296 923 q 276 963 276 944 q 280 983 276 972 q 293 1003 283 993 q 341 1070 307 1042 q 428 1099 374 1099 q 520 1069 485 1099 q 570 999 556 1040 q 581 980 578 990 q 585 962 585 971 q 575 933 585 944 q 547 923 565 923 z "},"Ō":{"ha":860,"x_min":63,"x_max":797,"o":"m 430 -15 q 298 10 363 -15 q 180 86 233 34 q 94 223 126 138 q 63 427 63 307 q 94 631 63 547 q 180 767 126 715 q 298 844 233 819 q 430 868 363 868 q 561 844 496 868 q 679 767 626 819 q 765 631 733 715 q 797 427 797 547 q 765 223 797 307 q 679 86 733 138 q 561 10 626 34 q 430 -15 496 -15 m 430 76 q 550 114 494 76 q 641 230 606 152 q 676 427 676 308 q 641 624 676 546 q 550 739 606 701 q 430 777 494 777 q 309 739 366 777 q 217 624 252 701 q 183 427 183 546 q 217 230 183 308 q 309 114 252 152 q 430 76 366 76 m 185 989 q 202 1017 185 1007 q 253 1027 219 1027 l 605 1027 q 657 1017 640 1027 q 673 989 673 1007 q 657 961 673 971 q 605 951 640 951 l 253 951 q 202 961 219 951 q 185 989 185 971 z "},"Ǫ":{"ha":860,"x_min":63,"x_max":797,"o":"m 430 -15 q 298 10 363 -15 q 180 86 233 34 q 94 223 126 138 q 63 427 63 307 q 94 631 63 547 q 180 767 126 715 q 298 844 233 819 q 430 868 363 868 q 561 844 496 868 q 679 767 626 819 q 765 631 733 715 q 797 427 797 547 q 765 223 797 307 q 679 86 733 138 q 561 10 626 34 q 430 -15 496 -15 m 430 76 q 550 114 494 76 q 641 230 606 152 q 676 427 676 308 q 641 624 676 546 q 550 739 606 701 q 430 777 494 777 q 309 739 366 777 q 217 624 252 701 q 183 427 183 546 q 217 230 183 308 q 309 114 252 152 q 430 76 366 76 m 623 -263 q 542 -251 580 -263 q 482 -210 505 -238 q 459 -137 459 -182 q 472 -71 459 -104 q 505 -11 485 -38 q 546 34 524 17 q 584 53 567 51 l 638 53 q 602 14 622 42 q 568 -50 583 -14 q 553 -118 553 -85 q 575 -171 553 -155 q 627 -187 597 -187 q 649 -185 637 -187 q 669 -182 660 -184 q 684 -179 677 -180 q 697 -178 692 -178 q 724 -188 715 -178 q 733 -212 733 -198 q 699 -252 733 -240 q 623 -263 665 -263 z "},"Ø":{"ha":860,"x_min":63,"x_max":797,"o":"m 733 910 q 758 902 747 910 q 768 877 768 894 q 764 857 768 868 q 751 833 760 847 l 188 -4 q 160 -41 172 -30 q 128 -52 148 -52 q 105 -43 115 -52 q 94 -18 94 -35 q 98 3 94 -8 q 111 28 102 15 l 672 863 q 702 899 690 888 q 733 910 714 910 m 430 -15 q 298 10 363 -15 q 180 86 233 34 q 94 223 126 138 q 63 427 63 307 q 94 631 63 547 q 180 767 126 715 q 298 844 233 819 q 430 868 363 868 q 561 844 496 868 q 679 767 626 819 q 765 631 733 715 q 797 427 797 547 q 765 223 797 307 q 679 86 733 138 q 561 10 626 34 q 430 -15 496 -15 m 430 76 q 550 114 494 76 q 641 230 606 152 q 676 427 676 308 q 641 624 676 546 q 550 739 606 701 q 430 777 494 777 q 309 739 366 777 q 217 624 252 701 q 183 427 183 546 q 217 230 183 308 q 309 114 252 152 q 430 76 366 76 z "},"Ǿ":{"ha":860,"x_min":63,"x_max":797,"o":"m 733 910 q 758 902 747 910 q 768 877 768 894 q 764 857 768 868 q 751 833 760 847 l 188 -4 q 160 -41 172 -30 q 128 -52 148 -52 q 105 -43 115 -52 q 94 -18 94 -35 q 98 3 94 -8 q 111 28 102 15 l 672 863 q 702 899 690 888 q 733 910 714 910 m 430 -15 q 298 10 363 -15 q 180 86 233 34 q 94 223 126 138 q 63 427 63 307 q 94 631 63 547 q 180 767 126 715 q 298 844 233 819 q 430 868 363 868 q 561 844 496 868 q 679 767 626 819 q 765 631 733 715 q 797 427 797 547 q 765 223 797 307 q 679 86 733 138 q 561 10 626 34 q 430 -15 496 -15 m 430 76 q 550 114 494 76 q 641 230 606 152 q 676 427 676 308 q 641 624 676 546 q 550 739 606 701 q 430 777 494 777 q 309 739 366 777 q 217 624 252 701 q 183 427 183 546 q 217 230 183 308 q 309 114 252 152 q 430 76 366 76 m 402 919 q 385 925 393 919 q 377 940 377 930 q 399 985 377 955 l 458 1060 q 490 1093 476 1085 q 532 1102 504 1102 l 552 1102 q 577 1095 567 1102 q 586 1077 586 1088 q 567 1043 586 1061 l 483 958 q 442 929 462 939 q 402 919 423 919 z "},"Õ":{"ha":860,"x_min":63,"x_max":797,"o":"m 430 -15 q 298 10 363 -15 q 180 86 233 34 q 94 223 126 138 q 63 427 63 307 q 94 631 63 547 q 180 767 126 715 q 298 844 233 819 q 430 868 363 868 q 561 844 496 868 q 679 767 626 819 q 765 631 733 715 q 797 427 797 547 q 765 223 797 307 q 679 86 733 138 q 561 10 626 34 q 430 -15 496 -15 m 430 76 q 550 114 494 76 q 641 230 606 152 q 676 427 676 308 q 641 624 676 546 q 550 739 606 701 q 430 777 494 777 q 309 739 366 777 q 217 624 252 701 q 183 427 183 546 q 217 230 183 308 q 309 114 252 152 q 430 76 366 76 m 503 944 q 452 956 471 944 q 417 981 434 967 q 390 1001 402 994 q 357 1008 377 1008 q 319 1001 336 1008 q 290 984 303 994 q 257 968 269 968 q 240 977 247 968 q 232 999 232 986 q 258 1046 232 1022 q 301 1073 276 1060 q 355 1085 326 1085 q 406 1075 388 1085 q 440 1049 424 1065 q 467 1027 453 1035 q 502 1019 480 1019 q 537 1026 522 1019 q 564 1044 552 1033 q 582 1057 573 1051 q 601 1062 592 1062 q 621 1054 613 1062 q 630 1032 630 1047 q 619 1003 630 1015 q 574 965 604 986 q 503 944 544 944 z "},"Ȭ":{"ha":860,"x_min":63,"x_max":797,"o":"m 430 -15 q 298 10 363 -15 q 180 86 233 34 q 94 223 126 138 q 63 427 63 307 q 94 631 63 547 q 180 767 126 715 q 298 844 233 819 q 430 868 363 868 q 561 844 496 868 q 679 767 626 819 q 765 631 733 715 q 797 427 797 547 q 765 223 797 307 q 679 86 733 138 q 561 10 626 34 q 430 -15 496 -15 m 430 76 q 550 114 494 76 q 641 230 606 152 q 676 427 676 308 q 641 624 676 546 q 550 739 606 701 q 430 777 494 777 q 309 739 366 777 q 217 624 252 701 q 183 427 183 546 q 217 230 183 308 q 309 114 252 152 q 430 76 366 76 m 504 931 q 453 942 472 931 q 417 968 434 953 q 390 988 403 981 q 357 995 378 995 q 319 988 336 995 q 290 971 303 981 q 273 959 281 964 q 258 955 264 955 q 240 964 247 955 q 232 985 232 973 q 259 1033 232 1008 q 301 1059 276 1047 q 356 1072 326 1072 q 406 1061 388 1072 q 440 1035 424 1051 q 467 1014 454 1022 q 502 1006 480 1006 q 538 1013 523 1006 q 564 1030 553 1020 q 582 1043 573 1038 q 601 1049 592 1049 q 622 1041 613 1049 q 631 1018 631 1033 q 619 990 631 1001 q 575 952 605 973 q 504 931 544 931 m 185 1202 q 202 1230 185 1220 q 253 1240 219 1240 l 605 1240 q 657 1230 640 1240 q 673 1202 673 1220 q 657 1174 673 1184 q 605 1164 640 1164 l 253 1164 q 202 1174 219 1164 q 185 1202 185 1184 z "},"Œ":{"ha":860,"x_min":24,"x_max":826,"o":"m 826 815 q 807 782 826 794 q 751 769 788 769 l 544 769 l 544 467 l 704 467 q 760 455 741 467 q 779 422 779 444 q 760 389 779 401 q 704 377 741 377 l 544 377 l 544 90 l 751 90 q 807 78 788 90 q 826 44 826 67 q 807 12 826 24 q 751 0 788 0 l 508 0 q 474 8 488 0 q 456 31 461 16 l 454 101 q 378 12 422 39 q 286 -15 333 -15 q 190 9 237 -15 q 106 83 143 32 q 46 219 68 134 q 24 427 24 304 q 46 635 24 550 q 106 770 68 719 q 190 845 143 822 q 286 868 237 868 q 377 842 333 868 q 452 753 421 815 l 455 828 q 473 852 460 844 q 508 860 487 860 l 751 860 q 807 848 788 860 q 826 815 826 837 m 140 427 q 159 226 140 303 q 211 113 178 149 q 286 76 244 76 q 360 113 327 76 q 411 226 392 149 q 431 427 431 303 q 411 628 431 551 q 360 741 392 705 q 286 777 327 777 q 211 741 244 777 q 159 628 178 705 q 140 427 140 551 z "},"P":{"ha":860,"x_min":161,"x_max":751,"o":"m 278 769 l 278 408 l 430 408 q 494 414 459 408 q 560 438 528 419 q 613 493 592 456 q 633 593 633 530 q 613 692 633 656 q 560 744 592 728 q 494 765 528 761 q 430 769 459 769 l 278 769 m 446 318 l 278 318 l 278 75 q 219 0 278 0 q 161 75 161 0 l 161 785 q 236 860 161 860 l 446 860 q 518 855 478 860 q 599 836 558 851 q 674 793 640 822 q 730 716 709 764 q 751 593 751 667 q 730 470 751 519 q 674 390 709 420 q 599 344 640 360 q 518 323 558 328 q 446 318 478 318 z "},"Þ":{"ha":860,"x_min":165,"x_max":720,"o":"m 414 673 q 488 669 447 673 q 569 653 528 665 q 644 615 610 641 q 699 544 678 589 q 720 431 720 500 q 699 313 720 360 q 644 238 678 266 q 569 197 610 210 q 488 178 528 183 q 414 174 447 174 l 281 174 l 281 52 q 266 4 281 21 q 223 -13 251 -13 q 165 59 165 -13 l 165 794 q 223 867 165 867 q 281 794 281 867 l 281 673 l 414 673 m 410 262 q 474 267 440 262 q 538 289 508 272 q 587 339 568 305 q 606 431 606 373 q 587 517 606 486 q 538 563 568 548 q 474 581 508 577 q 410 585 440 585 l 281 585 l 281 262 l 410 262 z "},"Q":{"ha":860,"x_min":62,"x_max":797,"o":"m 678 -197 q 574 -172 628 -197 q 478 -105 519 -146 q 430 -15 438 -63 q 298 10 363 -15 q 179 86 233 34 q 94 223 126 138 q 62 427 62 307 q 94 631 62 547 q 179 767 126 715 q 298 844 233 819 q 430 868 363 868 q 561 844 496 868 q 679 767 626 819 q 765 631 733 715 q 797 427 797 547 q 758 208 797 297 q 659 70 720 120 q 528 2 598 19 q 563 -52 538 -30 q 621 -87 589 -74 q 680 -106 653 -100 q 719 -123 706 -111 q 732 -154 732 -134 q 716 -186 732 -176 q 678 -197 700 -197 m 183 427 q 217 230 183 308 q 309 114 252 152 q 430 76 365 76 q 550 114 494 76 q 641 230 606 152 q 676 427 676 308 q 641 624 676 546 q 550 739 606 701 q 430 777 494 777 q 309 739 365 777 q 217 624 252 701 q 183 427 183 546 z "},"R":{"ha":860,"x_min":144,"x_max":752,"o":"m 262 769 l 262 472 l 467 472 q 589 511 544 472 q 634 625 634 551 q 587 734 634 699 q 459 769 540 769 l 262 769 m 144 66 l 144 785 q 219 860 144 860 l 476 860 q 574 849 526 860 q 664 814 623 839 q 728 743 704 788 q 752 630 752 699 q 703 478 752 533 q 585 405 654 423 l 733 76 q 739 57 737 66 q 741 39 741 47 q 727 4 741 17 q 688 -9 713 -9 q 642 7 656 -9 q 615 55 628 24 l 472 381 l 262 381 l 262 66 q 203 -9 262 -9 q 144 66 144 -9 z "},"Ŕ":{"ha":860,"x_min":144,"x_max":752,"o":"m 262 769 l 262 472 l 467 472 q 589 511 544 472 q 634 625 634 551 q 587 734 634 699 q 459 769 540 769 l 262 769 m 144 66 l 144 785 q 219 860 144 860 l 476 860 q 574 849 526 860 q 664 814 623 839 q 728 743 704 788 q 752 630 752 699 q 703 478 752 533 q 585 405 654 423 l 733 76 q 739 57 737 66 q 741 39 741 47 q 727 4 741 17 q 688 -9 713 -9 q 642 7 656 -9 q 615 55 628 24 l 472 381 l 262 381 l 262 66 q 203 -9 262 -9 q 144 66 144 -9 m 397 919 q 380 925 388 919 q 372 940 372 930 q 394 985 372 955 l 453 1060 q 485 1093 471 1085 q 527 1102 499 1102 l 547 1102 q 572 1095 563 1102 q 581 1077 581 1088 q 563 1043 581 1061 l 478 958 q 438 929 457 939 q 397 919 418 919 z "},"Ř":{"ha":860,"x_min":144,"x_max":752,"o":"m 262 769 l 262 472 l 467 472 q 589 511 544 472 q 634 625 634 551 q 587 734 634 699 q 459 769 540 769 l 262 769 m 144 66 l 144 785 q 219 860 144 860 l 476 860 q 574 849 526 860 q 664 814 623 839 q 728 743 704 788 q 752 630 752 699 q 703 478 752 533 q 585 405 654 423 l 733 76 q 739 57 737 66 q 741 39 741 47 q 727 4 741 17 q 688 -9 713 -9 q 642 7 656 -9 q 615 55 628 24 l 472 381 l 262 381 l 262 66 q 203 -9 262 -9 q 144 66 144 -9 m 568 1021 l 503 955 q 466 923 483 933 q 424 912 449 912 q 383 923 400 912 q 346 955 365 933 l 281 1021 q 265 1053 265 1037 q 275 1077 265 1067 q 301 1086 285 1086 q 326 1078 316 1086 q 349 1056 337 1070 l 425 975 l 499 1056 q 522 1078 512 1069 q 548 1086 533 1086 q 575 1077 565 1086 q 585 1054 585 1068 q 581 1039 585 1047 q 568 1021 577 1030 z "},"Ŗ":{"ha":860,"x_min":144,"x_max":752,"o":"m 262 769 l 262 472 l 467 472 q 589 511 544 472 q 634 625 634 551 q 587 734 634 699 q 459 769 540 769 l 262 769 m 144 66 l 144 785 q 219 860 144 860 l 476 860 q 574 849 526 860 q 664 814 623 839 q 728 743 704 788 q 752 630 752 699 q 703 478 752 533 q 585 405 654 423 l 733 76 q 739 57 737 66 q 741 39 741 47 q 727 4 741 17 q 688 -9 713 -9 q 642 7 656 -9 q 615 55 628 24 l 472 381 l 262 381 l 262 66 q 203 -9 262 -9 q 144 66 144 -9 m 422 -60 q 467 -78 448 -60 q 487 -126 487 -96 q 474 -197 487 -153 q 419 -276 460 -240 q 401 -289 409 -285 q 385 -293 392 -293 q 377 -289 380 -293 q 374 -282 374 -285 q 380 -268 374 -276 q 398 -250 386 -260 q 420 -223 412 -238 q 433 -190 429 -207 q 427 -191 431 -191 q 422 -191 424 -191 q 375 -172 394 -191 q 356 -126 356 -153 q 375 -79 356 -99 q 422 -60 394 -60 z "},"Ȑ":{"ha":860,"x_min":144,"x_max":752,"o":"m 262 769 l 262 472 l 467 472 q 589 511 544 472 q 634 625 634 551 q 587 734 634 699 q 459 769 540 769 l 262 769 m 144 66 l 144 785 q 219 860 144 860 l 476 860 q 574 849 526 860 q 664 814 623 839 q 728 743 704 788 q 752 630 752 699 q 703 478 752 533 q 585 405 654 423 l 733 76 q 739 57 737 66 q 741 39 741 47 q 727 4 741 17 q 688 -9 713 -9 q 642 7 656 -9 q 615 55 628 24 l 472 381 l 262 381 l 262 66 q 203 -9 262 -9 q 144 66 144 -9 m 340 914 q 304 923 322 914 q 267 952 287 933 l 186 1037 q 173 1055 176 1047 q 169 1072 169 1064 q 177 1089 169 1083 q 199 1096 186 1096 l 217 1096 q 256 1087 242 1096 q 284 1055 269 1078 l 341 978 q 363 934 363 948 q 356 919 363 924 q 340 914 349 914 m 544 914 q 509 923 526 914 q 472 952 492 933 l 391 1037 q 374 1072 374 1055 q 383 1089 374 1083 q 404 1096 392 1096 l 422 1096 q 461 1087 448 1096 q 489 1055 474 1078 l 547 978 q 562 953 557 964 q 567 934 567 942 q 560 919 567 924 q 544 914 553 914 z "},"Ȓ":{"ha":860,"x_min":144,"x_max":752,"o":"m 262 769 l 262 472 l 467 472 q 589 511 544 472 q 634 625 634 551 q 587 734 634 699 q 459 769 540 769 l 262 769 m 144 66 l 144 785 q 219 860 144 860 l 476 860 q 574 849 526 860 q 664 814 623 839 q 728 743 704 788 q 752 630 752 699 q 703 478 752 533 q 585 405 654 423 l 733 76 q 739 57 737 66 q 741 39 741 47 q 727 4 741 17 q 688 -9 713 -9 q 642 7 656 -9 q 615 55 628 24 l 472 381 l 262 381 l 262 66 q 203 -9 262 -9 q 144 66 144 -9 m 541 920 q 510 932 519 920 q 497 963 500 944 q 477 1009 492 988 q 424 1031 461 1031 q 372 1009 388 1031 q 352 963 356 988 q 339 932 348 944 q 307 920 329 920 q 280 931 290 920 q 270 960 270 942 q 274 980 270 969 q 288 1000 278 990 q 335 1067 301 1039 q 423 1096 369 1096 q 515 1066 479 1096 q 565 996 550 1037 q 576 977 572 987 q 579 959 579 968 q 569 931 579 941 q 541 920 559 920 z "},"S":{"ha":860,"x_min":92,"x_max":767,"o":"m 431 -15 q 248 17 325 -15 q 125 99 170 49 q 92 163 92 127 q 106 196 92 181 q 143 211 119 211 q 180 201 164 211 q 210 174 196 190 q 298 105 243 133 q 433 76 352 76 q 538 94 489 76 q 616 144 586 111 q 647 222 647 176 q 587 326 647 288 q 413 394 527 364 q 187 493 260 433 q 114 651 114 553 q 158 768 114 719 q 275 842 202 817 q 437 868 349 868 q 593 840 522 868 q 707 762 665 811 q 731 734 722 749 q 739 701 739 719 q 725 667 739 680 q 690 654 710 654 q 654 666 670 654 q 626 692 638 678 q 551 753 600 728 q 433 777 501 777 q 335 762 381 777 q 263 719 290 747 q 235 653 235 692 q 289 559 235 594 q 453 492 343 523 q 625 430 555 465 q 731 347 695 396 q 767 228 767 299 q 722 98 767 152 q 601 14 677 43 q 431 -15 524 -15 z "},"Ś":{"ha":860,"x_min":92,"x_max":767,"o":"m 431 -15 q 248 17 325 -15 q 125 99 170 49 q 92 163 92 127 q 106 196 92 181 q 143 211 119 211 q 180 201 164 211 q 210 174 196 190 q 298 105 243 133 q 433 76 352 76 q 538 94 489 76 q 616 144 586 111 q 647 222 647 176 q 587 326 647 288 q 413 394 527 364 q 187 493 260 433 q 114 651 114 553 q 158 768 114 719 q 275 842 202 817 q 437 868 349 868 q 593 840 522 868 q 707 762 665 811 q 731 734 722 749 q 739 701 739 719 q 725 667 739 680 q 690 654 710 654 q 654 666 670 654 q 626 692 638 678 q 551 753 600 728 q 433 777 501 777 q 335 762 381 777 q 263 719 290 747 q 235 653 235 692 q 289 559 235 594 q 453 492 343 523 q 625 430 555 465 q 731 347 695 396 q 767 228 767 299 q 722 98 767 152 q 601 14 677 43 q 431 -15 524 -15 m 406 925 q 389 930 397 925 q 381 946 381 935 q 403 990 381 960 l 461 1066 q 493 1099 479 1090 q 535 1108 508 1108 l 556 1108 q 580 1101 571 1108 q 590 1083 590 1094 q 571 1049 590 1067 l 487 964 q 446 935 465 944 q 406 925 426 925 z "},"Š":{"ha":860,"x_min":92,"x_max":767,"o":"m 431 -15 q 248 17 325 -15 q 125 99 170 49 q 92 163 92 127 q 106 196 92 181 q 143 211 119 211 q 180 201 164 211 q 210 174 196 190 q 298 105 243 133 q 433 76 352 76 q 538 94 489 76 q 616 144 586 111 q 647 222 647 176 q 587 326 647 288 q 413 394 527 364 q 187 493 260 433 q 114 651 114 553 q 158 768 114 719 q 275 842 202 817 q 437 868 349 868 q 593 840 522 868 q 707 762 665 811 q 731 734 722 749 q 739 701 739 719 q 725 667 739 680 q 690 654 710 654 q 654 666 670 654 q 626 692 638 678 q 551 753 600 728 q 433 777 501 777 q 335 762 381 777 q 263 719 290 747 q 235 653 235 692 q 289 559 235 594 q 453 492 343 523 q 625 430 555 465 q 731 347 695 396 q 767 228 767 299 q 722 98 767 152 q 601 14 677 43 q 431 -15 524 -15 m 577 1026 l 512 960 q 475 928 492 939 q 433 917 458 917 q 392 928 409 917 q 355 960 374 939 l 290 1026 q 274 1058 274 1042 q 284 1082 274 1073 q 310 1092 294 1092 q 335 1084 325 1092 q 358 1062 346 1076 l 434 981 l 508 1061 q 531 1083 521 1075 q 557 1092 542 1092 q 584 1083 574 1092 q 594 1060 594 1074 q 590 1044 594 1053 q 577 1026 586 1035 z "},"Ş":{"ha":860,"x_min":92,"x_max":767,"o":"m 408 -303 q 374 -301 390 -303 q 343 -295 357 -299 q 303 -260 303 -283 q 313 -237 303 -245 q 338 -230 322 -230 q 364 -233 349 -230 q 388 -236 374 -235 q 416 -237 402 -237 q 498 -221 465 -237 q 531 -172 531 -204 q 519 -143 531 -152 q 487 -134 506 -134 q 451 -137 467 -134 q 424 -145 436 -140 q 403 -151 413 -149 q 382 -153 393 -153 q 358 -145 367 -153 q 350 -124 350 -137 q 352 -111 350 -119 q 356 -97 353 -104 l 385 -12 q 230 24 296 -6 q 125 99 165 54 q 92 163 92 127 q 106 196 92 181 q 143 211 119 211 q 180 201 164 211 q 210 174 196 190 q 298 105 243 133 q 433 76 352 76 q 538 94 489 76 q 616 144 586 111 q 647 222 647 176 q 587 326 647 288 q 413 394 527 364 q 187 493 260 433 q 114 651 114 553 q 158 768 114 719 q 275 842 202 817 q 437 868 349 868 q 593 840 522 868 q 707 762 665 811 q 731 734 722 749 q 739 701 739 719 q 725 667 739 680 q 690 654 710 654 q 654 666 670 654 q 626 692 638 678 q 551 753 600 728 q 433 777 501 777 q 335 762 381 777 q 263 719 290 747 q 235 653 235 692 q 289 559 235 594 q 453 492 343 523 q 625 430 555 465 q 731 347 695 396 q 767 228 767 299 q 726 102 767 156 q 614 19 684 49 q 457 -14 544 -10 l 428 -103 q 469 -84 446 -91 q 517 -78 492 -78 q 568 -86 544 -78 q 608 -115 592 -95 q 624 -165 624 -134 q 593 -241 624 -210 q 515 -287 563 -272 q 408 -303 466 -303 z "},"Ŝ":{"ha":860,"x_min":92,"x_max":767,"o":"m 431 -15 q 248 17 325 -15 q 125 99 170 49 q 92 163 92 127 q 106 196 92 181 q 143 211 119 211 q 180 201 164 211 q 210 174 196 190 q 298 105 243 133 q 433 76 352 76 q 538 94 489 76 q 616 144 586 111 q 647 222 647 176 q 587 326 647 288 q 413 394 527 364 q 187 493 260 433 q 114 651 114 553 q 158 768 114 719 q 275 842 202 817 q 437 868 349 868 q 593 840 522 868 q 707 762 665 811 q 731 734 722 749 q 739 701 739 719 q 725 667 739 680 q 690 654 710 654 q 654 666 670 654 q 626 692 638 678 q 551 753 600 728 q 433 777 501 777 q 335 762 381 777 q 263 719 290 747 q 235 653 235 692 q 289 559 235 594 q 453 492 343 523 q 625 430 555 465 q 731 347 695 396 q 767 228 767 299 q 722 98 767 152 q 601 14 677 43 q 431 -15 524 -15 m 578 984 q 594 951 594 967 q 584 928 594 937 q 557 919 574 919 q 532 927 542 919 q 509 949 522 935 l 434 1030 l 358 949 q 336 927 346 934 q 310 919 326 919 q 284 928 294 919 q 274 952 274 938 q 278 967 274 959 q 290 984 282 976 l 355 1050 q 392 1082 374 1072 q 433 1092 410 1092 q 475 1082 458 1092 q 513 1050 492 1072 l 578 984 z "},"Ș":{"ha":860,"x_min":92,"x_max":767,"o":"m 431 -15 q 248 17 325 -15 q 125 99 170 49 q 92 163 92 127 q 106 196 92 181 q 143 211 119 211 q 180 201 164 211 q 210 174 196 190 q 298 105 243 133 q 433 76 352 76 q 538 94 489 76 q 616 144 586 111 q 647 222 647 176 q 587 326 647 288 q 413 394 527 364 q 187 493 260 433 q 114 651 114 553 q 158 768 114 719 q 275 842 202 817 q 437 868 349 868 q 593 840 522 868 q 707 762 665 811 q 731 734 722 749 q 739 701 739 719 q 725 667 739 680 q 690 654 710 654 q 654 666 670 654 q 626 692 638 678 q 551 753 600 728 q 433 777 501 777 q 335 762 381 777 q 263 719 290 747 q 235 653 235 692 q 289 559 235 594 q 453 492 343 523 q 625 430 555 465 q 731 347 695 396 q 767 228 767 299 q 722 98 767 152 q 601 14 677 43 q 431 -15 524 -15 m 459 -60 q 505 -78 485 -60 q 524 -126 524 -97 q 511 -197 524 -154 q 456 -276 498 -240 q 438 -290 447 -285 q 423 -294 430 -294 q 414 -290 417 -294 q 411 -283 411 -286 q 417 -269 411 -277 q 435 -251 424 -260 q 458 -223 449 -239 q 470 -191 467 -208 q 465 -192 469 -192 q 459 -192 461 -192 q 412 -173 431 -192 q 393 -126 393 -154 q 412 -80 393 -99 q 459 -60 431 -60 z "},"ẞ":{"ha":860,"x_min":115,"x_max":763,"o":"m 540 494 q 556 466 540 478 q 597 439 572 453 q 649 410 620 428 q 703 365 677 392 q 746 299 729 338 q 763 209 763 261 q 722 83 763 133 q 613 9 681 33 q 463 -15 544 -15 q 385 -8 424 -15 q 322 13 347 -2 q 297 54 297 28 q 303 79 297 70 q 320 91 310 88 q 341 94 331 94 q 383 89 361 94 q 417 83 398 86 q 463 81 435 81 q 555 91 510 81 q 627 130 599 101 q 655 210 655 158 q 630 290 655 257 q 570 346 604 324 q 511 381 537 368 q 453 422 479 397 q 426 485 426 448 q 445 550 426 526 q 486 596 465 574 q 533 644 509 619 q 572 691 556 668 q 588 735 588 715 q 575 764 588 758 q 542 771 561 771 l 366 771 q 288 760 319 771 q 241 712 256 749 q 226 599 226 676 l 226 75 q 170 0 226 0 q 115 75 115 0 l 115 609 q 131 733 115 685 q 177 810 147 782 q 249 849 207 838 q 344 860 292 860 l 603 860 q 681 836 652 860 q 710 763 710 813 q 691 693 710 727 q 643 628 672 660 q 588 569 615 597 q 555 530 569 548 q 540 494 540 512 z "},"T":{"ha":860,"x_min":91,"x_max":769,"o":"m 694 860 q 769 815 769 860 q 752 782 769 794 q 703 769 735 769 l 488 769 l 488 66 q 429 -9 488 -9 q 371 66 371 -9 l 371 769 l 166 769 q 110 782 129 769 q 91 815 91 794 q 110 848 91 837 q 166 860 129 860 l 694 860 z "},"Ŧ":{"ha":860,"x_min":91,"x_max":769,"o":"m 192 463 q 215 493 192 483 q 278 504 237 504 l 584 504 q 649 493 626 504 q 671 463 671 483 q 649 433 671 444 q 584 423 626 423 l 278 423 q 215 433 237 423 q 192 463 192 443 m 694 860 q 769 815 769 860 q 752 782 769 794 q 703 769 735 769 l 488 769 l 488 66 q 429 -9 488 -9 q 371 66 371 -9 l 371 769 l 166 769 q 110 782 129 769 q 91 815 91 794 q 110 848 91 837 q 166 860 129 860 l 694 860 z "},"Ť":{"ha":860,"x_min":91,"x_max":769,"o":"m 694 860 q 769 815 769 860 q 752 782 769 794 q 703 769 735 769 l 488 769 l 488 66 q 429 -9 488 -9 q 371 66 371 -9 l 371 769 l 166 769 q 110 782 129 769 q 91 815 91 794 q 110 848 91 837 q 166 860 129 860 l 694 860 m 574 1021 l 509 955 q 472 923 489 933 q 431 912 455 912 q 389 923 406 912 q 352 955 372 933 l 287 1021 q 272 1053 272 1037 q 281 1077 272 1067 q 307 1086 291 1086 q 333 1078 322 1086 q 355 1056 343 1070 l 431 975 l 506 1056 q 528 1078 518 1069 q 554 1086 539 1086 q 581 1077 571 1086 q 591 1054 591 1068 q 587 1039 591 1047 q 574 1021 583 1030 z "},"Ţ":{"ha":860,"x_min":91,"x_max":769,"o":"m 694 860 q 769 815 769 860 q 752 782 769 794 q 703 769 735 769 l 488 769 l 488 66 q 429 -9 488 -9 q 371 66 371 -9 l 371 769 l 166 769 q 110 782 129 769 q 91 815 91 794 q 110 848 91 837 q 166 860 129 860 l 694 860 m 413 -292 q 378 -290 395 -292 q 348 -284 362 -288 q 308 -249 308 -272 q 318 -226 308 -234 q 342 -219 327 -219 q 369 -223 353 -219 q 393 -226 378 -225 q 421 -227 407 -227 q 503 -210 469 -227 q 536 -161 536 -193 q 523 -132 536 -141 q 491 -124 510 -124 q 456 -126 471 -124 q 428 -134 441 -129 q 408 -141 418 -138 q 387 -143 398 -143 q 363 -135 371 -143 q 355 -113 355 -127 q 357 -100 355 -108 q 360 -87 358 -93 l 397 20 q 438 45 406 45 q 460 39 451 45 q 468 19 468 33 l 433 -92 q 474 -74 451 -81 q 522 -67 497 -67 q 573 -76 549 -67 q 612 -104 597 -85 q 628 -153 628 -123 q 598 -231 628 -200 q 519 -277 568 -262 q 413 -292 471 -292 z "},"Ț":{"ha":860,"x_min":91,"x_max":769,"o":"m 694 860 q 769 815 769 860 q 752 782 769 794 q 703 769 735 769 l 488 769 l 488 66 q 429 -9 488 -9 q 371 66 371 -9 l 371 769 l 166 769 q 110 782 129 769 q 91 815 91 794 q 110 848 91 837 q 166 860 129 860 l 694 860 m 464 -49 q 510 -67 490 -49 q 529 -115 529 -85 q 516 -186 529 -143 q 461 -265 503 -229 q 443 -278 451 -274 q 428 -283 435 -283 q 419 -279 422 -283 q 416 -272 416 -275 q 422 -258 416 -266 q 440 -240 428 -249 q 463 -212 454 -228 q 475 -180 472 -197 q 470 -181 474 -181 q 464 -181 466 -181 q 417 -162 436 -181 q 398 -115 398 -143 q 417 -69 398 -88 q 464 -49 436 -49 z "},"U":{"ha":860,"x_min":99,"x_max":761,"o":"m 431 -15 q 263 25 338 -15 q 143 148 188 64 q 99 368 99 233 l 99 785 q 157 860 99 860 q 216 785 216 860 l 216 375 q 274 153 216 229 q 431 76 331 76 q 587 153 531 76 q 644 375 644 229 l 644 785 q 703 860 644 860 q 761 785 761 860 l 761 368 q 717 148 761 233 q 598 25 673 64 q 431 -15 524 -15 z "},"Ú":{"ha":860,"x_min":99,"x_max":761,"o":"m 431 -15 q 263 25 338 -15 q 143 148 188 64 q 99 368 99 233 l 99 785 q 157 860 99 860 q 216 785 216 860 l 216 375 q 274 153 216 229 q 431 76 331 76 q 587 153 531 76 q 644 375 644 229 l 644 785 q 703 860 644 860 q 761 785 761 860 l 761 368 q 717 148 761 233 q 598 25 673 64 q 431 -15 524 -15 m 401 919 q 384 925 392 919 q 376 940 376 930 q 399 985 376 955 l 457 1060 q 489 1093 475 1085 q 531 1102 503 1102 l 551 1102 q 576 1095 567 1102 q 585 1077 585 1088 q 567 1043 585 1061 l 483 958 q 442 929 461 939 q 401 919 422 919 z "},"Ŭ":{"ha":860,"x_min":99,"x_max":761,"o":"m 431 -15 q 263 25 338 -15 q 143 148 188 64 q 99 368 99 233 l 99 785 q 157 860 99 860 q 216 785 216 860 l 216 375 q 274 153 216 229 q 431 76 331 76 q 587 153 531 76 q 644 375 644 229 l 644 785 q 703 860 644 860 q 761 785 761 860 l 761 368 q 717 148 761 233 q 598 25 673 64 q 431 -15 524 -15 m 545 1098 q 573 1087 563 1098 q 583 1058 583 1076 q 580 1041 583 1051 q 569 1022 576 1031 q 519 952 554 981 q 427 922 483 922 q 339 951 373 922 q 292 1018 306 979 q 278 1038 282 1028 q 274 1058 274 1049 q 284 1087 274 1076 q 311 1098 294 1098 q 343 1086 333 1098 q 356 1055 352 1074 q 376 1009 360 1031 q 428 987 392 987 q 481 1009 465 987 q 501 1055 497 1031 q 514 1086 504 1074 q 545 1098 524 1098 z "},"Ǔ":{"ha":860,"x_min":99,"x_max":761,"o":"m 431 -15 q 263 25 338 -15 q 143 148 188 64 q 99 368 99 233 l 99 785 q 157 860 99 860 q 216 785 216 860 l 216 375 q 274 153 216 229 q 431 76 331 76 q 587 153 531 76 q 644 375 644 229 l 644 785 q 703 860 644 860 q 761 785 761 860 l 761 368 q 717 148 761 233 q 598 25 673 64 q 431 -15 524 -15 m 572 1021 l 507 955 q 470 923 487 933 q 428 912 453 912 q 387 923 404 912 q 350 955 369 933 l 285 1021 q 269 1053 269 1037 q 279 1077 269 1067 q 305 1086 289 1086 q 331 1078 320 1086 q 353 1056 341 1070 l 429 975 l 503 1056 q 526 1078 516 1069 q 552 1086 537 1086 q 579 1077 569 1086 q 589 1054 589 1068 q 585 1039 589 1047 q 572 1021 581 1030 z "},"Û":{"ha":860,"x_min":99,"x_max":761,"o":"m 431 -15 q 263 25 338 -15 q 143 148 188 64 q 99 368 99 233 l 99 785 q 157 860 99 860 q 216 785 216 860 l 216 375 q 274 153 216 229 q 431 76 331 76 q 587 153 531 76 q 644 375 644 229 l 644 785 q 703 860 644 860 q 761 785 761 860 l 761 368 q 717 148 761 233 q 598 25 673 64 q 431 -15 524 -15 m 573 978 q 590 946 590 961 q 579 923 590 931 q 552 914 569 914 q 527 922 538 914 q 504 943 517 930 l 429 1024 l 353 943 q 331 921 341 928 q 306 914 321 914 q 280 923 290 914 q 269 947 269 932 q 273 962 269 953 q 285 978 277 970 l 350 1044 q 387 1076 369 1066 q 428 1087 405 1087 q 470 1077 453 1087 q 508 1044 488 1067 l 573 978 z "},"Ȕ":{"ha":860,"x_min":99,"x_max":761,"o":"m 431 -15 q 263 25 338 -15 q 143 148 188 64 q 99 368 99 233 l 99 785 q 157 860 99 860 q 216 785 216 860 l 216 375 q 274 153 216 229 q 431 76 331 76 q 587 153 531 76 q 644 375 644 229 l 644 785 q 703 860 644 860 q 761 785 761 860 l 761 368 q 717 148 761 233 q 598 25 673 64 q 431 -15 524 -15 m 344 914 q 308 923 326 914 q 272 952 291 933 l 190 1037 q 177 1055 181 1047 q 173 1072 173 1064 q 182 1089 173 1083 q 203 1096 190 1096 l 222 1096 q 260 1087 247 1096 q 288 1055 273 1078 l 345 978 q 367 934 367 948 q 360 919 367 924 q 344 914 353 914 m 549 914 q 513 923 531 914 q 476 952 496 933 l 395 1037 q 378 1072 378 1055 q 387 1089 378 1083 q 408 1096 396 1096 l 426 1096 q 465 1087 452 1096 q 493 1055 478 1078 l 551 978 q 566 953 561 964 q 571 934 571 942 q 564 919 571 924 q 549 914 558 914 z "},"Ü":{"ha":860,"x_min":99,"x_max":761,"o":"m 431 -15 q 263 25 338 -15 q 143 148 188 64 q 99 368 99 233 l 99 785 q 157 860 99 860 q 216 785 216 860 l 216 375 q 274 153 216 229 q 431 76 331 76 q 587 153 531 76 q 644 375 644 229 l 644 785 q 703 860 644 860 q 761 785 761 860 l 761 368 q 717 148 761 233 q 598 25 673 64 q 431 -15 524 -15 m 293 942 q 235 966 259 942 q 212 1024 212 990 q 235 1083 212 1059 q 293 1107 259 1107 q 351 1083 327 1107 q 374 1024 374 1059 q 351 966 374 990 q 293 942 327 942 m 565 942 q 507 966 531 942 q 483 1024 483 990 q 507 1083 483 1059 q 565 1107 531 1107 q 623 1083 599 1107 q 647 1024 647 1059 q 623 966 647 990 q 565 942 599 942 z "},"Ǘ":{"ha":860,"x_min":99,"x_max":761,"o":"m 431 -15 q 263 25 338 -15 q 143 148 188 64 q 99 368 99 233 l 99 785 q 157 860 99 860 q 216 785 216 860 l 216 375 q 274 153 216 229 q 431 76 331 76 q 587 153 531 76 q 644 375 644 229 l 644 785 q 703 860 644 860 q 761 785 761 860 l 761 368 q 717 148 761 233 q 598 25 673 64 q 431 -15 524 -15 m 293 942 q 235 966 259 942 q 212 1024 212 990 q 235 1083 212 1059 q 293 1107 259 1107 q 351 1083 327 1107 q 374 1024 374 1059 q 351 966 374 990 q 293 942 327 942 m 565 942 q 507 966 531 942 q 483 1024 483 990 q 507 1083 483 1059 q 565 1107 531 1107 q 623 1083 599 1107 q 647 1024 647 1059 q 623 966 647 990 q 565 942 599 942 m 401 1166 q 384 1171 392 1166 q 376 1187 376 1176 q 399 1231 376 1201 l 457 1307 q 489 1340 475 1331 q 531 1349 503 1349 l 551 1349 q 576 1342 567 1349 q 585 1324 585 1335 q 567 1290 585 1308 l 483 1205 q 442 1176 461 1185 q 401 1166 422 1166 z "},"Ǚ":{"ha":860,"x_min":99,"x_max":761,"o":"m 431 -15 q 263 25 338 -15 q 143 148 188 64 q 99 368 99 233 l 99 785 q 157 860 99 860 q 216 785 216 860 l 216 375 q 274 153 216 229 q 431 76 331 76 q 587 153 531 76 q 644 375 644 229 l 644 785 q 703 860 644 860 q 761 785 761 860 l 761 368 q 717 148 761 233 q 598 25 673 64 q 431 -15 524 -15 m 293 942 q 235 966 259 942 q 212 1024 212 990 q 235 1083 212 1059 q 293 1107 259 1107 q 351 1083 327 1107 q 374 1024 374 1059 q 351 966 374 990 q 293 942 327 942 m 565 942 q 507 966 531 942 q 483 1024 483 990 q 507 1083 483 1059 q 565 1107 531 1107 q 623 1083 599 1107 q 647 1024 647 1059 q 623 966 647 990 q 565 942 599 942 m 572 1267 l 507 1201 q 470 1169 487 1180 q 428 1158 453 1158 q 387 1169 404 1158 q 350 1201 369 1180 l 285 1267 q 269 1299 269 1283 q 279 1323 269 1314 q 305 1333 289 1333 q 331 1325 320 1333 q 353 1303 341 1317 l 429 1222 l 503 1302 q 526 1324 516 1316 q 552 1333 537 1333 q 579 1324 569 1333 q 589 1301 589 1315 q 585 1285 589 1294 q 572 1267 581 1276 z "},"Ǜ":{"ha":860,"x_min":99,"x_max":761,"o":"m 431 -15 q 263 25 338 -15 q 143 148 188 64 q 99 368 99 233 l 99 785 q 157 860 99 860 q 216 785 216 860 l 216 375 q 274 153 216 229 q 431 76 331 76 q 587 153 531 76 q 644 375 644 229 l 644 785 q 703 860 644 860 q 761 785 761 860 l 761 368 q 717 148 761 233 q 598 25 673 64 q 431 -15 524 -15 m 293 942 q 235 966 259 942 q 212 1024 212 990 q 235 1083 212 1059 q 293 1107 259 1107 q 351 1083 327 1107 q 374 1024 374 1059 q 351 966 374 990 q 293 942 327 942 m 565 942 q 507 966 531 942 q 483 1024 483 990 q 507 1083 483 1059 q 565 1107 531 1107 q 623 1083 599 1107 q 647 1024 647 1059 q 623 966 647 990 q 565 942 599 942 m 465 1163 q 425 1172 444 1163 q 383 1201 405 1181 l 299 1285 q 281 1319 281 1303 q 290 1338 281 1331 q 315 1344 300 1344 l 335 1344 q 377 1336 363 1344 q 409 1303 392 1327 l 467 1226 q 490 1183 490 1197 q 482 1167 490 1172 q 465 1163 474 1163 z "},"Ǖ":{"ha":860,"x_min":99,"x_max":761,"o":"m 431 -15 q 263 25 338 -15 q 143 148 188 64 q 99 368 99 233 l 99 785 q 157 860 99 860 q 216 785 216 860 l 216 375 q 274 153 216 229 q 431 76 331 76 q 587 153 531 76 q 644 375 644 229 l 644 785 q 703 860 644 860 q 761 785 761 860 l 761 368 q 717 148 761 233 q 598 25 673 64 q 431 -15 524 -15 m 293 942 q 235 966 259 942 q 212 1024 212 990 q 235 1083 212 1059 q 293 1107 259 1107 q 351 1083 327 1107 q 374 1024 374 1059 q 351 966 374 990 q 293 942 327 942 m 565 942 q 507 966 531 942 q 483 1024 483 990 q 507 1083 483 1059 q 565 1107 531 1107 q 623 1083 599 1107 q 647 1024 647 1059 q 623 966 647 990 q 565 942 599 942 m 185 1233 q 201 1261 185 1251 q 253 1271 218 1271 l 604 1271 q 656 1261 640 1271 q 672 1233 672 1251 q 656 1205 672 1215 q 604 1194 640 1194 l 253 1194 q 201 1205 218 1194 q 185 1233 185 1215 z "},"Ụ":{"ha":860,"x_min":99,"x_max":761,"o":"m 431 -15 q 263 25 338 -15 q 143 148 188 64 q 99 368 99 233 l 99 785 q 157 860 99 860 q 216 785 216 860 l 216 375 q 274 153 216 229 q 431 76 331 76 q 587 153 531 76 q 644 375 644 229 l 644 785 q 703 860 644 860 q 761 785 761 860 l 761 368 q 717 148 761 233 q 598 25 673 64 q 431 -15 524 -15 m 429 -246 q 371 -222 394 -246 q 347 -163 347 -198 q 371 -106 347 -129 q 429 -82 394 -82 q 486 -106 463 -82 q 510 -163 510 -129 q 486 -223 510 -199 q 429 -246 463 -246 z "},"Ù":{"ha":860,"x_min":99,"x_max":761,"o":"m 431 -15 q 263 25 338 -15 q 143 148 188 64 q 99 368 99 233 l 99 785 q 157 860 99 860 q 216 785 216 860 l 216 375 q 274 153 216 229 q 431 76 331 76 q 587 153 531 76 q 644 375 644 229 l 644 785 q 703 860 644 860 q 761 785 761 860 l 761 368 q 717 148 761 233 q 598 25 673 64 q 431 -15 524 -15 m 465 916 q 425 925 444 916 q 383 954 405 935 l 299 1039 q 281 1073 281 1057 q 290 1091 281 1085 q 315 1098 300 1098 l 335 1098 q 377 1089 363 1098 q 409 1056 392 1081 l 467 980 q 490 936 490 951 q 482 921 490 926 q 465 916 474 916 z "},"Ủ":{"ha":860,"x_min":99,"x_max":761,"o":"m 431 -15 q 263 25 338 -15 q 143 148 188 64 q 99 368 99 233 l 99 785 q 157 860 99 860 q 216 785 216 860 l 216 375 q 274 153 216 229 q 431 76 331 76 q 587 153 531 76 q 644 375 644 229 l 644 785 q 703 860 644 860 q 761 785 761 860 l 761 368 q 717 148 761 233 q 598 25 673 64 q 431 -15 524 -15 m 399 918 q 370 927 381 918 q 360 949 360 935 q 370 972 360 963 q 399 981 380 981 q 466 989 434 981 q 497 1024 497 997 q 467 1054 497 1048 q 405 1060 438 1060 q 367 1058 383 1060 q 335 1053 350 1057 q 322 1051 328 1052 q 310 1051 315 1051 q 292 1057 299 1051 q 285 1074 285 1063 q 320 1112 285 1099 q 406 1124 355 1124 q 487 1116 449 1124 q 549 1085 525 1107 q 573 1022 573 1063 q 544 959 573 982 q 474 927 515 937 q 399 918 434 918 z "},"Ư":{"ha":860,"x_min":99,"x_max":963,"o":"m 431 -15 q 264 23 339 -15 q 144 144 189 61 q 99 363 99 228 l 99 785 q 158 860 99 860 q 217 785 217 860 l 217 370 q 274 150 217 224 q 431 76 332 76 q 588 150 531 76 q 644 370 644 224 l 644 785 q 703 860 644 860 q 793 881 760 860 q 842 940 825 903 q 866 1021 858 976 q 882 1061 871 1046 q 916 1076 893 1076 q 952 1062 940 1076 q 963 1017 963 1047 q 941 916 963 968 q 877 830 919 865 q 774 794 835 794 l 762 794 l 762 363 q 718 144 762 228 q 599 23 674 61 q 431 -15 524 -15 z "},"Ứ":{"ha":860,"x_min":99,"x_max":963,"o":"m 431 -15 q 264 23 339 -15 q 144 144 189 61 q 99 363 99 228 l 99 785 q 158 860 99 860 q 217 785 217 860 l 217 370 q 274 150 217 224 q 431 76 332 76 q 588 150 531 76 q 644 370 644 224 l 644 785 q 703 860 644 860 q 793 881 760 860 q 842 940 825 903 q 866 1021 858 976 q 882 1061 871 1046 q 916 1076 893 1076 q 952 1062 940 1076 q 963 1017 963 1047 q 941 916 963 968 q 877 830 919 865 q 774 794 835 794 l 762 794 l 762 363 q 718 144 762 228 q 599 23 674 61 q 431 -15 524 -15 m 396 919 q 379 925 387 919 q 371 940 371 930 q 393 985 371 955 l 451 1060 q 484 1093 469 1085 q 526 1102 498 1102 l 546 1102 q 570 1095 561 1102 q 580 1077 580 1088 q 561 1043 580 1061 l 477 958 q 436 929 456 939 q 396 919 417 919 z "},"Ự":{"ha":860,"x_min":99,"x_max":963,"o":"m 431 -15 q 264 23 339 -15 q 144 144 189 61 q 99 363 99 228 l 99 785 q 158 860 99 860 q 217 785 217 860 l 217 370 q 274 150 217 224 q 431 76 332 76 q 588 150 531 76 q 644 370 644 224 l 644 785 q 703 860 644 860 q 793 881 760 860 q 842 940 825 903 q 866 1021 858 976 q 882 1061 871 1046 q 916 1076 893 1076 q 952 1062 940 1076 q 963 1017 963 1047 q 941 916 963 968 q 877 830 919 865 q 774 794 835 794 l 762 794 l 762 363 q 718 144 762 228 q 599 23 674 61 q 431 -15 524 -15 m 424 -246 q 365 -222 389 -246 q 342 -163 342 -198 q 365 -106 342 -129 q 424 -82 389 -82 q 481 -106 457 -82 q 505 -163 505 -129 q 481 -223 505 -199 q 424 -246 457 -246 z "},"Ừ":{"ha":860,"x_min":99,"x_max":963,"o":"m 431 -15 q 264 23 339 -15 q 144 144 189 61 q 99 363 99 228 l 99 785 q 158 860 99 860 q 217 785 217 860 l 217 370 q 274 150 217 224 q 431 76 332 76 q 588 150 531 76 q 644 370 644 224 l 644 785 q 703 860 644 860 q 793 881 760 860 q 842 940 825 903 q 866 1021 858 976 q 882 1061 871 1046 q 916 1076 893 1076 q 952 1062 940 1076 q 963 1017 963 1047 q 941 916 963 968 q 877 830 919 865 q 774 794 835 794 l 762 794 l 762 363 q 718 144 762 228 q 599 23 674 61 q 431 -15 524 -15 m 459 916 q 419 925 439 916 q 378 954 399 935 l 294 1039 q 275 1073 275 1057 q 285 1091 275 1085 q 309 1098 294 1098 l 329 1098 q 372 1089 357 1098 q 403 1056 386 1081 l 462 980 q 484 936 484 951 q 476 921 484 926 q 459 916 469 916 z "},"Ử":{"ha":860,"x_min":99,"x_max":963,"o":"m 431 -15 q 264 23 339 -15 q 144 144 189 61 q 99 363 99 228 l 99 785 q 158 860 99 860 q 217 785 217 860 l 217 370 q 274 150 217 224 q 431 76 332 76 q 588 150 531 76 q 644 370 644 224 l 644 785 q 703 860 644 860 q 793 881 760 860 q 842 940 825 903 q 866 1021 858 976 q 882 1061 871 1046 q 916 1076 893 1076 q 952 1062 940 1076 q 963 1017 963 1047 q 941 916 963 968 q 877 830 919 865 q 774 794 835 794 l 762 794 l 762 363 q 718 144 762 228 q 599 23 674 61 q 431 -15 524 -15 m 393 918 q 365 927 375 918 q 355 949 355 935 q 365 972 355 963 q 393 981 374 981 q 460 989 428 981 q 492 1024 492 997 q 462 1054 492 1048 q 399 1060 432 1060 q 361 1058 378 1060 q 330 1053 344 1057 q 316 1051 322 1052 q 305 1051 310 1051 q 286 1057 293 1051 q 279 1074 279 1063 q 314 1112 279 1099 q 400 1124 349 1124 q 482 1116 444 1124 q 543 1085 519 1107 q 567 1022 567 1063 q 538 959 567 982 q 469 927 509 937 q 393 918 428 918 z "},"Ữ":{"ha":860,"x_min":99,"x_max":963,"o":"m 431 -15 q 264 23 339 -15 q 144 144 189 61 q 99 363 99 228 l 99 785 q 158 860 99 860 q 217 785 217 860 l 217 370 q 274 150 217 224 q 431 76 332 76 q 588 150 531 76 q 644 370 644 224 l 644 785 q 703 860 644 860 q 793 881 760 860 q 842 940 825 903 q 866 1021 858 976 q 882 1061 871 1046 q 916 1076 893 1076 q 952 1062 940 1076 q 963 1017 963 1047 q 941 916 963 968 q 877 830 919 865 q 774 794 835 794 l 762 794 l 762 363 q 718 144 762 228 q 599 23 674 61 q 431 -15 524 -15 m 498 928 q 447 940 465 928 q 411 965 428 951 q 384 985 397 978 q 351 992 372 992 q 313 985 330 992 q 284 968 297 978 q 266 957 275 961 q 251 952 258 952 q 233 961 241 952 q 226 983 226 970 q 253 1030 226 1006 q 295 1057 270 1044 q 349 1069 320 1069 q 400 1058 382 1069 q 434 1033 418 1048 q 461 1011 448 1019 q 496 1003 474 1003 q 532 1010 517 1003 q 558 1027 547 1017 q 576 1041 567 1035 q 595 1046 585 1046 q 615 1038 606 1046 q 624 1015 624 1031 q 613 987 624 999 q 568 949 599 970 q 498 928 538 928 z "},"Ű":{"ha":860,"x_min":99,"x_max":761,"o":"m 431 -15 q 263 25 338 -15 q 143 148 188 64 q 99 368 99 233 l 99 785 q 157 860 99 860 q 216 785 216 860 l 216 375 q 274 153 216 229 q 431 76 331 76 q 587 153 531 76 q 644 375 644 229 l 644 785 q 703 860 644 860 q 761 785 761 860 l 761 368 q 717 148 761 233 q 598 25 673 64 q 431 -15 524 -15 m 467 967 l 513 1056 q 535 1089 525 1080 q 565 1098 546 1098 l 592 1098 q 609 1093 602 1098 q 615 1078 615 1088 q 601 1043 615 1063 l 538 954 q 510 923 522 933 q 483 913 498 913 q 466 919 473 913 q 458 938 458 926 q 467 967 458 949 m 273 967 l 319 1056 q 342 1089 331 1080 q 372 1098 352 1098 l 399 1098 q 415 1093 408 1098 q 422 1078 422 1088 q 406 1043 422 1063 l 344 954 q 316 923 328 933 q 289 913 304 913 q 272 919 279 913 q 265 938 265 926 q 273 967 265 949 z "},"Ȗ":{"ha":860,"x_min":99,"x_max":761,"o":"m 431 -15 q 263 25 338 -15 q 143 148 188 64 q 99 368 99 233 l 99 785 q 157 860 99 860 q 216 785 216 860 l 216 375 q 274 153 216 229 q 431 76 331 76 q 587 153 531 76 q 644 375 644 229 l 644 785 q 703 860 644 860 q 761 785 761 860 l 761 368 q 717 148 761 233 q 598 25 673 64 q 431 -15 524 -15 m 545 920 q 514 932 524 920 q 501 963 504 944 q 481 1009 497 988 q 428 1031 465 1031 q 376 1009 392 1031 q 356 963 360 988 q 343 932 352 944 q 311 920 333 920 q 284 931 294 920 q 274 960 274 942 q 278 980 274 969 q 292 1000 282 990 q 339 1067 306 1039 q 427 1096 373 1096 q 519 1066 483 1096 q 569 996 554 1037 q 580 977 576 987 q 583 959 583 968 q 573 931 583 941 q 545 920 563 920 z "},"Ū":{"ha":860,"x_min":99,"x_max":761,"o":"m 431 -15 q 263 25 338 -15 q 143 148 188 64 q 99 368 99 233 l 99 785 q 157 860 99 860 q 216 785 216 860 l 216 375 q 274 153 216 229 q 431 76 331 76 q 587 153 531 76 q 644 375 644 229 l 644 785 q 703 860 644 860 q 761 785 761 860 l 761 368 q 717 148 761 233 q 598 25 673 64 q 431 -15 524 -15 m 185 986 q 201 1014 185 1004 q 253 1024 218 1024 l 604 1024 q 656 1014 640 1024 q 672 986 672 1004 q 656 958 672 968 q 604 948 640 948 l 253 948 q 201 958 218 948 q 185 986 185 968 z "},"Ų":{"ha":860,"x_min":99,"x_max":761,"o":"m 605 -281 q 525 -268 563 -281 q 464 -227 488 -255 q 441 -154 441 -199 q 454 -89 441 -122 q 487 -28 467 -56 q 528 17 507 -1 q 566 35 549 34 l 620 35 q 584 -3 604 26 q 550 -67 565 -31 q 535 -135 535 -103 q 557 -187 535 -172 q 609 -203 578 -203 q 631 -202 619 -203 q 651 -199 642 -201 q 667 -197 660 -197 q 679 -196 674 -196 q 707 -205 698 -196 q 716 -230 716 -215 q 681 -269 716 -258 q 605 -281 647 -281 m 431 -15 q 263 25 338 -15 q 143 148 188 64 q 99 368 99 233 l 99 785 q 157 860 99 860 q 216 785 216 860 l 216 375 q 274 153 216 229 q 431 76 331 76 q 587 153 531 76 q 644 375 644 229 l 644 785 q 703 860 644 860 q 761 785 761 860 l 761 368 q 717 148 761 233 q 598 25 673 64 q 431 -15 524 -15 z "},"Ů":{"ha":860,"x_min":99,"x_max":761,"o":"m 431 -15 q 263 25 338 -15 q 143 148 188 64 q 99 368 99 233 l 99 785 q 157 860 99 860 q 216 785 216 860 l 216 375 q 274 153 216 229 q 431 76 331 76 q 587 153 531 76 q 644 375 644 229 l 644 785 q 703 860 644 860 q 761 785 761 860 l 761 368 q 717 148 761 233 q 598 25 673 64 q 431 -15 524 -15 m 431 906 q 347 940 382 906 q 312 1023 312 973 q 328 1081 312 1055 q 371 1123 344 1107 q 431 1139 398 1139 q 488 1123 461 1139 q 530 1081 514 1107 q 546 1023 546 1055 q 511 940 546 973 q 431 906 477 906 m 431 969 q 468 984 452 969 q 483 1024 483 999 q 468 1059 483 1045 q 431 1074 452 1074 q 392 1059 408 1074 q 376 1024 376 1045 q 392 984 376 999 q 431 969 408 969 z "},"Ũ":{"ha":860,"x_min":99,"x_max":761,"o":"m 431 -15 q 263 25 338 -15 q 143 148 188 64 q 99 368 99 233 l 99 785 q 157 860 99 860 q 216 785 216 860 l 216 375 q 274 153 216 229 q 431 76 331 76 q 587 153 531 76 q 644 375 644 229 l 644 785 q 703 860 644 860 q 761 785 761 860 l 761 368 q 717 148 761 233 q 598 25 673 64 q 431 -15 524 -15 m 503 928 q 452 940 471 928 q 417 965 433 951 q 390 985 402 978 q 356 992 377 992 q 319 985 335 992 q 290 968 302 978 q 272 957 281 961 q 257 952 263 952 q 239 961 247 952 q 231 983 231 970 q 258 1030 231 1006 q 301 1057 276 1044 q 355 1069 326 1069 q 406 1058 388 1069 q 440 1033 424 1048 q 466 1011 453 1019 q 501 1003 479 1003 q 537 1010 522 1003 q 563 1027 552 1017 q 582 1041 572 1035 q 601 1046 591 1046 q 621 1038 612 1046 q 630 1015 630 1031 q 619 987 630 999 q 574 949 604 970 q 503 928 544 928 z "},"V":{"ha":860,"x_min":85,"x_max":777,"o":"m 438 -5 l 424 -5 q 366 11 388 -5 q 333 60 343 28 l 91 783 q 87 799 89 791 q 85 813 85 808 q 103 853 85 840 q 144 867 120 867 q 186 850 173 867 q 208 801 199 833 l 431 99 l 656 801 q 679 850 665 833 q 722 867 692 867 q 762 852 747 867 q 777 812 777 838 q 776 799 777 806 q 772 783 774 791 l 530 60 q 497 11 519 28 q 438 -5 474 -5 z "},"W":{"ha":860,"x_min":58,"x_max":803,"o":"m 217 -13 q 165 5 183 -13 q 143 58 148 22 q 135 115 141 72 q 122 222 130 158 q 106 360 115 286 q 89 507 97 433 q 73 644 80 581 q 63 750 67 707 q 58 803 58 792 q 74 851 58 835 q 115 867 89 867 q 157 849 144 867 q 174 795 171 831 l 231 197 l 358 738 q 385 788 366 772 q 431 804 405 804 q 476 788 456 804 q 503 738 496 772 l 630 201 l 687 795 q 705 849 690 831 q 749 867 719 867 q 789 851 775 867 q 803 803 803 835 q 799 752 803 794 q 787 648 794 710 q 772 511 780 585 q 755 363 763 437 q 738 224 746 288 q 725 115 730 159 q 718 58 719 72 q 695 5 713 24 q 644 -13 678 -13 l 641 -13 q 584 4 607 -13 q 553 55 560 21 l 431 608 l 308 55 q 277 4 300 21 q 221 -13 255 -13 l 217 -13 z "},"Ẃ":{"ha":860,"x_min":58,"x_max":803,"o":"m 217 -13 q 165 5 183 -13 q 143 58 148 22 q 135 115 141 72 q 122 222 130 158 q 106 360 115 286 q 89 507 97 433 q 73 644 80 581 q 63 750 67 707 q 58 803 58 792 q 74 851 58 835 q 115 867 89 867 q 157 849 144 867 q 174 795 171 831 l 231 197 l 358 738 q 385 788 366 772 q 431 804 405 804 q 476 788 456 804 q 503 738 496 772 l 630 201 l 687 795 q 705 849 690 831 q 749 867 719 867 q 789 851 775 867 q 803 803 803 835 q 799 752 803 794 q 787 648 794 710 q 772 511 780 585 q 755 363 763 437 q 738 224 746 288 q 725 115 730 159 q 718 58 719 72 q 695 5 713 24 q 644 -13 678 -13 l 641 -13 q 584 4 607 -13 q 553 55 560 21 l 431 608 l 308 55 q 277 4 300 21 q 221 -13 255 -13 l 217 -13 m 403 919 q 386 925 394 919 q 378 940 378 930 q 401 985 378 955 l 459 1060 q 491 1093 477 1085 q 533 1102 506 1102 l 553 1102 q 578 1095 569 1102 q 588 1077 588 1088 q 569 1043 588 1061 l 485 958 q 444 929 463 939 q 403 919 424 919 z "},"Ŵ":{"ha":860,"x_min":58,"x_max":803,"o":"m 217 -13 q 165 5 183 -13 q 143 58 148 22 q 135 115 141 72 q 122 222 130 158 q 106 360 115 286 q 89 507 97 433 q 73 644 80 581 q 63 750 67 707 q 58 803 58 792 q 74 851 58 835 q 115 867 89 867 q 157 849 144 867 q 174 795 171 831 l 231 197 l 358 738 q 385 788 366 772 q 431 804 405 804 q 476 788 456 804 q 503 738 496 772 l 630 201 l 687 795 q 705 849 690 831 q 749 867 719 867 q 789 851 775 867 q 803 803 803 835 q 799 752 803 794 q 787 648 794 710 q 772 511 780 585 q 755 363 763 437 q 738 224 746 288 q 725 115 730 159 q 718 58 719 72 q 695 5 713 24 q 644 -13 678 -13 l 641 -13 q 584 4 607 -13 q 553 55 560 21 l 431 608 l 308 55 q 277 4 300 21 q 221 -13 255 -13 l 217 -13 m 575 978 q 592 946 592 961 q 581 923 592 931 q 554 914 571 914 q 529 922 540 914 q 506 943 519 930 l 431 1024 l 356 943 q 333 921 343 928 q 308 914 323 914 q 282 923 292 914 q 272 947 272 932 q 275 962 272 953 q 287 978 279 970 l 352 1044 q 389 1076 372 1066 q 431 1087 407 1087 q 472 1077 455 1087 q 510 1044 490 1067 l 575 978 z "},"Ẅ":{"ha":860,"x_min":58,"x_max":803,"o":"m 217 -13 q 165 5 183 -13 q 143 58 148 22 q 135 115 141 72 q 122 222 130 158 q 106 360 115 286 q 89 507 97 433 q 73 644 80 581 q 63 750 67 707 q 58 803 58 792 q 74 851 58 835 q 115 867 89 867 q 157 849 144 867 q 174 795 171 831 l 231 197 l 358 738 q 385 788 366 772 q 431 804 405 804 q 476 788 456 804 q 503 738 496 772 l 630 201 l 687 795 q 705 849 690 831 q 749 867 719 867 q 789 851 775 867 q 803 803 803 835 q 799 752 803 794 q 787 648 794 710 q 772 511 780 585 q 755 363 763 437 q 738 224 746 288 q 725 115 730 159 q 718 58 719 72 q 695 5 713 24 q 644 -13 678 -13 l 641 -13 q 584 4 607 -13 q 553 55 560 21 l 431 608 l 308 55 q 277 4 300 21 q 221 -13 255 -13 l 217 -13 m 295 942 q 238 966 261 942 q 214 1024 214 990 q 238 1083 214 1059 q 295 1107 261 1107 q 353 1083 329 1107 q 376 1024 376 1059 q 353 966 376 990 q 295 942 329 942 m 567 942 q 509 966 533 942 q 485 1024 485 990 q 509 1083 485 1059 q 567 1107 533 1107 q 625 1083 601 1107 q 649 1024 649 1059 q 625 966 649 990 q 567 942 601 942 z "},"Ẁ":{"ha":860,"x_min":58,"x_max":803,"o":"m 217 -13 q 165 5 183 -13 q 143 58 148 22 q 135 115 141 72 q 122 222 130 158 q 106 360 115 286 q 89 507 97 433 q 73 644 80 581 q 63 750 67 707 q 58 803 58 792 q 74 851 58 835 q 115 867 89 867 q 157 849 144 867 q 174 795 171 831 l 231 197 l 358 738 q 385 788 366 772 q 431 804 405 804 q 476 788 456 804 q 503 738 496 772 l 630 201 l 687 795 q 705 849 690 831 q 749 867 719 867 q 789 851 775 867 q 803 803 803 835 q 799 752 803 794 q 787 648 794 710 q 772 511 780 585 q 755 363 763 437 q 738 224 746 288 q 725 115 730 159 q 718 58 719 72 q 695 5 713 24 q 644 -13 678 -13 l 641 -13 q 584 4 607 -13 q 553 55 560 21 l 431 608 l 308 55 q 277 4 300 21 q 221 -13 255 -13 l 217 -13 m 467 916 q 427 925 447 916 q 385 954 407 935 l 301 1039 q 283 1073 283 1057 q 292 1091 283 1085 q 317 1098 302 1098 l 337 1098 q 379 1089 365 1098 q 411 1056 394 1081 l 469 980 q 492 936 492 951 q 484 921 492 926 q 467 916 476 916 z "},"X":{"ha":860,"x_min":108,"x_max":741,"o":"m 165 -13 q 126 0 140 -13 q 113 33 113 13 q 116 53 113 42 q 128 76 119 63 l 358 422 l 119 785 q 110 804 113 795 q 108 822 108 813 q 125 856 108 844 q 163 867 141 867 q 191 861 180 867 q 211 843 201 856 q 233 811 220 831 l 424 511 l 616 811 q 649 855 635 842 q 689 867 663 867 q 726 856 711 867 q 741 822 741 845 q 729 785 741 803 l 491 425 l 720 76 q 733 51 729 63 q 737 31 737 40 q 722 -1 737 10 q 683 -13 706 -13 q 644 1 658 -13 q 615 40 631 15 l 424 335 l 233 40 q 203 0 216 14 q 165 -13 190 -13 z "},"Y":{"ha":860,"x_min":108,"x_max":746,"o":"m 426 -13 q 368 60 368 -13 l 368 337 q 338 375 353 349 l 119 775 q 108 818 108 796 q 120 853 108 838 q 160 869 133 869 q 196 855 183 869 q 224 811 209 842 l 426 427 l 629 812 q 658 855 644 842 q 695 869 672 869 q 734 853 722 869 q 746 819 746 838 q 742 797 746 808 q 733 776 739 785 l 514 375 q 500 353 507 363 q 485 338 494 344 l 485 60 q 426 -13 485 -13 z "},"Ý":{"ha":860,"x_min":108,"x_max":746,"o":"m 426 -13 q 368 60 368 -13 l 368 337 q 338 375 353 349 l 119 775 q 108 818 108 796 q 120 853 108 838 q 160 869 133 869 q 196 855 183 869 q 224 811 209 842 l 426 427 l 629 812 q 658 855 644 842 q 695 869 672 869 q 734 853 722 869 q 746 819 746 838 q 742 797 746 808 q 733 776 739 785 l 514 375 q 500 353 507 363 q 485 338 494 344 l 485 60 q 426 -13 485 -13 m 394 919 q 377 925 385 919 q 369 940 369 930 q 392 985 369 955 l 450 1060 q 482 1093 468 1085 q 524 1102 497 1102 l 544 1102 q 569 1095 560 1102 q 578 1077 578 1088 q 560 1043 578 1061 l 476 958 q 435 929 454 939 q 394 919 415 919 z "},"Ŷ":{"ha":860,"x_min":108,"x_max":746,"o":"m 426 -13 q 368 60 368 -13 l 368 337 q 338 375 353 349 l 119 775 q 108 818 108 796 q 120 853 108 838 q 160 869 133 869 q 196 855 183 869 q 224 811 209 842 l 426 427 l 629 812 q 658 855 644 842 q 695 869 672 869 q 734 853 722 869 q 746 819 746 838 q 742 797 746 808 q 733 776 739 785 l 514 375 q 500 353 507 363 q 485 338 494 344 l 485 60 q 426 -13 485 -13 m 567 978 q 583 946 583 961 q 573 923 583 931 q 546 914 563 914 q 521 922 531 914 q 498 943 510 930 l 423 1024 l 347 943 q 325 921 335 928 q 299 914 315 914 q 273 923 283 914 q 263 947 263 932 q 267 962 263 953 q 278 978 271 970 l 344 1044 q 381 1076 363 1066 q 422 1087 399 1087 q 464 1077 447 1087 q 501 1044 481 1067 l 567 978 z "},"Ÿ":{"ha":860,"x_min":108,"x_max":746,"o":"m 426 -13 q 368 60 368 -13 l 368 337 q 338 375 353 349 l 119 775 q 108 818 108 796 q 120 853 108 838 q 160 869 133 869 q 196 855 183 869 q 224 811 209 842 l 426 427 l 629 812 q 658 855 644 842 q 695 869 672 869 q 734 853 722 869 q 746 819 746 838 q 742 797 746 808 q 733 776 739 785 l 514 375 q 500 353 507 363 q 485 338 494 344 l 485 60 q 426 -13 485 -13 m 286 942 q 228 966 252 942 q 205 1024 205 990 q 228 1083 205 1059 q 286 1107 252 1107 q 344 1083 320 1107 q 367 1024 367 1059 q 344 966 367 990 q 286 942 320 942 m 558 942 q 500 966 524 942 q 476 1024 476 990 q 500 1083 476 1059 q 558 1107 524 1107 q 616 1083 592 1107 q 640 1024 640 1059 q 616 966 640 990 q 558 942 592 942 z "},"Ỵ":{"ha":860,"x_min":108,"x_max":746,"o":"m 426 -13 q 368 60 368 -13 l 368 337 q 338 375 353 349 l 119 775 q 108 818 108 796 q 120 853 108 838 q 160 869 133 869 q 196 855 183 869 q 224 811 209 842 l 426 427 l 629 812 q 658 855 644 842 q 695 869 672 869 q 734 853 722 869 q 746 819 746 838 q 742 797 746 808 q 733 776 739 785 l 514 375 q 500 353 507 363 q 485 338 494 344 l 485 60 q 426 -13 485 -13 m 403 -246 q 345 -222 369 -246 q 322 -163 322 -198 q 345 -106 322 -129 q 403 -82 369 -82 q 461 -106 437 -82 q 485 -163 485 -129 q 461 -223 485 -199 q 403 -246 437 -246 z "},"Ỳ":{"ha":860,"x_min":108,"x_max":746,"o":"m 426 -13 q 368 60 368 -13 l 368 337 q 338 375 353 349 l 119 775 q 108 818 108 796 q 120 853 108 838 q 160 869 133 869 q 196 855 183 869 q 224 811 209 842 l 426 427 l 629 812 q 658 855 644 842 q 695 869 672 869 q 734 853 722 869 q 746 819 746 838 q 742 797 746 808 q 733 776 739 785 l 514 375 q 500 353 507 363 q 485 338 494 344 l 485 60 q 426 -13 485 -13 m 458 916 q 418 925 438 916 q 376 954 398 935 l 292 1039 q 274 1073 274 1057 q 283 1091 274 1085 q 308 1098 293 1098 l 328 1098 q 370 1089 356 1098 q 402 1056 385 1081 l 460 980 q 483 936 483 951 q 475 921 483 926 q 458 916 467 916 z "},"Ỷ":{"ha":860,"x_min":108,"x_max":746,"o":"m 426 -13 q 368 60 368 -13 l 368 337 q 338 375 353 349 l 119 775 q 108 818 108 796 q 120 853 108 838 q 160 869 133 869 q 196 855 183 869 q 224 811 209 842 l 426 427 l 629 812 q 658 855 644 842 q 695 869 672 869 q 734 853 722 869 q 746 819 746 838 q 742 797 746 808 q 733 776 739 785 l 514 375 q 500 353 507 363 q 485 338 494 344 l 485 60 q 426 -13 485 -13 m 392 918 q 364 927 374 918 q 353 949 353 935 q 363 972 353 963 q 392 981 373 981 q 459 989 427 981 q 490 1024 490 997 q 460 1054 490 1048 q 398 1060 431 1060 q 360 1058 376 1060 q 328 1053 343 1057 q 315 1051 321 1052 q 303 1051 308 1051 q 285 1057 292 1051 q 278 1074 278 1063 q 313 1112 278 1099 q 399 1124 348 1124 q 480 1116 442 1124 q 542 1085 518 1107 q 566 1022 566 1063 q 537 959 566 982 q 467 927 508 937 q 392 918 427 918 z "},"Ȳ":{"ha":860,"x_min":108,"x_max":746,"o":"m 426 -13 q 368 60 368 -13 l 368 337 q 338 375 353 349 l 119 775 q 108 818 108 796 q 120 853 108 838 q 160 869 133 869 q 196 855 183 869 q 224 811 209 842 l 426 427 l 629 812 q 658 855 644 842 q 695 869 672 869 q 734 853 722 869 q 746 819 746 838 q 742 797 746 808 q 733 776 739 785 l 514 375 q 500 353 507 363 q 485 338 494 344 l 485 60 q 426 -13 485 -13 m 178 986 q 194 1014 178 1004 q 246 1024 211 1024 l 597 1024 q 649 1014 633 1024 q 665 986 665 1004 q 649 958 665 968 q 597 948 633 948 l 246 948 q 194 958 211 948 q 178 986 178 968 z "},"Ỹ":{"ha":860,"x_min":108,"x_max":746,"o":"m 426 -13 q 368 60 368 -13 l 368 337 q 338 375 353 349 l 119 775 q 108 818 108 796 q 120 853 108 838 q 160 869 133 869 q 196 855 183 869 q 224 811 209 842 l 426 427 l 629 812 q 658 855 644 842 q 695 869 672 869 q 734 853 722 869 q 746 819 746 838 q 742 797 746 808 q 733 776 739 785 l 514 375 q 500 353 507 363 q 485 338 494 344 l 485 60 q 426 -13 485 -13 m 497 928 q 445 940 464 928 q 410 965 426 951 q 383 985 395 978 q 349 992 370 992 q 312 985 328 992 q 283 968 295 978 q 265 957 274 961 q 250 952 256 952 q 232 961 240 952 q 224 983 224 970 q 251 1030 224 1006 q 294 1057 269 1044 q 348 1069 319 1069 q 399 1058 381 1069 q 433 1033 417 1048 q 459 1011 447 1019 q 494 1003 472 1003 q 530 1010 515 1003 q 556 1027 545 1017 q 575 1041 565 1035 q 594 1046 584 1046 q 614 1038 605 1046 q 623 1015 623 1031 q 612 987 623 999 q 567 949 597 970 q 497 928 537 928 z "},"Z":{"ha":860,"x_min":132,"x_max":720,"o":"m 256 90 l 644 90 q 701 78 681 90 q 720 44 720 67 q 701 12 720 24 q 644 0 681 0 l 207 0 q 151 17 170 0 q 132 64 132 34 q 139 96 132 83 q 160 132 145 109 l 581 769 l 217 769 q 161 782 181 769 q 142 815 142 794 q 161 848 142 837 q 217 860 181 860 l 630 860 q 686 843 667 860 q 705 796 705 826 q 698 765 705 778 q 676 728 692 751 l 256 90 z "},"Ź":{"ha":860,"x_min":132,"x_max":720,"o":"m 256 90 l 644 90 q 701 78 681 90 q 720 44 720 67 q 701 12 720 24 q 644 0 681 0 l 207 0 q 151 17 170 0 q 132 64 132 34 q 139 96 132 83 q 160 132 145 109 l 581 769 l 217 769 q 161 782 181 769 q 142 815 142 794 q 161 848 142 837 q 217 860 181 860 l 630 860 q 686 843 667 860 q 705 796 705 826 q 698 765 705 778 q 676 728 692 751 l 256 90 m 397 919 q 380 925 388 919 q 372 940 372 930 q 394 985 372 955 l 452 1060 q 484 1093 470 1085 q 526 1102 499 1102 l 547 1102 q 571 1095 562 1102 q 581 1077 581 1088 q 562 1043 581 1061 l 478 958 q 437 929 456 939 q 397 919 417 919 z "},"Ž":{"ha":860,"x_min":132,"x_max":720,"o":"m 256 90 l 644 90 q 701 78 681 90 q 720 44 720 67 q 701 12 720 24 q 644 0 681 0 l 207 0 q 151 17 170 0 q 132 64 132 34 q 139 96 132 83 q 160 132 145 109 l 581 769 l 217 769 q 161 782 181 769 q 142 815 142 794 q 161 848 142 837 q 217 860 181 860 l 630 860 q 686 843 667 860 q 705 796 705 826 q 698 765 705 778 q 676 728 692 751 l 256 90 m 568 1021 l 503 955 q 466 923 483 933 q 424 912 449 912 q 383 923 400 912 q 346 955 365 933 l 281 1021 q 265 1053 265 1037 q 275 1077 265 1067 q 301 1086 285 1086 q 326 1078 316 1086 q 349 1056 337 1070 l 425 975 l 499 1056 q 522 1078 512 1069 q 548 1086 533 1086 q 575 1077 565 1086 q 585 1054 585 1068 q 581 1039 585 1047 q 568 1021 577 1030 z "},"Ż":{"ha":860,"x_min":132,"x_max":720,"o":"m 256 90 l 644 90 q 701 78 681 90 q 720 44 720 67 q 701 12 720 24 q 644 0 681 0 l 207 0 q 151 17 170 0 q 132 64 132 34 q 139 96 132 83 q 160 132 145 109 l 581 769 l 217 769 q 161 782 181 769 q 142 815 142 794 q 161 848 142 837 q 217 860 181 860 l 630 860 q 686 843 667 860 q 705 796 705 826 q 698 765 705 778 q 676 728 692 751 l 256 90 m 424 947 q 367 971 390 947 q 343 1029 343 995 q 367 1087 343 1063 q 424 1111 390 1111 q 482 1087 458 1111 q 506 1029 506 1063 q 482 971 506 995 q 424 947 458 947 z "},"a":{"ha":860,"x_min":84,"x_max":801,"o":"m 648 -2 q 599 12 614 -2 q 582 52 585 26 l 579 89 q 536 45 567 69 q 458 5 505 22 q 350 -12 411 -12 q 214 11 274 -12 q 119 83 153 35 q 84 200 84 130 q 122 314 84 267 q 226 385 160 360 q 376 410 292 410 q 461 401 420 410 q 534 380 503 392 q 578 358 565 367 l 578 457 q 560 519 578 494 q 515 559 543 544 q 452 581 486 574 q 383 587 417 587 q 292 576 338 587 q 215 551 247 565 q 195 545 205 547 q 178 544 185 544 q 141 555 156 544 q 127 585 127 565 q 141 614 127 603 q 175 635 155 626 q 270 664 211 651 q 397 677 328 677 q 501 666 450 677 q 594 630 552 654 q 662 567 637 606 q 687 474 687 528 l 687 88 l 748 88 q 788 76 774 88 q 801 44 801 65 q 786 11 801 24 q 733 -2 770 -2 l 648 -2 m 578 270 q 532 297 564 283 q 460 320 499 310 q 385 329 421 329 q 247 299 299 329 q 194 202 194 268 q 216 126 194 155 q 277 85 238 97 q 366 72 316 72 q 460 92 416 72 q 535 140 503 113 q 578 188 566 167 l 578 270 z "},"á":{"ha":860,"x_min":84,"x_max":801,"o":"m 648 -2 q 599 12 614 -2 q 582 52 585 26 l 579 89 q 536 45 567 69 q 458 5 505 22 q 350 -12 411 -12 q 214 11 274 -12 q 119 83 153 35 q 84 200 84 130 q 122 314 84 267 q 226 385 160 360 q 376 410 292 410 q 461 401 420 410 q 534 380 503 392 q 578 358 565 367 l 578 457 q 560 519 578 494 q 515 559 543 544 q 452 581 486 574 q 383 587 417 587 q 292 576 338 587 q 215 551 247 565 q 195 545 205 547 q 178 544 185 544 q 141 555 156 544 q 127 585 127 565 q 141 614 127 603 q 175 635 155 626 q 270 664 211 651 q 397 677 328 677 q 501 666 450 677 q 594 630 552 654 q 662 567 637 606 q 687 474 687 528 l 687 88 l 748 88 q 788 76 774 88 q 801 44 801 65 q 786 11 801 24 q 733 -2 770 -2 l 648 -2 m 578 270 q 532 297 564 283 q 460 320 499 310 q 385 329 421 329 q 247 299 299 329 q 194 202 194 268 q 216 126 194 155 q 277 85 238 97 q 366 72 316 72 q 460 92 416 72 q 535 140 503 113 q 578 188 566 167 l 578 270 m 354 758 q 339 762 347 758 q 331 777 331 766 q 351 822 331 792 l 408 898 q 438 932 424 924 q 481 940 453 940 l 496 940 q 520 933 511 940 q 529 915 529 926 q 510 880 529 898 l 417 788 q 384 765 399 772 q 354 758 368 758 z "},"ă":{"ha":860,"x_min":84,"x_max":801,"o":"m 648 -2 q 599 12 614 -2 q 582 52 585 26 l 579 89 q 536 45 567 69 q 458 5 505 22 q 350 -12 411 -12 q 214 11 274 -12 q 119 83 153 35 q 84 200 84 130 q 122 314 84 267 q 226 385 160 360 q 376 410 292 410 q 461 401 420 410 q 534 380 503 392 q 578 358 565 367 l 578 457 q 560 519 578 494 q 515 559 543 544 q 452 581 486 574 q 383 587 417 587 q 292 576 338 587 q 215 551 247 565 q 195 545 205 547 q 178 544 185 544 q 141 555 156 544 q 127 585 127 565 q 141 614 127 603 q 175 635 155 626 q 270 664 211 651 q 397 677 328 677 q 501 666 450 677 q 594 630 552 654 q 662 567 637 606 q 687 474 687 528 l 687 88 l 748 88 q 788 76 774 88 q 801 44 801 65 q 786 11 801 24 q 733 -2 770 -2 l 648 -2 m 578 270 q 532 297 564 283 q 460 320 499 310 q 385 329 421 329 q 247 299 299 329 q 194 202 194 268 q 216 126 194 155 q 277 85 238 97 q 366 72 316 72 q 460 92 416 72 q 535 140 503 113 q 578 188 566 167 l 578 270 m 547 936 q 575 926 565 936 q 585 897 585 915 q 581 880 585 889 q 570 860 578 870 q 520 791 556 820 q 428 761 485 761 q 341 789 374 761 q 293 857 307 817 q 280 877 283 867 q 276 897 276 888 q 286 925 276 915 q 313 936 296 936 q 344 924 335 936 q 358 894 353 913 q 378 848 362 869 q 430 826 394 826 q 482 848 467 826 q 502 893 498 869 q 515 924 506 912 q 547 936 525 936 z "},"ắ":{"ha":860,"x_min":84,"x_max":801,"o":"m 648 -2 q 599 12 614 -2 q 582 52 585 26 l 579 89 q 536 45 567 69 q 458 5 505 22 q 350 -12 411 -12 q 214 11 274 -12 q 119 83 153 35 q 84 200 84 130 q 122 314 84 267 q 226 385 160 360 q 376 410 292 410 q 461 401 420 410 q 534 380 503 392 q 578 358 565 367 l 578 457 q 560 519 578 494 q 515 559 543 544 q 452 581 486 574 q 383 587 417 587 q 292 576 338 587 q 215 551 247 565 q 195 545 205 547 q 178 544 185 544 q 141 555 156 544 q 127 585 127 565 q 141 614 127 603 q 175 635 155 626 q 270 664 211 651 q 397 677 328 677 q 501 666 450 677 q 594 630 552 654 q 662 567 637 606 q 687 474 687 528 l 687 88 l 748 88 q 788 76 774 88 q 801 44 801 65 q 786 11 801 24 q 733 -2 770 -2 l 648 -2 m 578 270 q 532 297 564 283 q 460 320 499 310 q 385 329 421 329 q 247 299 299 329 q 194 202 194 268 q 216 126 194 155 q 277 85 238 97 q 366 72 316 72 q 460 92 416 72 q 535 140 503 113 q 578 188 566 167 l 578 270 m 547 936 q 575 926 565 936 q 585 897 585 915 q 581 880 585 889 q 570 860 578 870 q 520 791 556 820 q 428 761 485 761 q 341 789 374 761 q 293 857 307 817 q 280 877 283 867 q 276 897 276 888 q 286 925 276 915 q 313 936 296 936 q 344 924 335 936 q 358 894 353 913 q 378 848 362 869 q 430 826 394 826 q 482 848 467 826 q 502 893 498 869 q 515 924 506 912 q 547 936 525 936 m 354 1033 q 339 1037 347 1033 q 331 1052 331 1041 q 351 1097 331 1067 l 408 1173 q 438 1207 424 1199 q 481 1215 453 1215 l 496 1215 q 520 1208 511 1215 q 529 1190 529 1201 q 510 1155 529 1173 l 417 1063 q 384 1040 399 1047 q 354 1033 368 1033 z "},"ặ":{"ha":860,"x_min":84,"x_max":801,"o":"m 648 -2 q 599 12 614 -2 q 582 52 585 26 l 579 89 q 536 45 567 69 q 458 5 505 22 q 350 -12 411 -12 q 214 11 274 -12 q 119 83 153 35 q 84 200 84 130 q 122 314 84 267 q 226 385 160 360 q 376 410 292 410 q 461 401 420 410 q 534 380 503 392 q 578 358 565 367 l 578 457 q 560 519 578 494 q 515 559 543 544 q 452 581 486 574 q 383 587 417 587 q 292 576 338 587 q 215 551 247 565 q 195 545 205 547 q 178 544 185 544 q 141 555 156 544 q 127 585 127 565 q 141 614 127 603 q 175 635 155 626 q 270 664 211 651 q 397 677 328 677 q 501 666 450 677 q 594 630 552 654 q 662 567 637 606 q 687 474 687 528 l 687 88 l 748 88 q 788 76 774 88 q 801 44 801 65 q 786 11 801 24 q 733 -2 770 -2 l 648 -2 m 578 270 q 532 297 564 283 q 460 320 499 310 q 385 329 421 329 q 247 299 299 329 q 194 202 194 268 q 216 126 194 155 q 277 85 238 97 q 366 72 316 72 q 460 92 416 72 q 535 140 503 113 q 578 188 566 167 l 578 270 m 431 -246 q 372 -222 396 -246 q 349 -163 349 -198 q 372 -106 349 -129 q 431 -82 396 -82 q 488 -106 464 -82 q 512 -163 512 -129 q 488 -223 512 -199 q 431 -246 464 -246 m 547 936 q 575 926 565 936 q 585 897 585 915 q 581 880 585 889 q 570 860 578 870 q 520 791 556 820 q 428 761 485 761 q 341 789 374 761 q 293 857 307 817 q 280 877 283 867 q 276 897 276 888 q 286 925 276 915 q 313 936 296 936 q 344 924 335 936 q 358 894 353 913 q 378 848 362 869 q 430 826 394 826 q 482 848 467 826 q 502 893 498 869 q 515 924 506 912 q 547 936 525 936 z "},"ằ":{"ha":860,"x_min":84,"x_max":801,"o":"m 648 -2 q 599 12 614 -2 q 582 52 585 26 l 579 89 q 536 45 567 69 q 458 5 505 22 q 350 -12 411 -12 q 214 11 274 -12 q 119 83 153 35 q 84 200 84 130 q 122 314 84 267 q 226 385 160 360 q 376 410 292 410 q 461 401 420 410 q 534 380 503 392 q 578 358 565 367 l 578 457 q 560 519 578 494 q 515 559 543 544 q 452 581 486 574 q 383 587 417 587 q 292 576 338 587 q 215 551 247 565 q 195 545 205 547 q 178 544 185 544 q 141 555 156 544 q 127 585 127 565 q 141 614 127 603 q 175 635 155 626 q 270 664 211 651 q 397 677 328 677 q 501 666 450 677 q 594 630 552 654 q 662 567 637 606 q 687 474 687 528 l 687 88 l 748 88 q 788 76 774 88 q 801 44 801 65 q 786 11 801 24 q 733 -2 770 -2 l 648 -2 m 578 270 q 532 297 564 283 q 460 320 499 310 q 385 329 421 329 q 247 299 299 329 q 194 202 194 268 q 216 126 194 155 q 277 85 238 97 q 366 72 316 72 q 460 92 416 72 q 535 140 503 113 q 578 188 566 167 l 578 270 m 547 936 q 575 926 565 936 q 585 897 585 915 q 581 880 585 889 q 570 860 578 870 q 520 791 556 820 q 428 761 485 761 q 341 789 374 761 q 293 857 307 817 q 280 877 283 867 q 276 897 276 888 q 286 925 276 915 q 313 936 296 936 q 344 924 335 936 q 358 894 353 913 q 378 848 362 869 q 430 826 394 826 q 482 848 467 826 q 502 893 498 869 q 515 924 506 912 q 547 936 525 936 m 446 1033 q 417 1039 433 1033 q 383 1063 401 1046 l 291 1155 q 272 1190 272 1174 q 281 1208 272 1201 q 304 1215 290 1215 l 320 1215 q 363 1207 348 1215 q 393 1173 378 1199 l 450 1097 q 470 1052 470 1067 q 462 1037 470 1041 q 446 1033 454 1033 z "},"ẳ":{"ha":860,"x_min":84,"x_max":801,"o":"m 648 -2 q 599 12 614 -2 q 582 52 585 26 l 579 89 q 536 45 567 69 q 458 5 505 22 q 350 -12 411 -12 q 214 11 274 -12 q 119 83 153 35 q 84 200 84 130 q 122 314 84 267 q 226 385 160 360 q 376 410 292 410 q 461 401 420 410 q 534 380 503 392 q 578 358 565 367 l 578 457 q 560 519 578 494 q 515 559 543 544 q 452 581 486 574 q 383 587 417 587 q 292 576 338 587 q 215 551 247 565 q 195 545 205 547 q 178 544 185 544 q 141 555 156 544 q 127 585 127 565 q 141 614 127 603 q 175 635 155 626 q 270 664 211 651 q 397 677 328 677 q 501 666 450 677 q 594 630 552 654 q 662 567 637 606 q 687 474 687 528 l 687 88 l 748 88 q 788 76 774 88 q 801 44 801 65 q 786 11 801 24 q 733 -2 770 -2 l 648 -2 m 578 270 q 532 297 564 283 q 460 320 499 310 q 385 329 421 329 q 247 299 299 329 q 194 202 194 268 q 216 126 194 155 q 277 85 238 97 q 366 72 316 72 q 460 92 416 72 q 535 140 503 113 q 578 188 566 167 l 578 270 m 547 936 q 575 926 565 936 q 585 897 585 915 q 581 880 585 889 q 570 860 578 870 q 520 791 556 820 q 428 761 485 761 q 341 789 374 761 q 293 857 307 817 q 280 877 283 867 q 276 897 276 888 q 286 925 276 915 q 313 936 296 936 q 344 924 335 936 q 358 894 353 913 q 378 848 362 869 q 430 826 394 826 q 482 848 467 826 q 502 893 498 869 q 515 924 506 912 q 547 936 525 936 m 400 1025 q 362 1053 362 1025 q 372 1075 362 1067 q 400 1083 381 1083 q 468 1092 435 1083 q 501 1128 501 1101 q 471 1159 501 1151 q 409 1166 442 1166 q 370 1164 388 1166 q 340 1158 353 1161 q 324 1155 333 1156 q 310 1154 315 1154 q 294 1159 301 1154 q 286 1178 286 1165 q 321 1213 286 1201 q 407 1225 356 1225 q 488 1217 451 1225 q 548 1187 525 1208 q 572 1126 572 1166 q 543 1064 572 1086 q 475 1033 515 1042 q 400 1025 435 1025 z "},"ẵ":{"ha":860,"x_min":84,"x_max":801,"o":"m 648 -2 q 599 12 614 -2 q 582 52 585 26 l 579 89 q 536 45 567 69 q 458 5 505 22 q 350 -12 411 -12 q 214 11 274 -12 q 119 83 153 35 q 84 200 84 130 q 122 314 84 267 q 226 385 160 360 q 376 410 292 410 q 461 401 420 410 q 534 380 503 392 q 578 358 565 367 l 578 457 q 560 519 578 494 q 515 559 543 544 q 452 581 486 574 q 383 587 417 587 q 292 576 338 587 q 215 551 247 565 q 195 545 205 547 q 178 544 185 544 q 141 555 156 544 q 127 585 127 565 q 141 614 127 603 q 175 635 155 626 q 270 664 211 651 q 397 677 328 677 q 501 666 450 677 q 594 630 552 654 q 662 567 637 606 q 687 474 687 528 l 687 88 l 748 88 q 788 76 774 88 q 801 44 801 65 q 786 11 801 24 q 733 -2 770 -2 l 648 -2 m 578 270 q 532 297 564 283 q 460 320 499 310 q 385 329 421 329 q 247 299 299 329 q 194 202 194 268 q 216 126 194 155 q 277 85 238 97 q 366 72 316 72 q 460 92 416 72 q 535 140 503 113 q 578 188 566 167 l 578 270 m 547 936 q 575 926 565 936 q 585 897 585 915 q 581 880 585 889 q 570 860 578 870 q 520 791 556 820 q 428 761 485 761 q 341 789 374 761 q 293 857 307 817 q 280 877 283 867 q 276 897 276 888 q 286 925 276 915 q 313 936 296 936 q 344 924 335 936 q 358 894 353 913 q 378 848 362 869 q 430 826 394 826 q 482 848 467 826 q 502 893 498 869 q 515 924 506 912 q 547 936 525 936 m 504 1018 q 453 1029 472 1018 q 417 1055 435 1040 q 390 1075 403 1068 q 358 1082 378 1082 q 320 1075 337 1082 q 291 1058 303 1067 q 258 1042 270 1042 q 240 1051 248 1042 q 233 1072 233 1060 q 259 1119 233 1096 q 302 1146 277 1134 q 356 1158 326 1158 q 407 1148 388 1158 q 441 1123 425 1138 q 467 1101 454 1109 q 503 1093 481 1093 q 538 1100 523 1093 q 565 1117 553 1107 q 583 1130 574 1125 q 602 1135 592 1135 q 622 1128 613 1135 q 631 1106 631 1120 q 619 1077 631 1088 q 575 1039 605 1060 q 504 1018 545 1018 z "},"ǎ":{"ha":860,"x_min":84,"x_max":801,"o":"m 648 -2 q 599 12 614 -2 q 582 52 585 26 l 579 89 q 536 45 567 69 q 458 5 505 22 q 350 -12 411 -12 q 214 11 274 -12 q 119 83 153 35 q 84 200 84 130 q 122 314 84 267 q 226 385 160 360 q 376 410 292 410 q 461 401 420 410 q 534 380 503 392 q 578 358 565 367 l 578 457 q 560 519 578 494 q 515 559 543 544 q 452 581 486 574 q 383 587 417 587 q 292 576 338 587 q 215 551 247 565 q 195 545 205 547 q 178 544 185 544 q 141 555 156 544 q 127 585 127 565 q 141 614 127 603 q 175 635 155 626 q 270 664 211 651 q 397 677 328 677 q 501 666 450 677 q 594 630 552 654 q 662 567 637 606 q 687 474 687 528 l 687 88 l 748 88 q 788 76 774 88 q 801 44 801 65 q 786 11 801 24 q 733 -2 770 -2 l 648 -2 m 578 270 q 532 297 564 283 q 460 320 499 310 q 385 329 421 329 q 247 299 299 329 q 194 202 194 268 q 216 126 194 155 q 277 85 238 97 q 366 72 316 72 q 460 92 416 72 q 535 140 503 113 q 578 188 566 167 l 578 270 m 574 848 l 509 782 q 472 750 489 760 q 430 740 454 740 q 389 750 406 740 q 351 782 371 760 l 286 848 q 271 881 271 864 q 281 904 271 895 q 307 913 291 913 q 332 906 322 913 q 355 884 342 898 l 431 803 l 506 883 q 528 905 518 897 q 553 913 539 913 q 581 904 570 913 q 591 882 591 895 q 574 848 591 865 z "},"â":{"ha":860,"x_min":84,"x_max":801,"o":"m 648 -2 q 599 12 614 -2 q 582 52 585 26 l 579 89 q 536 45 567 69 q 458 5 505 22 q 350 -12 411 -12 q 214 11 274 -12 q 119 83 153 35 q 84 200 84 130 q 122 314 84 267 q 226 385 160 360 q 376 410 292 410 q 461 401 420 410 q 534 380 503 392 q 578 358 565 367 l 578 457 q 560 519 578 494 q 515 559 543 544 q 452 581 486 574 q 383 587 417 587 q 292 576 338 587 q 215 551 247 565 q 195 545 205 547 q 178 544 185 544 q 141 555 156 544 q 127 585 127 565 q 141 614 127 603 q 175 635 155 626 q 270 664 211 651 q 397 677 328 677 q 501 666 450 677 q 594 630 552 654 q 662 567 637 606 q 687 474 687 528 l 687 88 l 748 88 q 788 76 774 88 q 801 44 801 65 q 786 11 801 24 q 733 -2 770 -2 l 648 -2 m 578 270 q 532 297 564 283 q 460 320 499 310 q 385 329 421 329 q 247 299 299 329 q 194 202 194 268 q 216 126 194 155 q 277 85 238 97 q 366 72 316 72 q 460 92 416 72 q 535 140 503 113 q 578 188 566 167 l 578 270 m 574 804 q 591 771 591 787 q 581 748 591 757 q 553 740 570 740 q 528 748 539 740 q 506 769 518 756 l 431 850 l 355 769 q 332 747 342 755 q 307 740 322 740 q 281 749 291 740 q 271 772 271 758 q 286 804 271 789 l 351 871 q 389 903 371 892 q 430 913 406 913 q 472 903 454 913 q 509 871 489 892 l 574 804 z "},"ấ":{"ha":860,"x_min":84,"x_max":801,"o":"m 648 -2 q 599 12 614 -2 q 582 52 585 26 l 579 89 q 536 45 567 69 q 458 5 505 22 q 350 -12 411 -12 q 214 11 274 -12 q 119 83 153 35 q 84 200 84 130 q 122 314 84 267 q 226 385 160 360 q 376 410 292 410 q 461 401 420 410 q 534 380 503 392 q 578 358 565 367 l 578 457 q 560 519 578 494 q 515 559 543 544 q 452 581 486 574 q 383 587 417 587 q 292 576 338 587 q 215 551 247 565 q 195 545 205 547 q 178 544 185 544 q 141 555 156 544 q 127 585 127 565 q 141 614 127 603 q 175 635 155 626 q 270 664 211 651 q 397 677 328 677 q 501 666 450 677 q 594 630 552 654 q 662 567 637 606 q 687 474 687 528 l 687 88 l 748 88 q 788 76 774 88 q 801 44 801 65 q 786 11 801 24 q 733 -2 770 -2 l 648 -2 m 578 270 q 532 297 564 283 q 460 320 499 310 q 385 329 421 329 q 247 299 299 329 q 194 202 194 268 q 216 126 194 155 q 277 85 238 97 q 366 72 316 72 q 460 92 416 72 q 535 140 503 113 q 578 188 566 167 l 578 270 m 574 804 q 591 771 591 787 q 581 748 591 757 q 553 740 570 740 q 528 748 539 740 q 506 769 518 756 l 431 850 l 355 769 q 332 747 342 755 q 307 740 322 740 q 281 749 291 740 q 271 772 271 758 q 286 804 271 789 l 351 871 q 389 903 371 892 q 430 913 406 913 q 472 903 454 913 q 509 871 489 892 l 574 804 m 567 865 q 551 869 559 865 q 543 884 543 873 q 563 928 543 899 l 620 1005 q 651 1039 636 1031 q 693 1047 665 1047 l 708 1047 q 733 1040 724 1047 q 742 1022 742 1033 q 722 987 742 1005 l 630 895 q 596 872 612 878 q 567 865 581 865 z "},"ậ":{"ha":860,"x_min":84,"x_max":801,"o":"m 648 -2 q 599 12 614 -2 q 582 52 585 26 l 579 89 q 536 45 567 69 q 458 5 505 22 q 350 -12 411 -12 q 214 11 274 -12 q 119 83 153 35 q 84 200 84 130 q 122 314 84 267 q 226 385 160 360 q 376 410 292 410 q 461 401 420 410 q 534 380 503 392 q 578 358 565 367 l 578 457 q 560 519 578 494 q 515 559 543 544 q 452 581 486 574 q 383 587 417 587 q 292 576 338 587 q 215 551 247 565 q 195 545 205 547 q 178 544 185 544 q 141 555 156 544 q 127 585 127 565 q 141 614 127 603 q 175 635 155 626 q 270 664 211 651 q 397 677 328 677 q 501 666 450 677 q 594 630 552 654 q 662 567 637 606 q 687 474 687 528 l 687 88 l 748 88 q 788 76 774 88 q 801 44 801 65 q 786 11 801 24 q 733 -2 770 -2 l 648 -2 m 578 270 q 532 297 564 283 q 460 320 499 310 q 385 329 421 329 q 247 299 299 329 q 194 202 194 268 q 216 126 194 155 q 277 85 238 97 q 366 72 316 72 q 460 92 416 72 q 535 140 503 113 q 578 188 566 167 l 578 270 m 431 -246 q 372 -222 396 -246 q 349 -163 349 -198 q 372 -106 349 -129 q 431 -82 396 -82 q 488 -106 464 -82 q 512 -163 512 -129 q 488 -223 512 -199 q 431 -246 464 -246 m 574 804 q 591 771 591 787 q 581 748 591 757 q 553 740 570 740 q 528 748 539 740 q 506 769 518 756 l 431 850 l 355 769 q 332 747 342 755 q 307 740 322 740 q 281 749 291 740 q 271 772 271 758 q 286 804 271 789 l 351 871 q 389 903 371 892 q 430 913 406 913 q 472 903 454 913 q 509 871 489 892 l 574 804 z "},"ầ":{"ha":860,"x_min":84,"x_max":801,"o":"m 648 -2 q 599 12 614 -2 q 582 52 585 26 l 579 89 q 536 45 567 69 q 458 5 505 22 q 350 -12 411 -12 q 214 11 274 -12 q 119 83 153 35 q 84 200 84 130 q 122 314 84 267 q 226 385 160 360 q 376 410 292 410 q 461 401 420 410 q 534 380 503 392 q 578 358 565 367 l 578 457 q 560 519 578 494 q 515 559 543 544 q 452 581 486 574 q 383 587 417 587 q 292 576 338 587 q 215 551 247 565 q 195 545 205 547 q 178 544 185 544 q 141 555 156 544 q 127 585 127 565 q 141 614 127 603 q 175 635 155 626 q 270 664 211 651 q 397 677 328 677 q 501 666 450 677 q 594 630 552 654 q 662 567 637 606 q 687 474 687 528 l 687 88 l 748 88 q 788 76 774 88 q 801 44 801 65 q 786 11 801 24 q 733 -2 770 -2 l 648 -2 m 578 270 q 532 297 564 283 q 460 320 499 310 q 385 329 421 329 q 247 299 299 329 q 194 202 194 268 q 216 126 194 155 q 277 85 238 97 q 366 72 316 72 q 460 92 416 72 q 535 140 503 113 q 578 188 566 167 l 578 270 m 574 804 q 591 771 591 787 q 581 748 591 757 q 553 740 570 740 q 528 748 539 740 q 506 769 518 756 l 431 850 l 355 769 q 332 747 342 755 q 307 740 322 740 q 281 749 291 740 q 271 772 271 758 q 286 804 271 789 l 351 871 q 389 903 371 892 q 430 913 406 913 q 472 903 454 913 q 509 871 489 892 l 574 804 m 631 865 q 602 871 618 865 q 569 895 587 878 l 476 987 q 457 1022 457 1006 q 466 1040 457 1033 q 490 1047 476 1047 l 506 1047 q 548 1039 533 1047 q 578 1005 563 1031 l 635 928 q 656 884 656 899 q 648 869 656 873 q 631 865 640 865 z "},"ẩ":{"ha":860,"x_min":84,"x_max":801,"o":"m 648 -2 q 599 12 614 -2 q 582 52 585 26 l 579 89 q 536 45 567 69 q 458 5 505 22 q 350 -12 411 -12 q 214 11 274 -12 q 119 83 153 35 q 84 200 84 130 q 122 314 84 267 q 226 385 160 360 q 376 410 292 410 q 461 401 420 410 q 534 380 503 392 q 578 358 565 367 l 578 457 q 560 519 578 494 q 515 559 543 544 q 452 581 486 574 q 383 587 417 587 q 292 576 338 587 q 215 551 247 565 q 195 545 205 547 q 178 544 185 544 q 141 555 156 544 q 127 585 127 565 q 141 614 127 603 q 175 635 155 626 q 270 664 211 651 q 397 677 328 677 q 501 666 450 677 q 594 630 552 654 q 662 567 637 606 q 687 474 687 528 l 687 88 l 748 88 q 788 76 774 88 q 801 44 801 65 q 786 11 801 24 q 733 -2 770 -2 l 648 -2 m 578 270 q 532 297 564 283 q 460 320 499 310 q 385 329 421 329 q 247 299 299 329 q 194 202 194 268 q 216 126 194 155 q 277 85 238 97 q 366 72 316 72 q 460 92 416 72 q 535 140 503 113 q 578 188 566 167 l 578 270 m 574 804 q 591 771 591 787 q 581 748 591 757 q 553 740 570 740 q 528 748 539 740 q 506 769 518 756 l 431 850 l 355 769 q 332 747 342 755 q 307 740 322 740 q 281 749 291 740 q 271 772 271 758 q 286 804 271 789 l 351 871 q 389 903 371 892 q 430 913 406 913 q 472 903 454 913 q 509 871 489 892 l 574 804 m 581 877 q 542 906 542 877 q 552 927 542 919 q 581 935 562 935 q 649 944 616 935 q 681 980 681 953 q 652 1011 681 1003 q 590 1018 622 1018 q 551 1016 568 1018 q 521 1010 534 1013 q 505 1007 513 1008 q 491 1006 496 1006 q 474 1011 482 1006 q 467 1030 467 1017 q 502 1065 467 1053 q 588 1077 537 1077 q 668 1069 631 1077 q 729 1039 706 1060 q 752 978 752 1018 q 724 916 752 938 q 656 885 696 894 q 581 877 616 877 z "},"ẫ":{"ha":860,"x_min":84,"x_max":801,"o":"m 648 -2 q 599 12 614 -2 q 582 52 585 26 l 579 89 q 536 45 567 69 q 458 5 505 22 q 350 -12 411 -12 q 214 11 274 -12 q 119 83 153 35 q 84 200 84 130 q 122 314 84 267 q 226 385 160 360 q 376 410 292 410 q 461 401 420 410 q 534 380 503 392 q 578 358 565 367 l 578 457 q 560 519 578 494 q 515 559 543 544 q 452 581 486 574 q 383 587 417 587 q 292 576 338 587 q 215 551 247 565 q 195 545 205 547 q 178 544 185 544 q 141 555 156 544 q 127 585 127 565 q 141 614 127 603 q 175 635 155 626 q 270 664 211 651 q 397 677 328 677 q 501 666 450 677 q 594 630 552 654 q 662 567 637 606 q 687 474 687 528 l 687 88 l 748 88 q 788 76 774 88 q 801 44 801 65 q 786 11 801 24 q 733 -2 770 -2 l 648 -2 m 578 270 q 532 297 564 283 q 460 320 499 310 q 385 329 421 329 q 247 299 299 329 q 194 202 194 268 q 216 126 194 155 q 277 85 238 97 q 366 72 316 72 q 460 92 416 72 q 535 140 503 113 q 578 188 566 167 l 578 270 m 574 804 q 591 771 591 787 q 581 748 591 757 q 553 740 570 740 q 528 748 539 740 q 506 769 518 756 l 431 850 l 355 769 q 332 747 342 755 q 307 740 322 740 q 281 749 291 740 q 271 772 271 758 q 286 804 271 789 l 351 871 q 389 903 371 892 q 430 913 406 913 q 472 903 454 913 q 509 871 489 892 l 574 804 m 504 995 q 453 1006 472 995 q 417 1032 435 1017 q 390 1052 403 1045 q 358 1059 378 1059 q 320 1052 337 1059 q 291 1035 303 1044 q 258 1019 270 1019 q 240 1028 248 1019 q 233 1049 233 1037 q 259 1097 233 1073 q 302 1123 277 1111 q 356 1135 326 1135 q 407 1125 388 1135 q 441 1100 425 1115 q 467 1078 454 1086 q 503 1070 481 1070 q 538 1077 523 1070 q 565 1094 553 1084 q 583 1107 574 1102 q 602 1113 592 1113 q 622 1105 613 1113 q 631 1083 631 1097 q 619 1054 631 1065 q 575 1016 605 1037 q 504 995 545 995 z "},"ȁ":{"ha":860,"x_min":84,"x_max":801,"o":"m 648 -2 q 599 12 614 -2 q 582 52 585 26 l 579 89 q 536 45 567 69 q 458 5 505 22 q 350 -12 411 -12 q 214 11 274 -12 q 119 83 153 35 q 84 200 84 130 q 122 314 84 267 q 226 385 160 360 q 376 410 292 410 q 461 401 420 410 q 534 380 503 392 q 578 358 565 367 l 578 457 q 560 519 578 494 q 515 559 543 544 q 452 581 486 574 q 383 587 417 587 q 292 576 338 587 q 215 551 247 565 q 195 545 205 547 q 178 544 185 544 q 141 555 156 544 q 127 585 127 565 q 141 614 127 603 q 175 635 155 626 q 270 664 211 651 q 397 677 328 677 q 501 666 450 677 q 594 630 552 654 q 662 567 637 606 q 687 474 687 528 l 687 88 l 748 88 q 788 76 774 88 q 801 44 801 65 q 786 11 801 24 q 733 -2 770 -2 l 648 -2 m 578 270 q 532 297 564 283 q 460 320 499 310 q 385 329 421 329 q 247 299 299 329 q 194 202 194 268 q 216 126 194 155 q 277 85 238 97 q 366 72 316 72 q 460 92 416 72 q 535 140 503 113 q 578 188 566 167 l 578 270 m 332 758 q 297 767 314 758 q 260 796 279 776 l 178 880 q 165 899 169 890 q 160 915 160 908 q 169 933 160 926 q 192 940 178 940 l 210 940 q 248 931 235 940 q 276 898 261 922 l 333 822 q 354 777 354 792 q 347 763 354 768 q 332 758 340 758 m 537 758 q 501 767 519 758 q 464 796 484 776 l 383 880 q 366 915 366 899 q 375 933 366 926 q 397 940 383 940 l 415 940 q 453 931 440 940 q 481 898 466 922 l 538 822 q 559 777 559 793 q 552 763 559 768 q 537 758 546 758 z "},"ä":{"ha":860,"x_min":84,"x_max":801,"o":"m 648 -2 q 599 12 614 -2 q 582 52 585 26 l 579 89 q 536 45 567 69 q 458 5 505 22 q 350 -12 411 -12 q 214 11 274 -12 q 119 83 153 35 q 84 200 84 130 q 122 314 84 267 q 226 385 160 360 q 376 410 292 410 q 461 401 420 410 q 534 380 503 392 q 578 358 565 367 l 578 457 q 560 519 578 494 q 515 559 543 544 q 452 581 486 574 q 383 587 417 587 q 292 576 338 587 q 215 551 247 565 q 195 545 205 547 q 178 544 185 544 q 141 555 156 544 q 127 585 127 565 q 141 614 127 603 q 175 635 155 626 q 270 664 211 651 q 397 677 328 677 q 501 666 450 677 q 594 630 552 654 q 662 567 637 606 q 687 474 687 528 l 687 88 l 748 88 q 788 76 774 88 q 801 44 801 65 q 786 11 801 24 q 733 -2 770 -2 l 648 -2 m 578 270 q 532 297 564 283 q 460 320 499 310 q 385 329 421 329 q 247 299 299 329 q 194 202 194 268 q 216 126 194 155 q 277 85 238 97 q 366 72 316 72 q 460 92 416 72 q 535 140 503 113 q 578 188 566 167 l 578 270 m 294 776 q 237 800 260 776 q 213 858 213 824 q 237 917 213 893 q 294 941 260 941 q 352 917 328 941 q 376 858 376 893 q 352 800 376 824 q 294 776 328 776 m 567 776 q 508 800 532 776 q 485 858 485 824 q 508 917 485 893 q 567 941 532 941 q 625 917 601 941 q 649 858 649 893 q 625 800 649 824 q 567 776 601 776 z "},"ạ":{"ha":860,"x_min":84,"x_max":801,"o":"m 648 -2 q 599 12 614 -2 q 582 52 585 26 l 579 89 q 536 45 567 69 q 458 5 505 22 q 350 -12 411 -12 q 214 11 274 -12 q 119 83 153 35 q 84 200 84 130 q 122 314 84 267 q 226 385 160 360 q 376 410 292 410 q 461 401 420 410 q 534 380 503 392 q 578 358 565 367 l 578 457 q 560 519 578 494 q 515 559 543 544 q 452 581 486 574 q 383 587 417 587 q 292 576 338 587 q 215 551 247 565 q 195 545 205 547 q 178 544 185 544 q 141 555 156 544 q 127 585 127 565 q 141 614 127 603 q 175 635 155 626 q 270 664 211 651 q 397 677 328 677 q 501 666 450 677 q 594 630 552 654 q 662 567 637 606 q 687 474 687 528 l 687 88 l 748 88 q 788 76 774 88 q 801 44 801 65 q 786 11 801 24 q 733 -2 770 -2 l 648 -2 m 578 270 q 532 297 564 283 q 460 320 499 310 q 385 329 421 329 q 247 299 299 329 q 194 202 194 268 q 216 126 194 155 q 277 85 238 97 q 366 72 316 72 q 460 92 416 72 q 535 140 503 113 q 578 188 566 167 l 578 270 m 431 -246 q 372 -222 396 -246 q 349 -163 349 -198 q 372 -106 349 -129 q 431 -82 396 -82 q 488 -106 464 -82 q 512 -163 512 -129 q 488 -223 512 -199 q 431 -246 464 -246 z "},"à":{"ha":860,"x_min":84,"x_max":801,"o":"m 648 -2 q 599 12 614 -2 q 582 52 585 26 l 579 89 q 536 45 567 69 q 458 5 505 22 q 350 -12 411 -12 q 214 11 274 -12 q 119 83 153 35 q 84 200 84 130 q 122 314 84 267 q 226 385 160 360 q 376 410 292 410 q 461 401 420 410 q 534 380 503 392 q 578 358 565 367 l 578 457 q 560 519 578 494 q 515 559 543 544 q 452 581 486 574 q 383 587 417 587 q 292 576 338 587 q 215 551 247 565 q 195 545 205 547 q 178 544 185 544 q 141 555 156 544 q 127 585 127 565 q 141 614 127 603 q 175 635 155 626 q 270 664 211 651 q 397 677 328 677 q 501 666 450 677 q 594 630 552 654 q 662 567 637 606 q 687 474 687 528 l 687 88 l 748 88 q 788 76 774 88 q 801 44 801 65 q 786 11 801 24 q 733 -2 770 -2 l 648 -2 m 578 270 q 532 297 564 283 q 460 320 499 310 q 385 329 421 329 q 247 299 299 329 q 194 202 194 268 q 216 126 194 155 q 277 85 238 97 q 366 72 316 72 q 460 92 416 72 q 535 140 503 113 q 578 188 566 167 l 578 270 m 446 758 q 417 764 433 758 q 383 788 401 771 l 291 880 q 272 915 272 899 q 281 933 272 926 q 304 940 290 940 l 320 940 q 363 932 348 940 q 393 898 378 924 l 450 822 q 470 777 470 792 q 462 762 470 766 q 446 758 454 758 z "},"ả":{"ha":860,"x_min":84,"x_max":801,"o":"m 648 -2 q 599 12 614 -2 q 582 52 585 26 l 579 89 q 536 45 567 69 q 458 5 505 22 q 350 -12 411 -12 q 214 11 274 -12 q 119 83 153 35 q 84 200 84 130 q 122 314 84 267 q 226 385 160 360 q 376 410 292 410 q 461 401 420 410 q 534 380 503 392 q 578 358 565 367 l 578 457 q 560 519 578 494 q 515 559 543 544 q 452 581 486 574 q 383 587 417 587 q 292 576 338 587 q 215 551 247 565 q 195 545 205 547 q 178 544 185 544 q 141 555 156 544 q 127 585 127 565 q 141 614 127 603 q 175 635 155 626 q 270 664 211 651 q 397 677 328 677 q 501 666 450 677 q 594 630 552 654 q 662 567 637 606 q 687 474 687 528 l 687 88 l 748 88 q 788 76 774 88 q 801 44 801 65 q 786 11 801 24 q 733 -2 770 -2 l 648 -2 m 578 270 q 532 297 564 283 q 460 320 499 310 q 385 329 421 329 q 247 299 299 329 q 194 202 194 268 q 216 126 194 155 q 277 85 238 97 q 366 72 316 72 q 460 92 416 72 q 535 140 503 113 q 578 188 566 167 l 578 270 m 400 750 q 362 778 362 750 q 372 800 362 792 q 400 808 381 808 q 468 817 435 808 q 501 853 501 826 q 471 884 501 876 q 409 891 442 891 q 370 889 388 891 q 340 883 353 886 q 324 880 333 881 q 310 879 315 879 q 294 884 301 879 q 286 903 286 890 q 321 938 286 926 q 407 950 356 950 q 488 942 451 950 q 548 912 525 933 q 572 851 572 891 q 543 789 572 811 q 475 758 515 767 q 400 750 435 750 z "},"ȃ":{"ha":860,"x_min":84,"x_max":801,"o":"m 648 -2 q 599 12 614 -2 q 582 52 585 26 l 579 89 q 536 45 567 69 q 458 5 505 22 q 350 -12 411 -12 q 214 11 274 -12 q 119 83 153 35 q 84 200 84 130 q 122 314 84 267 q 226 385 160 360 q 376 410 292 410 q 461 401 420 410 q 534 380 503 392 q 578 358 565 367 l 578 457 q 560 519 578 494 q 515 559 543 544 q 452 581 486 574 q 383 587 417 587 q 292 576 338 587 q 215 551 247 565 q 195 545 205 547 q 178 544 185 544 q 141 555 156 544 q 127 585 127 565 q 141 614 127 603 q 175 635 155 626 q 270 664 211 651 q 397 677 328 677 q 501 666 450 677 q 594 630 552 654 q 662 567 637 606 q 687 474 687 528 l 687 88 l 748 88 q 788 76 774 88 q 801 44 801 65 q 786 11 801 24 q 733 -2 770 -2 l 648 -2 m 578 270 q 532 297 564 283 q 460 320 499 310 q 385 329 421 329 q 247 299 299 329 q 194 202 194 268 q 216 126 194 155 q 277 85 238 97 q 366 72 316 72 q 460 92 416 72 q 535 140 503 113 q 578 188 566 167 l 578 270 m 547 752 q 516 765 526 752 q 502 795 506 777 q 482 841 498 819 q 430 863 467 863 q 378 841 394 863 q 358 795 363 819 q 344 764 354 776 q 313 752 335 752 q 286 763 296 752 q 276 792 276 774 q 280 812 276 801 q 293 832 283 822 q 341 899 308 871 q 428 928 375 928 q 520 898 485 928 q 570 828 556 869 q 581 809 578 819 q 585 792 585 799 q 575 763 585 774 q 547 752 565 752 z "},"ā":{"ha":860,"x_min":84,"x_max":801,"o":"m 648 -2 q 599 12 614 -2 q 582 52 585 26 l 579 89 q 536 45 567 69 q 458 5 505 22 q 350 -12 411 -12 q 214 11 274 -12 q 119 83 153 35 q 84 200 84 130 q 122 314 84 267 q 226 385 160 360 q 376 410 292 410 q 461 401 420 410 q 534 380 503 392 q 578 358 565 367 l 578 457 q 560 519 578 494 q 515 559 543 544 q 452 581 486 574 q 383 587 417 587 q 292 576 338 587 q 215 551 247 565 q 195 545 205 547 q 178 544 185 544 q 141 555 156 544 q 127 585 127 565 q 141 614 127 603 q 175 635 155 626 q 270 664 211 651 q 397 677 328 677 q 501 666 450 677 q 594 630 552 654 q 662 567 637 606 q 687 474 687 528 l 687 88 l 748 88 q 788 76 774 88 q 801 44 801 65 q 786 11 801 24 q 733 -2 770 -2 l 648 -2 m 578 270 q 532 297 564 283 q 460 320 499 310 q 385 329 421 329 q 247 299 299 329 q 194 202 194 268 q 216 126 194 155 q 277 85 238 97 q 366 72 316 72 q 460 92 416 72 q 535 140 503 113 q 578 188 566 167 l 578 270 m 187 841 q 203 869 187 859 q 255 879 220 879 l 606 879 q 658 869 641 879 q 674 841 674 859 q 658 813 674 824 q 606 803 641 803 l 255 803 q 203 813 220 803 q 187 841 187 824 z "},"ą":{"ha":860,"x_min":84,"x_max":840,"o":"m 648 -2 q 599 12 614 -2 q 582 52 585 26 l 579 89 q 536 45 567 69 q 458 5 505 22 q 350 -12 411 -12 q 214 11 274 -12 q 119 83 153 35 q 84 200 84 130 q 122 314 84 267 q 226 385 160 360 q 376 410 292 410 q 461 401 420 410 q 534 380 503 392 q 578 358 565 367 l 578 457 q 560 519 578 494 q 515 559 543 544 q 452 581 486 574 q 383 587 417 587 q 292 576 338 587 q 215 551 247 565 q 195 545 205 547 q 178 544 185 544 q 141 555 156 544 q 127 585 127 565 q 141 614 127 603 q 175 635 155 626 q 270 664 211 651 q 397 677 328 677 q 501 666 450 677 q 594 630 552 654 q 662 567 637 606 q 687 474 687 528 l 687 88 l 748 88 q 788 76 774 88 q 801 44 801 65 q 786 11 801 24 q 733 -2 770 -2 l 648 -2 m 578 270 q 532 297 564 283 q 460 320 499 310 q 385 329 421 329 q 247 299 299 329 q 194 202 194 268 q 216 126 194 155 q 277 85 238 97 q 366 72 316 72 q 460 92 416 72 q 535 140 503 113 q 578 188 566 167 l 578 270 m 729 -316 q 649 -303 686 -316 q 588 -263 611 -291 q 565 -190 565 -235 q 578 -124 565 -157 q 611 -64 591 -91 q 652 -19 631 -36 q 690 0 674 -1 l 744 0 q 709 -39 728 -10 q 674 -102 689 -67 q 659 -171 659 -138 q 681 -224 659 -208 q 733 -240 703 -240 q 755 -238 743 -240 q 776 -235 767 -237 q 791 -232 783 -233 q 803 -231 798 -231 q 831 -241 822 -231 q 840 -265 840 -251 q 805 -305 840 -293 q 729 -316 771 -316 z "},"å":{"ha":860,"x_min":84,"x_max":801,"o":"m 648 -2 q 599 12 614 -2 q 582 52 585 26 l 579 89 q 536 45 567 69 q 458 5 505 22 q 350 -12 411 -12 q 214 11 274 -12 q 119 83 153 35 q 84 200 84 130 q 122 314 84 267 q 226 385 160 360 q 376 410 292 410 q 461 401 420 410 q 534 380 503 392 q 578 358 565 367 l 578 457 q 560 519 578 494 q 515 559 543 544 q 452 581 486 574 q 383 587 417 587 q 292 576 338 587 q 215 551 247 565 q 195 545 205 547 q 178 544 185 544 q 141 555 156 544 q 127 585 127 565 q 141 614 127 603 q 175 635 155 626 q 270 664 211 651 q 397 677 328 677 q 501 666 450 677 q 594 630 552 654 q 662 567 637 606 q 687 474 687 528 l 687 88 l 748 88 q 788 76 774 88 q 801 44 801 65 q 786 11 801 24 q 733 -2 770 -2 l 648 -2 m 578 270 q 532 297 564 283 q 460 320 499 310 q 385 329 421 329 q 247 299 299 329 q 194 202 194 268 q 216 126 194 155 q 277 85 238 97 q 366 72 316 72 q 460 92 416 72 q 535 140 503 113 q 578 188 566 167 l 578 270 m 432 737 q 348 770 383 737 q 313 854 313 803 q 330 912 313 885 q 373 954 346 938 q 432 969 399 969 q 489 954 463 969 q 532 912 515 938 q 548 854 548 885 q 513 770 548 803 q 432 737 478 737 m 432 800 q 468 815 453 800 q 484 855 484 830 q 468 890 484 876 q 432 905 453 905 q 393 890 409 905 q 378 855 378 876 q 393 815 378 830 q 432 800 409 800 z "},"ǻ":{"ha":860,"x_min":84,"x_max":801,"o":"m 648 -2 q 599 12 614 -2 q 582 52 585 26 l 579 89 q 536 45 567 69 q 458 5 505 22 q 350 -12 411 -12 q 214 11 274 -12 q 119 83 153 35 q 84 200 84 130 q 122 314 84 267 q 226 385 160 360 q 376 410 292 410 q 461 401 420 410 q 534 380 503 392 q 578 358 565 367 l 578 457 q 560 519 578 494 q 515 559 543 544 q 452 581 486 574 q 383 587 417 587 q 292 576 338 587 q 215 551 247 565 q 195 545 205 547 q 178 544 185 544 q 141 555 156 544 q 127 585 127 565 q 141 614 127 603 q 175 635 155 626 q 270 664 211 651 q 397 677 328 677 q 501 666 450 677 q 594 630 552 654 q 662 567 637 606 q 687 474 687 528 l 687 88 l 748 88 q 788 76 774 88 q 801 44 801 65 q 786 11 801 24 q 733 -2 770 -2 l 648 -2 m 578 270 q 532 297 564 283 q 460 320 499 310 q 385 329 421 329 q 247 299 299 329 q 194 202 194 268 q 216 126 194 155 q 277 85 238 97 q 366 72 316 72 q 460 92 416 72 q 535 140 503 113 q 578 188 566 167 l 578 270 m 432 737 q 348 770 383 737 q 313 854 313 803 q 330 912 313 885 q 373 954 346 938 q 432 969 399 969 q 489 954 463 969 q 532 912 515 938 q 548 854 548 885 q 513 770 548 803 q 432 737 478 737 m 432 800 q 468 815 453 800 q 484 855 484 830 q 468 890 484 876 q 432 905 453 905 q 393 890 409 905 q 378 855 378 876 q 393 815 378 830 q 432 800 409 800 m 354 1066 q 339 1070 347 1066 q 331 1085 331 1074 q 351 1130 331 1100 l 408 1206 q 438 1240 424 1232 q 481 1248 453 1248 l 496 1248 q 520 1241 511 1248 q 529 1223 529 1235 q 510 1188 529 1206 l 417 1097 q 384 1073 399 1080 q 354 1066 368 1066 z "}}}
